{"glyphs":{"0":{"ha":883,"x_min":65,"x_max":843,"o":"m 68 399 q 108 632 69 532 q 208 798 146 732 q 348 896 269 864 q 510 928 426 928 q 658 895 593 928 q 767 801 724 863 q 826 653 810 740 q 829 456 843 565 q 774 257 814 344 q 675 110 733 169 q 544 19 617 50 q 390 -12 471 -12 q 259 15 319 -12 q 156 95 199 43 q 89 224 113 147 q 68 399 65 300 m 217 458 q 217 332 207 392 q 253 227 228 272 q 319 155 279 182 q 407 128 358 128 q 510 158 460 128 q 598 239 560 188 q 660 358 636 290 q 688 501 685 426 q 682 600 690 549 q 651 694 674 651 q 590 763 628 736 q 494 790 551 790 q 373 753 424 790 q 290 663 322 715 q 240 554 257 611 q 217 458 222 497 z "},"1":{"ha":428,"x_min":101,"x_max":358,"o":"m 118 779 l 135 917 l 358 917 l 246 0 l 101 0 l 197 779 l 118 779 z "},"2":{"ha":765,"x_min":22,"x_max":694,"o":"m 382 139 l 682 139 l 664 0 l 22 0 q 219 176 124 92 q 387 339 314 260 q 504 492 460 418 q 549 635 549 565 q 535 703 549 674 q 501 751 522 732 q 456 781 481 771 q 410 790 432 790 q 322 771 357 790 q 267 724 288 751 q 237 665 246 696 q 228 613 228 635 q 267 494 228 538 q 217 449 242 471 q 169 407 193 428 q 131 444 147 419 q 105 499 115 469 q 89 558 94 528 q 83 614 83 589 q 107 728 83 672 q 175 829 131 785 q 283 901 219 874 q 426 928 346 928 q 539 906 489 928 q 623 848 589 885 q 676 763 657 811 q 694 660 694 714 q 670 526 694 592 q 603 397 646 461 q 504 269 561 333 q 382 139 447 206 z "},"3":{"ha":650,"x_min":-4,"x_max":651,"o":"m 178 447 q 294 612 229 531 q 410 776 358 693 l 144 776 l 161 917 l 651 917 q 535 751 594 833 q 418 586 475 669 q 529 483 489 549 q 569 333 569 417 q 540 200 569 263 q 460 91 510 138 q 347 17 411 44 q 214 -11 282 -11 q 90 17 147 -11 q -4 90 33 44 l 113 188 q 232 128 153 128 q 304 143 269 128 q 366 184 339 158 q 409 244 393 210 q 425 317 425 279 q 414 376 425 349 q 383 425 403 404 q 335 458 363 446 q 274 469 307 469 q 178 447 221 469 z "},"4":{"ha":735,"x_min":-21,"x_max":685,"o":"m 425 542 q 392 505 413 528 q 349 457 371 482 q 307 408 328 432 q 274 371 286 385 l 404 371 l 425 542 m -21 233 q 135 404 54 317 q 297 581 215 492 q 460 757 379 669 q 615 928 540 844 l 547 371 l 685 371 l 667 233 l 531 233 l 501 0 l 358 0 l 386 233 l -21 233 z "},"5":{"ha":635,"x_min":8,"x_max":578,"o":"m 111 415 l 172 917 l 578 917 l 561 779 l 279 779 l 257 603 q 272 607 265 606 q 289 608 278 608 q 408 587 356 608 q 496 528 460 565 q 551 442 532 492 q 569 338 569 393 q 540 201 569 264 q 460 90 510 138 q 347 16 411 43 q 213 -11 282 -11 q 98 12 150 -11 q 8 76 46 35 q 67 125 38 101 q 124 172 96 149 q 171 140 143 153 q 232 128 199 128 q 304 143 269 128 q 366 184 339 158 q 409 244 393 210 q 425 317 425 279 q 413 376 425 349 q 381 425 401 404 q 332 458 360 446 q 272 471 304 471 q 194 462 236 471 q 111 415 151 453 z "},"6":{"ha":739,"x_min":43,"x_max":674,"o":"m 43 263 q 71 413 43 342 q 144 544 99 483 q 246 658 189 606 q 362 756 303 711 q 477 836 421 800 q 575 900 533 872 q 613 846 594 874 q 650 792 631 818 q 570 742 615 771 q 481 686 525 714 q 400 632 438 658 q 344 589 363 606 q 394 608 368 608 q 505 588 454 608 q 593 529 556 567 q 652 441 631 492 q 674 332 674 390 q 644 200 674 263 q 565 90 614 138 q 451 16 515 43 q 319 -11 388 -11 q 224 5 272 -11 q 135 54 175 21 q 69 139 94 88 q 43 263 43 190 m 192 282 q 232 173 192 218 q 336 128 272 128 q 408 143 374 128 q 470 185 443 158 q 513 245 497 211 q 529 317 529 279 q 517 377 529 349 q 485 426 506 406 q 438 459 465 447 q 378 471 410 471 q 307 456 340 471 q 248 415 274 440 q 207 355 222 389 q 192 282 192 321 z "},"7":{"ha":639,"x_min":60,"x_max":690,"o":"m 86 776 l 104 917 l 690 917 q 453 452 567 675 q 224 0 339 229 l 60 0 l 451 776 l 86 776 z "},"8":{"ha":738,"x_min":42,"x_max":672,"o":"m 315 689 q 340 632 315 656 q 399 608 365 608 q 469 636 438 608 q 501 704 501 664 q 478 765 501 739 q 422 790 454 790 q 383 782 403 790 q 349 760 364 774 q 324 727 333 746 q 315 689 315 708 m 190 282 q 201 222 190 250 q 231 172 213 193 q 276 140 250 151 q 335 128 303 128 q 407 143 372 128 q 469 184 442 158 q 513 244 496 210 q 529 317 529 279 q 488 424 529 381 q 383 471 447 468 q 313 457 347 471 q 251 417 278 443 q 207 357 224 392 q 190 282 190 322 m 42 261 q 58 365 42 318 q 99 448 74 411 q 158 510 125 485 q 224 553 190 536 q 186 606 197 575 q 175 664 175 636 q 197 768 175 719 q 253 852 218 817 q 335 908 289 888 q 433 928 382 928 q 515 913 478 928 q 580 869 553 897 q 622 801 607 840 q 638 717 638 763 q 553 553 638 615 q 637 469 601 525 q 672 329 672 414 q 646 201 672 263 q 573 92 619 139 q 461 17 526 46 q 318 -11 396 -11 q 200 11 251 -11 q 113 71 149 33 q 60 158 78 108 q 42 261 42 207 z "},"9":{"ha":738,"x_min":78,"x_max":715,"o":"m 706 589 q 665 448 696 514 q 588 324 633 382 q 487 217 542 267 q 376 125 432 167 q 269 49 321 83 q 176 -11 217 15 l 101 99 q 181 147 136 119 q 270 203 226 175 q 351 256 314 231 q 406 299 388 282 q 357 281 383 281 q 247 302 297 281 q 158 361 196 324 q 99 449 121 399 q 78 558 78 500 q 108 690 78 628 q 187 799 138 751 q 300 873 236 846 q 432 900 364 900 q 535 882 482 900 q 630 826 589 864 q 693 730 671 789 q 706 589 715 671 m 558 589 q 553 655 563 624 q 525 710 544 686 q 477 749 506 735 q 414 763 449 763 q 342 747 376 763 q 280 705 307 731 q 237 644 253 679 q 221 572 221 610 q 233 513 221 540 q 265 464 244 485 q 313 431 285 443 q 372 419 340 419 q 438 433 407 419 q 494 469 469 446 q 537 522 519 492 q 558 589 554 553 z "},"\u0000":{"ha":0,"x_min":0,"x_max":0,"o":""},"\r":{"ha":417,"x_min":0,"x_max":0,"o":""}," ":{"ha":317,"x_min":0,"x_max":0,"o":""},"t":{"ha":439,"x_min":44,"x_max":446,"o":"m 192 849 l 324 849 l 293 590 l 446 590 l 431 471 l 278 471 l 219 0 l 88 0 l 144 471 l 44 471 l 60 590 l 160 590 l 192 849 z "},"b":{"ha":760,"x_min":33,"x_max":711,"o":"m 703 293 q 665 170 694 226 q 589 72 635 114 q 483 8 543 31 q 356 -15 424 -15 q 239 10 288 -15 q 174 65 190 36 q 173 55 172 60 q 172 43 174 50 l 167 0 l 33 0 l 167 1085 l 300 1085 l 231 515 q 263 545 243 529 q 308 574 282 561 q 367 597 335 588 q 438 606 400 606 q 558 584 504 606 q 647 522 611 563 q 697 423 682 481 q 703 293 711 365 m 557 296 q 528 424 567 374 q 408 475 489 475 q 326 460 364 475 q 262 418 289 444 q 219 355 235 392 q 203 276 203 318 q 246 161 203 207 q 364 115 289 115 q 438 129 404 115 q 496 168 471 143 q 537 226 521 193 q 557 296 553 258 z "},"l":{"ha":296,"x_min":33,"x_max":299,"o":"m 165 0 l 33 0 l 167 1085 l 299 1085 l 165 0 z "},"m":{"ha":1135,"x_min":32,"x_max":1069,"o":"m 106 590 l 222 590 q 219 546 219 565 q 217 509 218 526 q 217 475 217 492 q 215 439 217 458 q 313 559 257 514 q 458 606 369 604 q 593 562 546 606 q 640 447 640 518 q 739 562 683 518 q 881 606 794 606 q 1021 556 972 606 q 1063 428 1069 507 l 1010 0 l 876 0 l 921 365 q 901 440 924 408 q 818 474 879 471 q 684 420 736 474 q 621 283 632 367 l 588 0 l 454 0 l 499 365 q 478 440 503 408 q 396 474 454 471 q 263 420 314 474 q 200 285 211 367 l 165 0 l 32 0 l 106 590 z "},"i":{"ha":297,"x_min":33,"x_max":285,"o":"m 119 811 q 149 877 119 851 q 213 903 179 903 q 263 881 240 903 q 285 828 285 860 q 276 790 285 807 q 255 761 268 774 q 225 742 242 749 q 193 736 208 736 q 142 756 164 736 q 119 811 119 776 m 167 0 l 33 0 l 106 590 l 239 590 l 167 0 z "},"h":{"ha":724,"x_min":33,"x_max":660,"o":"m 167 1085 l 300 1085 l 221 447 q 322 561 261 518 q 469 606 382 604 q 610 557 561 606 q 651 428 660 508 l 599 0 l 467 0 l 511 365 q 490 440 514 408 q 408 474 467 471 q 332 459 368 474 q 269 419 296 444 q 224 360 242 394 q 201 285 206 325 l 167 0 l 33 0 l 167 1085 z "},"c":{"ha":583,"x_min":28,"x_max":575,"o":"m 443 154 q 478 103 463 128 q 513 54 493 79 q 416 3 468 22 q 307 -15 364 -15 q 195 7 246 -15 q 107 67 144 29 q 49 156 69 106 q 28 264 28 207 q 57 395 28 333 q 135 504 86 457 q 248 578 183 551 q 383 606 313 606 q 490 587 442 606 q 575 536 538 568 l 478 438 q 367 475 436 475 q 285 460 322 475 q 219 418 247 444 q 176 355 192 392 q 161 276 161 318 q 204 162 161 208 q 322 115 247 115 q 443 154 392 115 z "},"q":{"ha":758,"x_min":31,"x_max":701,"o":"m 165 276 q 209 161 165 207 q 328 115 253 115 q 409 131 371 115 q 474 174 447 147 q 517 238 501 201 q 533 317 533 275 q 490 430 533 385 q 371 475 446 475 q 290 460 328 475 q 225 418 253 444 q 181 355 197 392 q 165 276 165 318 m 31 257 q 58 397 31 333 q 133 508 86 461 q 242 580 179 554 q 375 606 304 606 q 451 596 419 606 q 504 572 482 586 q 539 542 526 558 q 558 515 551 526 q 566 551 561 532 q 574 590 571 571 l 701 590 l 594 -283 l 461 -283 l 500 39 q 505 54 503 46 q 507 67 507 63 q 472 40 492 54 q 426 13 453 25 q 368 -8 400 0 q 296 -15 336 -15 q 181 6 231 -15 q 99 65 132 28 q 48 151 65 101 q 31 257 31 200 z "},"u":{"ha":724,"x_min":40,"x_max":665,"o":"m 592 -14 l 479 -14 l 483 150 q 381 33 443 79 q 226 -14 318 -14 q 88 34 135 -14 q 47 161 40 82 l 100 590 l 232 590 l 189 224 q 209 151 185 181 q 293 118 233 121 q 369 132 333 118 q 431 171 404 146 q 476 231 458 196 q 499 306 493 265 l 533 590 l 665 590 l 592 -14 z "},"r":{"ha":450,"x_min":33,"x_max":468,"o":"m 417 433 q 342 424 379 433 q 275 394 306 414 q 224 344 244 374 q 199 274 204 314 l 167 0 l 33 0 l 106 590 l 224 590 q 220 546 221 565 q 219 509 219 526 q 217 475 218 492 q 215 439 217 458 q 273 508 239 478 q 343 560 307 539 q 413 594 379 582 q 468 606 446 606 l 417 433 z "},"e":{"ha":651,"x_min":28,"x_max":633,"o":"m 546 68 q 433 7 497 29 q 307 -15 369 -15 q 195 7 246 -15 q 107 67 144 29 q 49 156 69 106 q 28 264 28 207 q 57 395 28 333 q 135 503 86 457 q 248 577 185 550 q 378 604 311 604 q 546 544 478 604 q 633 385 614 485 q 532 348 589 369 q 413 303 475 326 q 288 255 350 279 q 172 211 225 231 q 228 142 189 168 q 319 115 267 115 q 394 128 356 115 q 458 164 432 142 l 546 68 m 472 415 q 427 460 458 446 q 364 475 396 475 q 290 460 325 475 q 227 419 254 444 q 183 362 200 394 q 163 296 165 329 q 240 326 199 310 q 324 358 282 342 q 404 390 365 375 q 472 415 443 404 m 163 296 l 163 294 q 163 292 163 292 q 163 296 164 293 z "},"p":{"ha":760,"x_min":-1,"x_max":706,"o":"m 558 319 q 519 431 558 388 q 408 475 481 475 q 326 460 364 475 q 262 418 289 444 q 219 355 235 392 q 203 276 203 318 q 246 161 203 207 q 364 115 289 115 q 444 131 408 115 q 506 176 481 147 q 544 241 531 204 q 558 319 558 278 m 706 336 q 678 195 706 260 q 605 84 651 131 q 494 11 558 38 q 354 -15 429 -15 q 238 10 286 -15 q 174 65 189 36 q 173 55 172 60 q 172 43 174 50 l 132 -283 l -1 -283 l 106 590 l 233 590 q 232 551 231 571 q 231 515 233 532 q 263 545 243 529 q 308 574 282 561 q 367 597 335 588 q 438 606 400 606 q 548 587 499 606 q 633 533 597 568 q 687 449 668 499 q 706 336 706 399 z "},"á":{"ha":757,"x_min":28,"x_max":700,"o":"m 28 258 q 57 390 28 328 q 135 501 86 453 q 248 577 185 549 q 379 606 311 606 q 453 595 421 606 q 507 571 485 585 q 542 542 529 557 q 557 519 554 528 l 572 590 l 700 590 l 628 0 l 493 0 l 499 39 q 500 52 500 46 q 501 61 500 58 q 481 41 496 54 q 440 15 465 28 q 381 -6 415 3 q 304 -15 347 -15 q 190 7 242 -15 q 103 67 139 29 q 47 153 67 104 q 28 258 28 203 m 164 276 q 208 161 164 207 q 326 115 251 115 q 408 131 369 115 q 473 174 446 147 q 516 238 500 201 q 532 317 532 275 q 488 430 532 385 q 369 475 444 475 q 289 460 326 475 q 224 418 251 444 q 180 355 196 392 q 164 276 164 318 m 326 676 q 401 769 364 722 q 478 864 439 817 l 621 864 l 426 676 l 326 676 z "},"é":{"ha":653,"x_min":28,"x_max":633,"o":"m 546 68 q 433 7 497 29 q 307 -15 369 -15 q 195 7 246 -15 q 107 67 144 29 q 49 156 69 106 q 28 264 28 207 q 57 395 28 333 q 135 503 86 457 q 248 577 185 550 q 378 604 311 604 q 546 544 478 604 q 633 385 614 485 q 532 348 589 369 q 413 303 475 326 q 288 255 350 279 q 172 211 225 231 q 228 142 189 168 q 319 115 267 115 q 394 128 356 115 q 458 164 432 142 l 546 68 m 472 415 q 427 460 458 446 q 364 475 396 475 q 290 460 325 475 q 227 419 254 444 q 183 362 200 394 q 163 296 165 329 q 240 326 199 310 q 324 358 282 342 q 404 390 365 375 q 472 415 443 404 m 288 676 q 363 769 325 722 q 439 864 400 817 l 582 864 l 388 676 l 288 676 m 163 296 l 163 294 q 163 292 163 292 q 163 296 164 293 z "},"í":{"ha":296,"x_min":33,"x_max":413,"o":"m 167 0 l 33 0 l 106 590 l 239 590 l 167 0 m 118 676 q 193 769 156 722 q 269 864 231 817 l 413 864 l 218 676 l 118 676 z "},"ó":{"ha":714,"x_min":22,"x_max":682,"o":"m 31 296 q 69 416 38 360 q 149 514 101 472 q 258 580 197 556 q 385 604 318 604 q 497 583 446 604 q 583 524 547 561 q 640 436 619 486 q 660 328 660 386 q 632 196 660 258 q 556 87 604 133 q 444 13 508 40 q 307 -15 379 -15 q 188 7 242 -15 q 96 70 133 29 q 40 169 58 111 q 31 296 22 226 m 163 294 q 169 224 158 257 q 200 167 179 192 q 252 129 221 143 q 321 115 283 115 q 397 131 360 115 q 462 174 433 147 q 507 237 490 201 q 524 313 524 272 q 511 376 524 346 q 477 428 499 406 q 426 463 456 450 q 364 475 397 475 q 292 460 326 475 q 230 422 257 446 q 185 365 203 397 q 163 294 167 332 m 388 676 q 463 769 425 722 q 539 864 500 817 l 682 864 l 488 676 l 388 676 z "},"ú":{"ha":724,"x_min":40,"x_max":665,"o":"m 592 -14 l 479 -14 l 483 150 q 381 33 443 79 q 226 -14 318 -14 q 88 34 135 -14 q 47 161 40 82 l 100 590 l 232 590 l 189 224 q 209 151 185 181 q 293 118 233 121 q 369 132 333 118 q 431 171 404 146 q 476 231 458 196 q 499 306 493 265 l 533 590 l 665 590 l 592 -14 m 308 676 q 383 769 346 722 q 460 864 421 817 l 603 864 l 408 676 l 308 676 z "},"ä":{"ha":757,"x_min":28,"x_max":700,"o":"m 28 258 q 57 390 28 328 q 135 501 86 453 q 248 577 185 549 q 379 606 311 606 q 453 595 421 606 q 507 571 485 585 q 542 542 529 557 q 557 519 554 528 l 572 590 l 700 590 l 628 0 l 493 0 l 499 39 q 500 52 500 46 q 501 61 500 58 q 481 41 496 54 q 440 15 465 28 q 381 -6 415 3 q 304 -15 347 -15 q 190 7 242 -15 q 103 67 139 29 q 47 153 67 104 q 28 258 28 203 m 164 276 q 208 161 164 207 q 326 115 251 115 q 408 131 369 115 q 473 174 446 147 q 516 238 500 201 q 532 317 532 275 q 488 430 532 385 q 369 475 444 475 q 289 460 326 475 q 224 418 251 444 q 180 355 196 392 q 164 276 164 318 m 176 733 q 185 772 176 754 q 208 801 194 789 q 240 821 222 814 q 274 828 257 828 q 324 806 301 828 q 347 750 347 783 q 338 712 347 729 q 315 682 329 694 q 285 663 301 669 q 253 656 268 656 q 199 676 222 656 q 176 733 176 697 m 444 733 q 453 772 444 754 q 476 801 463 789 q 508 821 490 814 q 542 828 525 828 q 592 806 569 828 q 615 750 615 783 q 606 712 615 729 q 583 682 597 694 q 553 663 569 669 q 521 656 536 656 q 468 676 492 656 q 444 733 444 697 z "},"ë":{"ha":653,"x_min":28,"x_max":633,"o":"m 546 68 q 433 7 497 29 q 307 -15 369 -15 q 195 7 246 -15 q 107 67 144 29 q 49 156 69 106 q 28 264 28 207 q 57 395 28 333 q 135 503 86 457 q 248 577 185 550 q 378 604 311 604 q 546 544 478 604 q 633 385 614 485 q 532 348 589 369 q 413 303 475 326 q 288 255 350 279 q 172 211 225 231 q 228 142 189 168 q 319 115 267 115 q 394 128 356 115 q 458 164 432 142 l 546 68 m 472 415 q 427 460 458 446 q 364 475 396 475 q 290 460 325 475 q 227 419 254 444 q 183 362 200 394 q 163 296 165 329 q 240 326 199 310 q 324 358 282 342 q 404 390 365 375 q 472 415 443 404 m 144 733 q 153 772 144 754 q 176 801 163 789 q 208 821 190 814 q 242 828 225 828 q 292 806 269 828 q 315 750 315 783 q 306 712 315 729 q 283 682 297 694 q 253 663 269 669 q 221 656 236 656 q 167 676 190 656 q 144 733 144 697 m 413 733 q 422 772 413 754 q 444 801 431 789 q 476 821 458 814 q 510 828 493 828 q 560 806 538 828 q 583 750 583 783 q 574 712 583 729 q 551 682 565 694 q 521 663 538 669 q 489 656 504 656 q 436 676 460 656 q 413 733 413 697 m 163 296 l 163 294 q 163 292 163 292 q 163 296 164 293 z "},"ö":{"ha":714,"x_min":22,"x_max":660,"o":"m 31 296 q 69 416 38 360 q 149 514 101 472 q 258 580 197 556 q 385 604 318 604 q 497 583 446 604 q 583 524 547 561 q 640 436 619 486 q 660 328 660 386 q 632 196 660 258 q 556 87 604 133 q 444 13 508 40 q 307 -15 379 -15 q 188 7 242 -15 q 96 70 133 29 q 40 169 58 111 q 31 296 22 226 m 163 294 q 169 224 158 257 q 200 167 179 192 q 252 129 221 143 q 321 115 283 115 q 397 131 360 115 q 462 174 433 147 q 507 237 490 201 q 524 313 524 272 q 511 376 524 346 q 477 428 499 406 q 426 463 456 450 q 364 475 397 475 q 292 460 326 475 q 230 422 257 446 q 185 365 203 397 q 163 294 167 332 m 469 733 q 478 772 469 754 q 501 801 488 789 q 533 821 515 814 q 567 828 550 828 q 617 806 594 828 q 640 750 640 783 q 631 712 640 729 q 608 682 622 694 q 578 663 594 669 q 546 656 561 656 q 493 676 517 656 q 469 733 469 697 m 201 733 q 210 772 201 754 q 233 801 219 789 q 265 821 247 814 q 299 828 282 828 q 349 806 326 828 q 372 750 372 783 q 363 712 372 729 q 340 682 354 694 q 310 663 326 669 q 278 656 293 656 q 224 676 247 656 q 201 733 201 697 z "},"ü":{"ha":724,"x_min":40,"x_max":665,"o":"m 592 -14 l 479 -14 l 483 150 q 381 33 443 79 q 226 -14 318 -14 q 88 34 135 -14 q 47 161 40 82 l 100 590 l 232 590 l 189 224 q 209 151 185 181 q 293 118 233 121 q 369 132 333 118 q 431 171 404 146 q 476 231 458 196 q 499 306 493 265 l 533 590 l 665 590 l 592 -14 m 422 733 q 431 772 422 754 q 454 801 440 789 q 485 821 468 814 q 519 828 503 828 q 570 806 547 828 q 593 750 593 783 q 584 712 593 729 q 561 682 575 694 q 531 663 547 669 q 499 656 514 656 q 446 676 469 656 q 422 733 422 697 m 154 733 q 163 772 154 754 q 186 801 172 789 q 217 821 200 814 q 251 828 235 828 q 302 806 279 828 q 325 750 325 783 q 316 712 325 729 q 293 682 307 694 q 263 663 279 669 q 231 656 246 656 q 177 676 200 656 q 154 733 154 697 z "},"à":{"ha":757,"x_min":28,"x_max":700,"o":"m 28 258 q 57 390 28 328 q 135 501 86 453 q 248 577 185 549 q 379 606 311 606 q 453 595 421 606 q 507 571 485 585 q 542 542 529 557 q 557 519 554 528 l 572 590 l 700 590 l 628 0 l 493 0 l 499 39 q 500 52 500 46 q 501 61 500 58 q 481 41 496 54 q 440 15 465 28 q 381 -6 415 3 q 304 -15 347 -15 q 190 7 242 -15 q 103 67 139 29 q 47 153 67 104 q 28 258 28 203 m 164 276 q 208 161 164 207 q 326 115 251 115 q 408 131 369 115 q 473 174 446 147 q 516 238 500 201 q 532 317 532 275 q 488 430 532 385 q 369 475 444 475 q 289 460 326 475 q 224 418 251 444 q 180 355 196 392 q 164 276 164 318 m 318 864 q 369 769 344 817 q 421 676 394 722 l 322 676 q 248 769 286 722 q 174 864 210 817 l 318 864 z "},"è":{"ha":653,"x_min":28,"x_max":633,"o":"m 546 68 q 433 7 497 29 q 307 -15 369 -15 q 195 7 246 -15 q 107 67 144 29 q 49 156 69 106 q 28 264 28 207 q 57 395 28 333 q 135 503 86 457 q 248 577 185 550 q 378 604 311 604 q 546 544 478 604 q 633 385 614 485 q 532 348 589 369 q 413 303 475 326 q 288 255 350 279 q 172 211 225 231 q 228 142 189 168 q 319 115 267 115 q 394 128 356 115 q 458 164 432 142 l 546 68 m 472 415 q 427 460 458 446 q 364 475 396 475 q 290 460 325 475 q 227 419 254 444 q 183 362 200 394 q 163 296 165 329 q 240 326 199 310 q 324 358 282 342 q 404 390 365 375 q 472 415 443 404 m 294 864 q 346 769 321 817 q 397 676 371 722 l 299 676 q 224 769 263 722 q 150 864 186 817 l 294 864 m 163 296 l 163 294 q 163 292 163 292 q 163 296 164 293 z "},"ì":{"ha":297,"x_min":-4,"x_max":243,"o":"m 167 0 l 33 0 l 106 590 l 239 590 l 167 0 m 140 864 q 192 769 167 817 q 243 676 217 722 l 144 676 q 70 769 108 722 q -4 864 32 817 l 140 864 z "},"ò":{"ha":714,"x_min":22,"x_max":660,"o":"m 31 296 q 69 416 38 360 q 149 514 101 472 q 258 580 197 556 q 385 604 318 604 q 497 583 446 604 q 583 524 547 561 q 640 436 619 486 q 660 328 660 386 q 632 196 660 258 q 556 87 604 133 q 444 13 508 40 q 307 -15 379 -15 q 188 7 242 -15 q 96 70 133 29 q 40 169 58 111 q 31 296 22 226 m 163 294 q 169 224 158 257 q 200 167 179 192 q 252 129 221 143 q 321 115 283 115 q 397 131 360 115 q 462 174 433 147 q 507 237 490 201 q 524 313 524 272 q 511 376 524 346 q 477 428 499 406 q 426 463 456 450 q 364 475 397 475 q 292 460 326 475 q 230 422 257 446 q 185 365 203 397 q 163 294 167 332 m 319 864 q 371 769 346 817 q 422 676 396 722 l 324 676 q 249 769 288 722 q 175 864 211 817 l 319 864 z "},"ù":{"ha":724,"x_min":40,"x_max":665,"o":"m 592 -14 l 479 -14 l 483 150 q 381 33 443 79 q 226 -14 318 -14 q 88 34 135 -14 q 47 161 40 82 l 100 590 l 232 590 l 189 224 q 209 151 185 181 q 293 118 233 121 q 369 132 333 118 q 431 171 404 146 q 476 231 458 196 q 499 306 493 265 l 533 590 l 665 590 l 592 -14 m 332 864 q 383 769 358 817 q 435 676 408 722 l 336 676 q 262 769 300 722 q 188 864 224 817 l 332 864 z "},",":{"ha":344,"x_min":-61,"x_max":225,"o":"m 225 122 l 67 -169 l -61 -169 l 83 122 l 225 122 z "},".":{"ha":307,"x_min":32,"x_max":203,"o":"m 32 76 q 41 115 32 97 q 64 144 50 132 q 95 165 78 157 q 129 172 113 172 q 180 149 157 172 q 203 94 203 126 q 194 56 203 74 q 171 26 185 39 q 140 7 157 14 q 108 0 124 0 q 55 21 78 0 q 32 76 32 42 z "},"f":{"ha":471,"x_min":44,"x_max":558,"o":"m 44 461 l 61 592 l 161 592 l 176 717 q 297 991 199 903 q 558 1085 394 1079 l 543 958 q 378 889 432 951 q 310 711 325 826 l 294 592 l 478 592 l 461 461 l 279 461 l 222 0 l 89 0 l 144 461 l 44 461 z "},"å":{"ha":757,"x_min":28,"x_max":700,"o":"m 28 258 q 57 390 28 328 q 135 501 86 453 q 248 577 185 549 q 379 606 311 606 q 453 595 421 606 q 507 571 485 585 q 542 542 529 557 q 557 519 554 528 l 572 590 l 700 590 l 628 0 l 493 0 l 499 39 q 500 52 500 46 q 501 61 500 58 q 481 41 496 54 q 440 15 465 28 q 381 -6 415 3 q 304 -15 347 -15 q 190 7 242 -15 q 103 67 139 29 q 47 153 67 104 q 28 258 28 203 m 164 276 q 208 161 164 207 q 326 115 251 115 q 408 131 369 115 q 473 174 446 147 q 516 238 500 201 q 532 317 532 275 q 488 430 532 385 q 369 475 444 475 q 289 460 326 475 q 224 418 251 444 q 180 355 196 392 q 164 276 164 318 m 286 758 q 298 809 286 785 q 329 851 310 833 q 374 881 349 869 q 425 892 399 892 q 502 859 471 892 q 533 782 533 826 q 522 730 533 754 q 491 688 510 706 q 447 658 472 669 q 396 647 422 647 q 317 680 349 647 q 286 758 286 713 m 364 764 q 375 735 364 747 q 404 724 386 724 q 441 738 425 724 q 457 774 457 753 q 446 804 457 793 q 415 815 435 815 q 379 801 394 815 q 364 764 364 786 z "},"v":{"ha":631,"x_min":26,"x_max":653,"o":"m 263 -35 q 142 277 197 122 q 26 590 88 432 l 171 590 q 233 425 211 488 q 268 324 256 363 q 285 262 281 285 q 294 214 290 239 q 315 262 304 239 q 346 324 325 285 q 405 425 367 363 q 508 590 443 488 l 653 590 q 458 277 553 432 q 263 -35 363 122 z "},"j":{"ha":296,"x_min":-75,"x_max":288,"o":"m 6 -285 q -35 -235 -15 -258 q -75 -185 -56 -211 q -2 -106 -31 -153 q 35 6 26 -60 l 106 590 l 238 590 l 165 0 q 112 -167 154 -96 q 6 -285 69 -237 m 122 811 q 131 847 122 831 q 153 876 139 864 q 183 896 167 889 q 217 903 200 903 q 266 881 244 903 q 288 828 288 860 q 279 790 288 807 q 258 761 271 774 q 228 742 244 749 q 196 736 213 736 q 144 756 167 736 q 122 811 122 776 z "},"s":{"ha":486,"x_min":0,"x_max":436,"o":"m 436 538 q 412 509 425 525 q 386 479 399 493 q 365 455 374 465 q 356 444 356 444 q 349 449 356 444 q 331 460 343 454 q 301 470 318 465 q 267 475 285 475 q 221 465 244 475 q 197 424 197 454 q 213 388 197 403 q 253 361 229 374 q 306 335 278 349 q 359 303 335 322 q 399 256 383 283 q 415 189 415 229 q 399 109 415 146 q 351 45 382 72 q 279 3 321 18 q 186 -12 238 -12 q 78 7 129 -12 q 0 63 28 26 q 28 90 13 74 q 59 122 44 107 q 83 148 74 138 q 93 158 93 158 q 101 153 93 160 q 124 139 110 147 q 159 124 139 131 q 201 117 179 117 q 259 134 238 117 q 281 175 281 151 q 265 207 281 194 q 224 231 249 219 q 171 254 199 242 q 118 286 143 267 q 77 335 93 306 q 61 407 61 364 q 82 500 61 463 q 135 560 103 538 q 206 594 168 583 q 276 604 243 604 q 364 587 319 604 q 436 538 408 569 z "},"k":{"ha":632,"x_min":33,"x_max":603,"o":"m 532 604 q 567 565 550 585 q 603 526 583 546 q 490 431 543 478 q 376 336 436 385 q 479 168 429 253 q 581 0 529 83 l 428 0 q 350 124 389 63 q 275 249 311 186 l 188 179 l 167 0 l 33 0 l 167 1085 l 300 1085 l 207 333 q 370 469 292 404 q 532 604 449 533 z "},"y":{"ha":679,"x_min":29,"x_max":699,"o":"m 167 -283 l 35 -283 q 83 -203 60 -242 q 128 -126 106 -165 q 176 -44 151 -86 q 231 46 201 -3 q 181 178 206 108 q 130 318 156 247 q 78 458 104 389 q 29 590 53 528 l 172 590 q 238 418 213 488 q 279 301 264 349 q 301 224 294 254 q 313 169 308 194 q 338 224 324 194 q 379 301 353 254 q 447 418 406 349 q 554 590 489 488 l 699 590 l 167 -283 z "},"ø":{"ha":713,"x_min":-4,"x_max":671,"o":"m 31 296 q 69 416 38 360 q 149 514 101 472 q 258 580 197 556 q 385 604 318 604 q 538 561 472 604 l 607 631 l 671 575 l 600 504 q 644 423 628 468 q 660 328 660 378 q 632 196 660 258 q 556 87 604 133 q 444 13 508 40 q 307 -15 379 -15 q 212 -1 256 -15 q 132 38 168 13 q 85 -10 104 10 q 54 -42 65 -31 l -4 18 l 74 97 q 35 186 46 136 q 31 296 24 236 m 233 139 q 321 115 272 115 q 397 131 360 115 q 462 174 433 147 q 507 237 490 201 q 524 313 524 272 q 497 403 524 361 q 366 271 435 339 q 233 139 297 203 m 163 294 q 178 200 157 243 l 435 458 q 401 470 419 465 q 364 475 383 475 q 292 460 326 475 q 230 422 257 446 q 185 365 203 397 q 163 294 167 332 z "},"w":{"ha":914,"x_min":33,"x_max":935,"o":"m 411 504 q 397 547 404 522 q 382 590 389 572 l 496 590 q 578 328 556 415 q 610 229 601 240 q 630 280 617 254 q 665 345 643 306 q 719 443 686 385 q 801 590 753 501 l 935 590 q 753 269 846 432 q 579 -35 660 106 q 545 69 560 18 q 516 169 531 119 q 486 270 501 219 q 451 374 471 321 q 336 169 390 268 q 222 -35 282 71 q 128 277 174 122 q 33 590 82 432 l 167 590 q 210 444 193 500 q 235 350 226 389 q 248 281 244 311 q 253 214 251 251 q 267 243 258 226 q 292 291 275 260 q 337 373 308 322 q 411 504 365 424 z "},"x":{"ha":621,"x_min":-37,"x_max":611,"o":"m 218 314 q 134 452 178 383 q 51 590 90 521 l 214 590 q 240 542 228 564 q 264 501 251 521 q 289 461 276 482 q 315 415 301 440 q 353 461 335 440 q 389 501 371 482 q 425 542 407 521 q 464 589 443 564 l 611 589 q 553 516 581 549 q 498 451 525 483 q 442 385 471 419 q 381 308 414 350 q 424 234 400 274 q 474 154 449 194 q 523 74 499 114 q 567 0 547 35 l 396 0 q 334 97 365 53 q 272 192 303 140 q 192 97 231 139 q 111 0 153 54 l -37 0 q 90 157 25 79 q 218 314 156 235 z "},"z":{"ha":629,"x_min":-31,"x_max":617,"o":"m 539 0 l -31 0 l 358 476 l 176 476 q 97 505 128 476 q 71 578 67 533 l 79 646 l 200 646 l 199 628 q 205 596 194 601 q 240 590 215 590 l 617 590 l 242 131 l 556 131 l 539 0 z "},"o":{"ha":713,"x_min":22,"x_max":660,"o":"m 31 296 q 69 416 38 360 q 149 514 101 472 q 258 580 197 556 q 385 604 318 604 q 497 583 446 604 q 583 524 547 561 q 640 436 619 486 q 660 328 660 386 q 632 196 660 258 q 556 87 604 133 q 444 13 508 40 q 307 -15 379 -15 q 188 7 242 -15 q 96 70 133 29 q 40 169 58 111 q 31 296 22 226 m 163 294 q 169 224 158 257 q 200 167 179 192 q 252 129 221 143 q 321 115 283 115 q 397 131 360 115 q 462 174 433 147 q 507 237 490 201 q 524 313 524 272 q 511 376 524 346 q 477 428 499 406 q 426 463 456 450 q 364 475 397 475 q 292 460 326 475 q 230 422 257 446 q 185 365 203 397 q 163 294 167 332 z "},"æ":{"ha":985,"x_min":8,"x_max":964,"o":"m 878 68 q 765 7 829 29 q 638 -15 701 -15 q 524 7 575 -15 q 436 69 474 29 q 331 9 392 31 q 199 -12 269 -12 q 110 0 146 -12 q 51 34 74 13 q 18 83 28 56 q 8 140 8 111 q 29 227 8 190 q 82 288 50 264 q 152 324 114 313 q 226 335 190 335 l 368 335 q 411 435 381 386 q 370 465 397 457 q 303 474 343 474 q 203 462 249 474 q 125 432 158 450 l 83 535 q 201 587 136 568 q 335 606 265 606 q 441 588 396 606 q 510 538 486 569 q 605 587 554 569 q 710 604 656 604 q 877 544 810 604 q 964 385 944 485 q 863 348 921 369 q 744 303 806 326 q 619 255 682 279 q 503 211 557 231 q 560 142 521 168 q 651 115 599 115 q 726 128 688 115 q 790 164 764 142 l 878 68 m 803 415 q 759 460 790 446 q 696 475 728 475 q 622 460 657 475 q 559 419 586 444 q 515 362 532 394 q 494 296 497 329 q 572 326 531 310 q 655 358 614 342 q 735 390 696 375 q 803 415 774 404 m 132 167 q 140 140 132 150 q 161 125 149 131 q 190 117 174 119 q 222 115 206 115 q 315 127 272 115 q 376 167 357 139 q 361 238 363 203 l 286 238 q 164 217 196 238 q 132 167 132 197 z "},"A":{"ha":907,"x_min":-49,"x_max":858,"o":"m 690 0 l 611 267 l 263 267 q 214 176 238 219 q 172 96 190 132 q 139 35 153 60 q 119 0 125 10 l -49 0 q -15 62 -42 13 q 53 184 13 111 q 142 347 93 257 q 243 529 192 436 q 344 712 294 622 q 433 874 393 801 q 501 997 474 947 q 535 1058 528 1046 q 554 997 539 1046 q 592 874 569 947 q 641 712 614 801 q 697 529 668 622 q 753 347 725 436 q 803 184 781 257 q 840 62 825 111 q 858 0 854 13 l 690 0 m 340 410 l 569 410 q 524 565 543 497 q 499 651 504 632 q 496 671 499 653 q 490 703 493 689 q 478 671 486 689 q 469 651 471 653 l 340 410 z "},"ï":{"ha":296,"x_min":-24,"x_max":415,"o":"m 167 0 l 33 0 l 106 590 l 239 590 l 167 0 m 244 733 q 253 772 244 754 q 276 801 263 789 q 308 821 290 814 q 342 828 325 828 q 392 806 369 828 q 415 750 415 783 q 406 712 415 729 q 383 682 397 694 q 353 663 369 669 q 321 656 336 656 q 268 676 292 656 q 244 733 244 697 m -24 733 q -15 772 -24 754 q 8 801 -6 789 q 40 821 22 814 q 74 828 57 828 q 124 806 101 828 q 147 750 147 783 q 138 712 147 729 q 115 682 129 694 q 85 663 101 669 q 53 656 68 656 q -1 676 22 656 q -24 733 -24 697 z "},"ý":{"ha":679,"x_min":29,"x_max":699,"o":"m 167 -283 l 35 -283 q 83 -203 60 -242 q 128 -126 106 -165 q 176 -44 151 -86 q 231 46 201 -3 q 181 178 206 108 q 130 318 156 247 q 78 458 104 389 q 29 590 53 528 l 172 590 q 238 418 213 488 q 279 301 264 349 q 301 224 294 254 q 313 169 308 194 q 338 224 324 194 q 379 301 353 254 q 447 418 406 349 q 554 590 489 488 l 699 590 l 167 -283 m 317 676 q 392 769 354 722 q 468 864 429 817 l 611 864 l 417 676 l 317 676 z "},"ÿ":{"ha":679,"x_min":29,"x_max":699,"o":"m 167 -283 l 35 -283 q 83 -203 60 -242 q 128 -126 106 -165 q 176 -44 151 -86 q 231 46 201 -3 q 181 178 206 108 q 130 318 156 247 q 78 458 104 389 q 29 590 53 528 l 172 590 q 238 418 213 488 q 279 301 264 349 q 301 224 294 254 q 313 169 308 194 q 338 224 324 194 q 379 301 353 254 q 447 418 406 349 q 554 590 489 488 l 699 590 l 167 -283 m 411 733 q 420 772 411 754 q 443 801 429 789 q 474 821 457 814 q 508 828 492 828 q 559 806 536 828 q 582 750 582 783 q 573 712 582 729 q 550 682 564 694 q 519 663 536 669 q 488 656 503 656 q 435 676 458 656 q 411 733 411 697 m 143 733 q 152 772 143 754 q 175 801 161 789 q 206 821 189 814 q 240 828 224 828 q 291 806 268 828 q 314 750 314 783 q 305 712 314 729 q 282 682 296 694 q 251 663 268 669 q 219 656 235 656 q 166 676 189 656 q 143 733 143 697 z "},"B":{"ha":828,"x_min":67,"x_max":767,"o":"m 342 858 l 308 583 l 435 583 q 503 597 474 583 q 552 631 532 610 q 583 682 572 653 q 593 743 593 711 q 556 830 593 801 q 454 858 518 858 l 342 858 m 290 439 l 256 154 l 389 154 q 467 164 431 154 q 530 194 503 174 q 573 244 557 214 q 589 314 589 274 q 574 373 589 349 q 533 412 558 397 q 475 433 508 426 q 407 439 442 439 l 290 439 m 67 0 l 190 1013 l 468 1013 q 686 960 606 1013 q 767 786 767 907 q 758 702 767 744 q 728 622 749 660 q 673 556 707 585 q 589 514 639 528 q 650 492 619 507 q 704 453 681 478 q 742 392 728 428 q 757 307 757 356 q 725 167 757 225 q 640 72 693 110 q 520 17 588 35 q 383 0 453 0 l 67 0 z "},"D":{"ha":989,"x_min":67,"x_max":953,"o":"m 192 1013 l 453 1013 q 686 972 590 1013 q 841 867 782 932 q 926 720 900 803 q 953 553 953 638 q 905 323 953 425 q 777 149 857 221 q 594 38 697 76 q 379 0 490 0 l 67 0 l 192 1013 m 372 161 q 533 187 458 161 q 663 262 607 213 q 749 383 718 311 q 781 549 781 456 q 753 687 781 629 q 681 780 725 744 q 583 832 638 815 q 478 849 529 849 l 342 849 q 301 505 322 676 q 257 161 279 333 l 372 161 z "},"E":{"ha":858,"x_min":67,"x_max":863,"o":"m 67 0 l 190 1013 l 863 1013 l 844 858 l 342 858 l 308 586 l 756 586 l 736 428 l 289 428 l 256 158 l 778 158 l 758 0 l 67 0 z "},"H":{"ha":1056,"x_min":67,"x_max":1017,"o":"m 67 0 l 192 1013 l 361 1013 l 310 590 l 793 590 l 844 1013 l 1017 1013 l 892 0 l 721 0 l 774 428 l 290 428 l 238 0 l 67 0 z "},"I":{"ha":401,"x_min":67,"x_max":361,"o":"m 192 1013 l 361 1013 l 238 0 l 67 0 l 192 1013 z "},"J":{"ha":476,"x_min":-100,"x_max":440,"o":"m -100 -210 l -81 -49 q 85 15 17 -43 q 169 201 153 74 l 268 1013 l 440 1013 l 340 197 q 290 27 328 101 q 193 -99 251 -47 q 60 -179 135 -151 q -100 -210 -15 -207 z "},"K":{"ha":907,"x_min":67,"x_max":981,"o":"m 660 0 q 584 115 619 60 q 515 226 549 171 q 444 337 481 281 q 368 454 408 393 q 303 397 338 424 l 254 0 l 67 0 l 190 1013 l 379 1013 l 335 649 q 330 625 333 638 q 324 600 326 613 q 340 617 331 610 q 357 636 349 625 q 561 824 461 726 q 765 1013 661 921 l 981 1013 q 747 790 864 903 q 514 569 631 678 q 608 424 564 494 q 694 284 651 353 q 779 145 736 215 q 871 0 822 75 l 660 0 z "},"M":{"ha":1254,"x_min":67,"x_max":1219,"o":"m 196 1057 q 222 1013 201 1047 q 271 930 242 979 q 336 821 300 881 q 410 699 372 761 q 483 578 447 638 q 549 471 519 519 q 597 390 578 422 q 622 349 617 357 q 651 384 625 353 q 717 463 676 415 q 808 570 757 510 q 911 693 858 631 q 1016 817 964 756 q 1110 928 1068 878 q 1182 1013 1153 978 q 1219 1057 1211 1047 l 1090 0 l 908 0 l 972 517 q 977 540 974 528 q 982 556 981 553 l 588 74 q 560 119 582 82 q 506 208 538 157 q 440 319 475 260 q 375 428 406 378 q 324 515 344 479 q 300 556 303 550 q 301 540 299 553 q 300 517 303 528 l 238 0 l 67 0 l 196 1057 z "},"N":{"ha":1125,"x_min":67,"x_max":1085,"o":"m 1085 1013 l 956 -47 q 918 -1 947 -35 q 847 78 889 32 q 752 181 804 125 q 646 295 700 238 q 540 408 592 353 q 446 510 488 464 q 375 590 404 557 q 339 635 346 622 q 329 649 338 638 q 315 671 321 661 q 314 649 314 660 q 314 626 314 638 l 236 0 l 67 0 l 197 1058 q 235 1013 206 1046 q 307 935 264 981 q 402 835 350 889 q 508 724 454 781 q 615 613 563 668 q 709 513 667 558 q 780 436 751 468 q 817 392 808 404 l 839 353 q 840 376 840 364 q 840 400 840 389 l 915 1013 l 1085 1013 z "},"P":{"ha":810,"x_min":67,"x_max":810,"o":"m 299 508 l 435 508 q 531 529 492 508 q 593 580 569 550 q 627 644 617 610 q 638 703 638 678 q 630 751 638 725 q 604 801 622 778 q 555 838 586 824 q 478 853 524 853 l 342 853 l 299 508 m 67 0 l 190 1013 l 476 1013 q 720 937 631 1013 q 810 726 810 861 q 789 595 810 663 q 722 473 768 528 q 601 383 675 418 q 421 349 526 349 l 279 349 l 236 0 l 67 0 z "},"R":{"ha":881,"x_min":67,"x_max":821,"o":"m 67 0 l 190 1013 l 476 1013 q 720 937 631 1013 q 810 726 810 861 q 799 633 810 681 q 766 540 789 585 q 707 458 743 496 q 621 393 671 419 q 669 298 646 344 q 715 205 692 251 q 765 108 739 158 q 821 0 790 57 l 617 0 q 522 185 567 99 q 435 349 476 271 l 421 349 l 279 349 l 236 0 l 67 0 m 299 508 l 435 508 q 532 528 493 508 q 594 578 571 549 q 628 642 618 608 q 638 703 638 675 q 630 753 638 726 q 604 801 622 779 q 555 838 586 824 q 478 853 524 853 l 342 853 l 299 508 z "},"U":{"ha":997,"x_min":90,"x_max":968,"o":"m 447 -11 q 297 16 365 -11 q 181 92 228 43 q 113 209 135 140 q 101 361 90 278 l 181 1013 l 351 1013 l 271 365 q 278 282 265 321 q 317 214 290 243 q 381 167 343 185 q 467 150 419 150 q 557 167 514 150 q 634 214 600 185 q 690 282 668 243 q 718 365 713 321 l 797 1013 l 968 1013 l 888 361 q 838 209 878 278 q 740 92 799 140 q 605 16 681 43 q 447 -11 529 -11 z "},"Y":{"ha":931,"x_min":81,"x_max":1000,"o":"m 543 328 l 503 0 l 332 0 l 371 328 q 344 390 365 338 q 292 515 322 442 q 226 670 261 588 q 160 826 190 753 q 107 951 129 899 q 81 1013 85 1003 l 274 1013 q 290 973 278 1003 q 319 901 303 943 q 356 808 336 858 q 397 706 376 757 q 435 609 417 656 q 467 528 453 563 l 476 481 q 489 505 483 492 q 500 528 494 518 q 552 609 522 563 q 613 706 582 656 q 676 808 644 757 q 735 901 708 858 q 781 973 763 943 q 807 1013 800 1003 l 1000 1013 l 543 328 z "},"~":{"ha":647,"x_min":124,"x_max":599,"o":"m 344 674 q 310 701 325 693 q 276 708 296 708 q 255 706 267 708 q 232 697 243 704 q 212 678 221 690 q 199 647 203 667 l 124 650 q 144 703 129 679 q 181 745 160 728 q 226 772 203 763 q 272 782 250 782 q 332 771 307 782 q 378 738 357 760 q 412 710 397 717 q 446 703 426 703 q 490 714 465 703 q 525 764 515 725 l 599 761 q 578 708 593 732 q 541 666 563 683 q 496 639 519 649 q 450 629 472 629 q 391 641 417 629 q 344 674 365 653 z "},"ñ":{"ha":724,"x_min":33,"x_max":681,"o":"m 106 590 l 224 590 q 220 546 221 565 q 219 509 219 526 q 217 475 218 492 q 215 439 217 458 q 322 560 257 514 q 474 606 386 606 q 611 556 564 606 q 651 428 658 507 l 599 0 l 467 0 l 511 365 q 490 440 514 408 q 408 474 467 471 q 332 459 368 474 q 269 419 296 444 q 224 360 242 394 q 201 285 206 325 l 167 0 l 33 0 l 106 590 m 426 713 q 392 740 407 732 q 358 747 378 747 q 337 745 349 747 q 314 736 325 743 q 294 717 303 729 q 281 686 285 706 l 206 689 q 226 742 211 718 q 263 784 242 767 q 308 811 285 801 q 354 821 332 821 q 414 810 389 821 q 460 776 439 799 q 494 749 479 756 q 528 742 508 742 q 572 753 547 742 q 607 803 597 764 l 681 800 q 660 747 675 771 q 623 705 644 722 q 578 678 601 688 q 532 668 554 668 q 473 680 499 668 q 426 713 447 692 z "},"F":{"ha":776,"x_min":67,"x_max":806,"o":"m 67 0 l 190 1013 l 806 1013 l 786 856 l 342 856 l 307 572 l 694 572 l 674 414 l 288 414 l 236 0 l 67 0 z "},"L":{"ha":794,"x_min":67,"x_max":747,"o":"m 67 0 l 190 1013 l 361 1013 l 256 161 l 747 161 l 728 0 l 67 0 z "},"C":{"ha":886,"x_min":60,"x_max":917,"o":"m 839 75 q 790 49 822 64 q 716 20 758 33 q 621 -2 674 7 q 510 -11 568 -11 q 317 25 401 -11 q 176 122 233 61 q 89 266 118 183 q 60 440 60 349 q 109 674 60 567 q 240 858 158 781 q 429 980 322 936 q 653 1024 536 1024 q 737 1017 694 1024 q 815 1001 779 1011 q 878 979 851 992 q 917 953 906 967 q 892 921 901 933 q 874 895 883 908 q 854 865 865 882 q 824 819 843 849 q 785 839 808 831 q 738 852 763 847 q 687 860 713 857 q 640 863 661 863 q 483 831 557 863 q 353 745 408 799 q 266 622 299 692 q 233 479 233 553 q 255 360 233 418 q 317 259 276 303 q 416 189 358 215 q 544 163 474 163 q 631 172 589 163 q 707 192 674 181 q 762 214 740 203 q 785 229 783 225 l 839 75 z "},"Q":{"ha":1142,"x_min":58,"x_max":1101,"o":"m 58 453 q 106 671 58 567 q 235 853 154 775 q 422 977 317 931 q 642 1024 526 1024 q 824 986 740 1024 q 970 885 908 949 q 1067 735 1032 821 q 1101 554 1101 650 q 1065 374 1101 476 q 939 149 1029 272 l 1088 161 l 1068 0 l 625 0 q 570 -8 597 -6 q 515 -11 543 -11 q 333 25 417 -11 q 189 124 250 61 q 93 271 128 186 q 58 453 58 356 m 231 468 q 253 343 231 401 q 317 242 276 285 q 415 175 358 200 q 539 150 472 150 q 686 181 615 150 q 811 265 757 213 q 898 390 865 318 q 931 540 931 461 q 908 665 931 607 q 844 767 885 724 q 747 835 803 810 q 624 860 690 860 q 475 828 546 860 q 350 744 404 797 q 263 619 296 690 q 231 468 231 547 z "},"T":{"ha":782,"x_min":114,"x_max":800,"o":"m 800 1013 l 781 850 l 529 850 l 425 0 l 254 0 l 358 850 l 114 850 l 135 1013 l 800 1013 z "},"‹":{"ha":394,"x_min":47,"x_max":322,"o":"m 256 65 l 47 338 q 72 362 51 342 q 122 411 93 382 q 185 474 151 440 q 247 535 218 507 q 297 584 276 564 q 322 608 318 604 l 303 446 q 283 426 297 442 q 253 392 268 410 q 224 359 238 375 q 204 338 210 343 q 218 316 208 332 q 240 282 228 300 q 261 248 251 264 q 275 226 271 232 l 256 65 z "},">":{"ha":736,"x_min":32,"x_max":693,"o":"m 32 -19 l 56 176 l 354 336 l 96 496 l 119 690 q 406 514 264 603 q 693 336 547 425 l 32 -19 z "},"<":{"ha":735,"x_min":28,"x_max":688,"o":"m 625 176 l 600 -19 q 314 158 456 69 q 28 336 172 246 q 357 514 193 425 q 688 690 521 603 l 663 496 l 367 336 l 625 176 z "},"=":{"ha":875,"x_min":50,"x_max":814,"o":"m 781 283 l 764 144 l 50 144 l 67 283 l 781 283 m 814 557 l 797 418 l 83 418 l 100 557 l 814 557 z "},"@":{"ha":1325,"x_min":38,"x_max":1257,"o":"m 313 258 q 342 390 313 328 q 419 501 371 453 q 531 577 468 549 q 663 606 594 606 q 736 595 704 606 q 790 571 768 585 q 826 542 813 557 q 842 519 839 528 q 848 553 844 535 q 856 590 851 571 l 983 590 l 926 125 l 957 125 q 1003 138 975 125 q 1059 183 1032 151 q 1105 266 1086 214 q 1124 396 1124 318 q 1101 531 1124 465 q 1029 649 1078 597 q 906 731 981 700 q 728 763 831 763 q 476 710 582 763 q 301 580 369 658 q 199 410 232 501 q 167 238 167 318 q 198 73 167 150 q 285 -61 229 -4 q 419 -151 342 -118 q 589 -185 497 -185 q 747 -160 669 -185 q 892 -92 824 -136 q 925 -137 910 -115 q 957 -183 940 -160 q 868 -239 917 -215 q 768 -278 819 -262 q 665 -301 717 -293 q 565 -308 613 -308 q 356 -267 453 -308 q 189 -152 260 -225 q 78 19 118 -79 q 38 229 38 117 q 59 385 38 307 q 122 538 81 464 q 223 675 163 611 q 363 786 283 739 q 538 860 442 833 q 747 888 635 888 q 972 847 876 888 q 1131 740 1068 807 q 1226 586 1194 672 q 1257 408 1257 500 q 1232 242 1257 317 q 1165 113 1207 167 q 1065 29 1122 58 q 942 0 1007 0 l 776 0 l 782 39 q 784 52 783 46 q 785 61 785 58 q 763 41 778 54 q 722 15 747 28 q 664 -6 697 3 q 588 -15 631 -15 q 473 7 524 -15 q 387 67 422 29 q 332 153 351 104 q 313 258 313 203 m 447 276 q 491 161 447 207 q 610 115 535 115 q 691 131 653 115 q 756 174 729 147 q 799 238 783 201 q 815 317 815 275 q 772 430 815 385 q 653 475 728 475 q 572 460 610 475 q 507 418 535 444 q 463 355 479 392 q 447 276 447 318 z "},"?":{"ha":663,"x_min":97,"x_max":658,"o":"m 217 764 q 157 787 188 775 q 97 810 126 799 q 131 876 110 838 q 189 950 153 915 q 280 1009 225 985 q 414 1033 335 1033 q 512 1014 467 1033 q 590 961 557 994 q 640 883 622 928 q 658 786 658 838 q 613 631 658 697 q 488 511 567 565 q 444 483 468 499 q 397 448 419 468 q 358 402 375 428 q 336 342 340 376 l 322 231 l 179 231 l 196 368 q 219 443 201 414 q 261 494 236 472 q 318 534 286 515 q 385 576 350 553 q 511 775 511 665 q 481 860 511 826 q 396 894 450 894 q 330 886 357 894 q 282 862 303 878 q 246 822 261 846 q 217 764 231 797 m 219 -8 q 167 12 190 -8 q 143 68 143 32 q 174 135 143 108 q 240 163 206 163 q 290 140 268 163 q 313 85 313 117 q 304 47 313 64 q 282 17 296 29 q 252 -1 268 6 q 219 -8 236 -8 z "},"!":{"ha":379,"x_min":61,"x_max":342,"o":"m 200 1058 l 342 1058 l 242 233 l 99 233 l 200 1058 m 140 -14 q 84 11 107 -14 q 65 74 61 36 q 100 135 71 111 q 161 158 129 158 q 216 135 193 158 q 235 74 239 111 q 201 11 229 36 q 140 -14 172 -14 z "},":":{"ha":319,"x_min":38,"x_max":254,"o":"m 85 463 q 94 501 85 483 q 117 531 103 518 q 148 551 131 543 q 182 558 165 558 q 232 535 210 558 q 254 481 254 513 q 245 442 254 460 q 223 413 236 425 q 193 393 210 400 q 161 386 176 386 q 108 407 131 386 q 85 463 85 428 m 38 76 q 46 115 38 97 q 68 144 54 132 q 99 165 82 157 q 135 172 117 172 q 185 149 163 172 q 207 94 207 126 q 198 56 207 74 q 176 26 189 39 q 146 7 163 14 q 114 0 129 0 q 60 21 83 0 q 38 76 38 42 z "},";":{"ha":358,"x_min":-67,"x_max":283,"o":"m 218 122 l 61 -169 l -67 -169 q 5 -24 -31 -96 q 78 122 40 47 l 218 122 m 115 429 q 124 467 115 450 q 146 497 132 485 q 176 517 160 510 q 210 525 193 525 q 261 502 239 525 q 283 447 283 479 q 253 378 283 404 q 189 353 222 353 q 138 374 160 353 q 115 429 115 394 z "},"\"":{"ha":496,"x_min":118,"x_max":489,"o":"m 306 665 l 349 1015 l 489 1015 q 465 841 478 928 q 440 665 451 754 l 306 665 m 118 665 l 160 1015 l 301 1015 q 277 841 290 928 q 253 665 264 754 l 118 665 z "},"#":{"ha":811,"x_min":38,"x_max":788,"o":"m 357 0 l 417 251 l 303 251 q 272 126 288 188 q 242 0 256 64 l 97 0 l 157 251 l 38 251 q 55 322 46 288 q 71 390 64 356 l 192 390 q 206 451 200 421 q 221 511 213 481 l 100 511 q 117 580 110 546 q 132 649 124 614 l 253 649 q 285 778 269 715 q 318 907 300 842 l 461 907 q 428 778 444 842 q 397 649 413 715 l 513 649 q 544 778 528 715 q 576 907 561 842 l 722 907 q 688 778 704 842 q 657 649 672 715 l 788 649 q 773 580 781 614 q 757 511 765 546 l 625 511 q 610 451 617 481 q 596 390 603 421 l 728 390 l 693 251 l 561 251 q 531 126 546 188 q 500 0 515 64 l 357 0 m 364 511 q 350 451 357 481 q 336 390 343 421 l 451 390 l 479 511 l 364 511 z "},"%":{"ha":1021,"x_min":72,"x_max":942,"o":"m 174 0 l 682 706 l 838 706 l 331 0 l 174 0 m 731 -31 q 665 -17 694 -31 q 612 18 635 -4 q 576 71 589 40 q 564 138 564 101 q 581 216 564 179 q 628 281 599 253 q 695 324 657 308 q 775 340 733 340 q 840 327 810 340 q 894 292 871 314 q 929 239 917 269 q 942 174 942 208 q 924 94 942 132 q 876 29 906 57 q 809 -15 847 1 q 731 -31 771 -31 m 239 364 q 173 376 203 364 q 120 412 143 389 q 85 465 97 435 q 72 531 72 494 q 90 609 72 572 q 136 674 107 646 q 203 717 165 701 q 283 733 242 733 q 349 721 318 733 q 402 686 379 708 q 438 633 425 664 q 450 568 450 603 q 432 489 450 526 q 385 424 414 451 q 317 380 356 396 q 239 364 279 364 m 710 149 q 747 110 710 110 q 784 124 771 110 q 797 165 797 139 q 758 201 797 201 q 723 188 736 201 q 710 149 710 174 m 218 542 q 227 513 218 524 q 256 501 236 501 q 291 517 278 501 q 304 557 304 532 q 295 584 304 574 q 267 594 286 594 q 231 581 244 594 q 218 542 218 567 z "},"’":{"ha":249,"x_min":104,"x_max":261,"o":"m 169 797 q 138 814 154 806 q 104 833 121 822 q 156 903 138 861 q 171 993 174 944 l 257 1003 q 238 891 261 944 q 169 797 214 838 z "},"(":{"ha":419,"x_min":43,"x_max":486,"o":"m 43 306 q 72 542 43 431 q 146 750 100 654 q 249 922 192 846 q 363 1051 306 999 q 425 1035 393 1043 q 486 1019 457 1028 q 380 894 433 967 q 284 731 326 821 q 215 535 242 642 q 188 311 188 429 q 200 154 188 229 q 233 14 213 79 q 281 -106 254 -51 q 338 -199 308 -160 q 272 -216 306 -208 q 204 -232 238 -224 q 143 -135 172 -192 q 92 -10 114 -79 q 56 140 69 60 q 43 306 43 219 z "},")":{"ha":424,"x_min":-61,"x_max":383,"o":"m 383 510 q 355 273 383 385 q 281 66 326 161 q 178 -106 236 -29 q 63 -237 121 -183 l -61 -208 q 45 -83 -8 -156 q 141 80 99 -10 q 210 275 183 169 q 238 500 238 381 q 226 658 238 582 q 193 799 214 733 q 145 917 172 864 q 88 1011 118 971 q 154 1028 121 1019 q 221 1047 188 1038 q 284 951 254 1007 q 335 825 314 894 q 370 676 357 756 q 383 510 383 596 z "},"*":{"ha":521,"x_min":104,"x_max":513,"o":"m 400 799 l 494 740 q 465 698 479 719 q 435 656 450 676 q 388 685 411 671 q 342 715 365 700 l 328 603 l 235 603 l 247 715 q 196 688 222 701 q 143 660 169 675 l 104 744 l 211 800 l 119 860 l 174 939 l 268 881 l 283 1000 l 382 1000 l 365 881 l 475 938 q 513 858 492 897 q 456 828 483 843 q 400 799 429 814 z "},"+":{"ha":614,"x_min":36,"x_max":561,"o":"m 194 72 l 218 256 l 36 256 l 53 394 l 235 394 l 257 579 l 403 579 l 379 394 l 561 394 l 544 256 l 363 256 l 340 72 l 194 72 z "},"|":{"ha":378,"x_min":28,"x_max":333,"o":"m 28 -328 l 190 988 l 333 988 l 172 -328 l 28 -328 z "},"{":{"ha":468,"x_min":31,"x_max":504,"o":"m 31 350 l 47 485 q 106 506 82 486 q 145 553 129 525 q 169 614 161 581 q 182 676 178 647 l 208 886 q 235 987 217 953 q 279 1035 253 1021 q 338 1051 306 1050 q 407 1053 369 1053 l 504 1053 l 488 914 l 431 914 q 394 909 408 914 q 369 890 379 904 q 351 847 358 875 q 339 772 344 818 l 318 597 q 300 531 314 560 q 269 481 286 503 q 235 444 253 458 q 206 419 218 429 q 231 397 217 411 q 256 360 244 382 q 272 309 267 338 q 274 244 278 281 l 253 71 q 247 -3 247 25 q 253 -47 247 -32 q 274 -67 260 -62 q 310 -72 288 -72 l 367 -72 l 350 -211 l 251 -211 q 185 -210 217 -211 q 130 -196 153 -210 q 96 -150 107 -182 q 92 -57 85 -118 l 119 158 q 123 221 124 188 q 113 282 122 254 q 83 329 103 310 q 31 350 64 349 z "},"}":{"ha":469,"x_min":-31,"x_max":444,"o":"m 444 485 l 428 350 q 372 332 396 349 q 332 290 349 315 q 306 234 315 265 q 293 172 297 203 l 267 -44 q 240 -144 258 -110 q 197 -194 222 -179 q 138 -210 171 -208 q 68 -211 106 -211 l -31 -211 l -12 -72 l 44 -72 q 81 -67 67 -72 q 106 -47 96 -62 q 122 -3 115 -32 q 135 71 129 25 l 154 232 q 173 305 160 274 q 203 359 186 336 q 238 397 219 382 q 269 419 256 411 q 244 444 258 429 q 218 481 229 458 q 201 531 207 503 q 199 597 194 560 l 221 772 q 226 847 226 818 q 220 890 226 875 q 200 909 214 904 q 165 914 186 914 l 108 914 l 125 1053 l 224 1053 q 291 1051 258 1053 q 346 1035 324 1050 q 378 987 368 1021 q 381 886 389 953 l 353 663 q 352 602 350 633 q 365 545 354 571 q 394 503 375 519 q 444 485 413 486 z "},"-":{"ha":413,"x_min":56,"x_max":333,"o":"m 56 238 l 74 378 l 333 378 l 315 238 l 56 238 z "},"/":{"ha":621,"x_min":-10,"x_max":658,"o":"m -10 -26 l 514 1039 l 658 1039 l 135 -26 l -10 -26 z "},"\\":{"ha":633,"x_min":119,"x_max":543,"o":"m 281 1039 l 543 -26 l 381 -26 l 119 1039 l 281 1039 z "},"G":{"ha":954,"x_min":58,"x_max":946,"o":"m 894 492 l 842 61 q 694 8 779 26 q 524 -11 610 -11 q 327 22 414 -11 q 181 113 240 54 q 90 251 121 171 q 58 426 58 332 q 109 667 58 557 q 244 856 160 776 q 438 979 329 935 q 661 1024 546 1024 q 737 1019 697 1024 q 814 1004 776 1014 q 885 981 851 994 q 946 950 919 968 l 846 811 q 803 833 828 824 q 749 849 778 842 q 692 859 721 856 q 639 863 664 863 q 490 831 564 863 q 360 746 417 800 q 267 618 303 692 q 232 461 232 544 q 254 342 232 399 q 317 242 276 285 q 417 175 358 200 q 547 150 475 150 q 617 155 575 150 q 697 172 658 160 l 719 344 l 531 344 l 549 492 l 894 492 z "},"V":{"ha":911,"x_min":78,"x_max":985,"o":"m 246 1013 q 265 947 250 997 q 300 830 281 897 q 342 687 319 763 q 383 544 364 611 q 417 426 403 476 q 438 361 432 376 q 440 342 438 360 q 446 308 443 324 q 458 342 450 324 q 467 361 465 360 q 502 426 475 376 q 565 544 529 476 q 641 687 600 611 q 718 830 682 763 q 781 947 754 897 q 817 1013 808 997 l 985 1013 q 951 950 978 1000 q 883 827 924 900 q 794 665 843 754 q 693 483 744 575 q 592 300 642 390 q 503 137 543 210 q 435 15 463 64 q 401 -47 408 -35 q 382 15 397 -35 q 344 137 367 64 q 295 300 322 210 q 240 483 268 390 q 183 665 211 575 q 133 827 156 754 q 97 950 111 900 q 78 1013 82 1000 l 246 1013 z "},"S":{"ha":793,"x_min":-11,"x_max":782,"o":"m 782 956 l 704 817 q 594 850 649 838 q 489 863 539 863 q 345 826 400 863 q 290 735 290 790 q 324 669 290 694 q 406 623 357 644 q 513 579 456 601 q 620 524 571 557 q 703 442 669 492 q 736 317 736 392 q 709 185 736 244 q 628 81 682 125 q 492 13 574 38 q 303 -11 411 -11 q 193 -3 242 -11 q 106 18 144 6 q 38 45 67 31 q -11 74 10 60 l 82 222 q 139 193 108 206 q 201 172 169 181 q 262 160 232 164 q 317 156 292 156 q 385 162 343 156 q 468 185 428 168 q 538 230 508 201 q 568 303 568 258 q 535 375 568 346 q 452 427 501 404 q 344 473 403 450 q 237 526 286 496 q 154 601 188 557 q 121 710 121 644 q 145 819 121 764 q 217 919 169 875 q 334 990 264 963 q 497 1018 404 1018 q 599 1009 550 1018 q 688 989 649 1000 q 752 967 726 978 q 782 956 778 957 z "},"Z":{"ha":889,"x_min":-47,"x_max":924,"o":"m 338 1013 l 924 1013 l 271 164 l 829 164 l 808 0 l -47 0 q -5 54 -37 13 q 74 156 28 96 q 176 291 119 217 q 290 442 232 365 q 403 592 347 518 q 506 725 460 665 q 583 826 551 785 q 626 879 615 868 l 250 879 q 206 885 228 879 q 169 904 185 892 q 144 934 153 917 q 138 972 135 951 l 149 1063 l 300 1063 l 299 1044 q 304 1015 294 1017 q 338 1013 314 1013 z "},"W":{"ha":1325,"x_min":83,"x_max":1390,"o":"m 1390 1007 q 1253 734 1325 875 q 1111 455 1182 593 q 975 189 1040 317 q 858 -44 910 61 l 700 519 l 692 553 q 690 542 690 547 q 686 532 689 536 q 682 521 683 526 q 558 307 618 411 q 506 215 533 263 q 451 120 478 167 q 401 31 425 74 q 357 -47 376 -12 q 219 480 289 218 q 83 1007 150 742 l 276 1007 q 356 675 317 831 q 413 399 394 519 q 414 374 414 388 q 417 349 414 360 q 426 373 418 357 q 438 397 435 389 q 451 423 440 404 q 475 467 461 442 q 506 522 489 492 q 542 582 524 551 q 633 738 583 653 q 610 849 621 796 q 592 938 600 893 q 579 1007 583 983 l 744 1007 q 818 725 785 853 q 846 617 832 671 q 871 519 860 564 q 890 442 882 474 q 901 399 899 410 q 905 374 904 386 q 907 350 906 363 q 915 375 911 363 q 922 399 918 388 q 977 533 944 461 q 1049 682 1010 604 q 1130 842 1088 760 q 1214 1007 1172 924 l 1390 1007 z "},"X":{"ha":896,"x_min":-43,"x_max":953,"o":"m 351 518 q 328 563 347 525 q 281 653 308 600 q 223 765 254 706 q 165 877 192 825 q 118 967 138 929 q 94 1013 99 1004 l 304 1013 q 320 981 308 1006 q 349 922 332 956 q 384 849 365 888 q 419 777 403 811 q 448 718 436 743 q 464 686 460 693 q 471 667 464 685 q 481 636 478 649 q 499 667 488 649 q 510 686 510 685 q 533 718 515 693 q 576 777 551 743 q 626 849 600 811 q 677 922 653 888 q 719 981 701 956 q 742 1013 736 1006 l 953 1013 q 917 966 946 1004 q 849 874 889 928 q 763 760 808 821 q 678 647 718 700 q 609 555 638 593 q 575 508 581 517 l 840 0 l 628 0 l 469 324 q 464 333 468 325 q 456 351 460 342 q 447 371 451 361 q 442 385 443 381 q 425 356 435 371 q 415 339 415 340 q 391 305 410 331 q 347 244 372 279 q 293 169 321 210 q 240 94 265 129 q 195 33 214 60 q 171 0 176 7 l -43 0 l 351 518 z "},"Æ":{"ha":1032,"x_min":-47,"x_max":1039,"o":"m 386 0 l 418 267 l 264 267 q 215 176 239 219 q 173 96 192 132 q 140 35 154 60 q 121 0 126 10 l -47 0 q -15 60 -40 13 q 49 178 11 108 q 135 333 88 247 q 231 506 182 418 q 326 680 279 594 q 412 835 374 765 q 476 952 450 904 q 510 1013 503 1000 l 1039 1013 l 1019 858 l 651 858 l 618 586 l 931 586 l 911 428 l 599 428 l 565 158 l 953 158 l 933 0 l 386 0 m 335 399 l 435 399 l 464 638 l 335 399 z "},"Ñ":{"ha":1124,"x_min":65,"x_max":1083,"o":"m 1083 1013 l 954 -47 q 917 -1 946 -35 q 845 78 888 32 q 751 181 803 125 q 644 295 699 238 q 538 408 590 353 q 444 510 486 464 q 374 590 403 557 q 338 635 344 622 q 328 649 336 638 q 314 671 319 661 q 313 649 313 660 q 313 626 313 638 l 235 0 l 65 0 l 196 1058 q 233 1013 204 1046 q 306 935 263 981 q 401 835 349 889 q 507 724 453 781 q 613 613 561 668 q 708 513 665 558 q 778 436 750 468 q 815 392 807 404 l 838 353 q 839 376 839 364 q 839 400 839 389 l 914 1013 l 1083 1013 m 629 1096 q 595 1123 610 1115 q 561 1131 581 1131 q 540 1128 551 1131 q 517 1119 528 1126 q 497 1101 506 1113 q 483 1069 488 1089 l 408 1072 q 429 1126 414 1101 q 466 1167 444 1150 q 511 1194 488 1185 q 557 1204 535 1204 q 617 1193 592 1204 q 663 1160 642 1182 q 697 1132 682 1139 q 731 1125 711 1125 q 775 1136 750 1125 q 810 1186 800 1147 l 883 1183 q 863 1130 878 1154 q 826 1088 847 1106 q 781 1061 804 1071 q 735 1051 757 1051 q 676 1063 701 1051 q 629 1096 650 1075 z "},"Å":{"ha":907,"x_min":-49,"x_max":858,"o":"m 690 0 l 611 267 l 263 267 q 214 176 238 219 q 172 96 190 132 q 139 35 153 60 q 119 0 125 10 l -49 0 q -15 62 -42 13 q 53 184 13 111 q 142 347 93 257 q 243 529 192 436 q 344 712 294 622 q 433 874 393 801 q 501 997 474 947 q 535 1058 528 1046 q 554 997 539 1046 q 592 874 569 947 q 641 712 614 801 q 697 529 668 622 q 753 347 725 436 q 803 184 781 257 q 840 62 825 111 q 858 0 854 13 l 690 0 m 426 1171 q 438 1222 426 1197 q 469 1264 450 1246 q 514 1293 489 1282 q 567 1304 539 1304 q 643 1272 611 1304 q 675 1194 675 1239 q 663 1142 675 1167 q 632 1100 651 1118 q 588 1071 613 1082 q 536 1060 563 1060 q 458 1092 490 1060 q 426 1171 426 1125 m 340 410 l 569 410 q 524 565 543 497 q 499 651 504 632 q 496 671 499 653 q 490 703 493 689 q 478 671 486 689 q 469 651 471 653 l 340 410 m 506 1176 q 517 1148 506 1160 q 544 1136 528 1136 q 582 1151 567 1136 q 597 1186 597 1165 q 586 1217 597 1206 q 557 1228 575 1228 q 520 1213 535 1228 q 506 1176 506 1199 z "},"Á":{"ha":907,"x_min":-49,"x_max":858,"o":"m 858 0 q 840 62 854 13 q 803 184 825 111 q 753 347 781 257 q 697 529 725 436 q 641 712 668 622 q 592 874 614 801 q 554 997 569 947 q 535 1058 539 1046 q 501 997 528 1046 q 433 874 474 947 q 344 712 393 801 q 243 529 294 622 q 142 347 192 436 q 53 184 93 257 q -15 62 13 111 q -49 0 -42 13 l 119 0 q 139 35 125 10 q 172 96 153 60 q 214 176 190 132 q 263 267 238 219 l 611 267 l 690 0 l 858 0 m 469 651 q 478 671 471 653 q 490 703 486 689 q 496 671 493 689 q 499 651 499 653 q 524 565 504 632 q 569 410 543 497 l 340 410 l 469 651 m 463 1069 q 538 1163 500 1115 q 614 1257 575 1210 l 757 1257 l 563 1069 l 463 1069 z "},"É":{"ha":860,"x_min":68,"x_max":864,"o":"m 68 0 l 192 1013 l 864 1013 l 846 858 l 343 858 l 310 586 l 757 586 l 738 428 l 290 428 l 257 158 l 779 158 l 760 0 l 68 0 m 456 1069 q 531 1163 493 1115 q 607 1257 568 1210 l 750 1257 l 556 1069 l 456 1069 z "},"Í":{"ha":401,"x_min":67,"x_max":504,"o":"m 192 1013 l 361 1013 l 238 0 l 67 0 l 192 1013 m 210 1069 q 285 1163 247 1115 q 361 1257 322 1210 l 504 1257 l 310 1069 l 210 1069 z "},"Ó":{"ha":1132,"x_min":49,"x_max":1100,"o":"m 61 504 q 126 704 74 610 q 257 869 178 799 q 435 982 336 940 q 640 1024 533 1024 q 822 986 738 1024 q 968 885 907 949 q 1065 735 1029 821 q 1100 554 1100 650 q 1051 336 1100 439 q 920 156 1001 233 q 733 34 839 79 q 514 -11 628 -11 q 318 29 407 -11 q 167 140 229 69 q 77 303 106 210 q 61 504 49 397 m 232 504 q 242 366 222 431 q 303 253 261 301 q 404 178 344 206 q 538 150 464 150 q 685 181 614 150 q 810 265 756 213 q 897 390 864 318 q 929 540 929 461 q 906 665 929 607 q 842 767 883 724 q 745 835 801 810 q 622 860 689 860 q 483 832 550 860 q 364 756 417 804 q 276 642 311 707 q 232 504 240 578 m 565 1069 q 640 1163 603 1115 q 717 1257 678 1210 l 860 1257 l 665 1069 l 565 1069 z "},"Ú":{"ha":997,"x_min":90,"x_max":968,"o":"m 447 -11 q 297 16 365 -11 q 181 92 228 43 q 113 209 135 140 q 101 361 90 278 l 181 1013 l 351 1013 l 271 365 q 278 282 265 321 q 317 214 290 243 q 381 167 343 185 q 467 150 419 150 q 557 167 514 150 q 634 214 600 185 q 690 282 668 243 q 718 365 713 321 l 797 1013 l 968 1013 l 888 361 q 838 209 878 278 q 740 92 799 140 q 605 16 681 43 q 447 -11 529 -11 m 506 1069 q 581 1163 543 1115 q 657 1257 618 1210 l 800 1257 l 606 1069 l 506 1069 z "},"Ä":{"ha":907,"x_min":-49,"x_max":858,"o":"m 858 0 q 840 62 854 13 q 803 184 825 111 q 753 347 781 257 q 697 529 725 436 q 641 712 668 622 q 592 874 614 801 q 554 997 569 947 q 535 1058 539 1046 q 501 997 528 1046 q 433 874 474 947 q 344 712 393 801 q 243 529 294 622 q 142 347 192 436 q 53 184 93 257 q -15 62 13 111 q -49 0 -42 13 l 119 0 q 139 35 125 10 q 172 96 153 60 q 214 176 190 132 q 263 267 238 219 l 611 267 l 690 0 l 858 0 m 469 651 q 478 671 471 653 q 490 703 486 689 q 496 671 493 689 q 499 651 499 653 q 524 565 504 632 q 569 410 543 497 l 340 410 l 469 651 m 326 1154 q 335 1192 326 1175 q 358 1222 344 1210 q 390 1242 372 1235 q 424 1249 407 1249 q 474 1226 451 1249 q 497 1171 497 1204 q 488 1133 497 1150 q 465 1103 479 1115 q 435 1083 451 1090 q 403 1076 418 1076 q 349 1097 372 1076 q 326 1154 326 1118 m 594 1154 q 603 1192 594 1175 q 626 1222 613 1210 q 658 1242 640 1235 q 692 1249 675 1249 q 742 1226 719 1249 q 765 1171 765 1204 q 756 1133 765 1150 q 733 1103 747 1115 q 703 1083 719 1090 q 671 1076 686 1076 q 618 1097 642 1076 q 594 1154 594 1118 z "},"Ë":{"ha":860,"x_min":68,"x_max":864,"o":"m 68 0 l 192 1013 l 864 1013 l 846 858 l 343 858 l 310 586 l 757 586 l 738 428 l 290 428 l 257 158 l 779 158 l 760 0 l 68 0 m 615 1154 q 624 1192 615 1175 q 647 1222 633 1210 q 678 1242 661 1235 q 713 1249 696 1249 q 763 1226 740 1249 q 786 1171 786 1204 q 777 1133 786 1150 q 754 1103 768 1115 q 724 1083 740 1090 q 692 1076 707 1076 q 639 1097 663 1076 q 615 1154 615 1118 m 347 1154 q 356 1192 347 1175 q 379 1222 365 1210 q 410 1242 393 1235 q 444 1249 428 1249 q 495 1226 472 1249 q 518 1171 518 1204 q 509 1133 518 1150 q 486 1103 500 1115 q 456 1083 472 1090 q 424 1076 439 1076 q 370 1097 393 1076 q 347 1154 347 1118 z "},"Ï":{"ha":401,"x_min":67,"x_max":518,"o":"m 192 1013 l 361 1013 l 238 0 l 67 0 l 192 1013 m 347 1154 q 356 1192 347 1175 q 379 1222 365 1210 q 410 1242 393 1235 q 444 1249 428 1249 q 495 1226 472 1249 q 518 1171 518 1204 q 509 1133 518 1150 q 486 1103 500 1115 q 456 1083 472 1090 q 424 1076 439 1076 q 371 1097 394 1076 q 347 1154 347 1118 m 79 1154 q 88 1192 79 1175 q 111 1222 97 1210 q 142 1242 125 1235 q 176 1249 160 1249 q 227 1226 204 1249 q 250 1171 250 1204 q 241 1133 250 1150 q 218 1103 232 1115 q 188 1083 204 1090 q 156 1076 171 1076 q 102 1097 125 1076 q 79 1154 79 1118 z "},"Ö":{"ha":1132,"x_min":49,"x_max":1100,"o":"m 61 504 q 126 704 74 610 q 257 869 178 799 q 435 982 336 940 q 640 1024 533 1024 q 822 986 738 1024 q 968 885 907 949 q 1065 735 1029 821 q 1100 554 1100 650 q 1051 336 1100 439 q 920 156 1001 233 q 733 34 839 79 q 514 -11 628 -11 q 318 29 407 -11 q 167 140 229 69 q 77 303 106 210 q 61 504 49 397 m 232 504 q 242 366 222 431 q 303 253 261 301 q 404 178 344 206 q 538 150 464 150 q 685 181 614 150 q 810 265 756 213 q 897 390 864 318 q 929 540 929 461 q 906 665 929 607 q 842 767 883 724 q 745 835 801 810 q 622 860 689 860 q 483 832 550 860 q 364 756 417 804 q 276 642 311 707 q 232 504 240 578 m 715 1154 q 724 1192 715 1175 q 747 1222 733 1210 q 778 1242 761 1235 q 813 1249 796 1249 q 863 1226 840 1249 q 886 1171 886 1204 q 877 1133 886 1150 q 854 1103 868 1115 q 824 1083 840 1090 q 792 1076 807 1076 q 739 1097 763 1076 q 715 1154 715 1118 m 447 1154 q 456 1192 447 1175 q 479 1222 465 1210 q 510 1242 493 1235 q 544 1249 528 1249 q 595 1226 572 1249 q 618 1171 618 1204 q 609 1133 618 1150 q 586 1103 600 1115 q 556 1083 572 1090 q 524 1076 539 1076 q 470 1097 493 1076 q 447 1154 447 1118 z "},"Ü":{"ha":997,"x_min":90,"x_max":968,"o":"m 447 -11 q 297 16 365 -11 q 181 92 228 43 q 113 209 135 140 q 101 361 90 278 l 181 1013 l 351 1013 l 271 365 q 278 282 265 321 q 317 214 290 243 q 381 167 343 185 q 467 150 419 150 q 557 167 514 150 q 634 214 600 185 q 690 282 668 243 q 718 365 713 321 l 797 1013 l 968 1013 l 888 361 q 838 209 878 278 q 740 92 799 140 q 605 16 681 43 q 447 -11 529 -11 m 656 1154 q 665 1192 656 1175 q 688 1222 674 1210 q 719 1242 701 1235 q 753 1249 736 1249 q 803 1226 781 1249 q 826 1171 826 1204 q 817 1133 826 1150 q 794 1103 808 1115 q 764 1083 781 1090 q 732 1076 747 1076 q 679 1097 703 1076 q 656 1154 656 1118 m 388 1154 q 397 1192 388 1175 q 419 1222 406 1210 q 451 1242 433 1235 q 485 1249 468 1249 q 535 1226 513 1249 q 558 1171 558 1204 q 549 1133 558 1150 q 526 1103 540 1115 q 496 1083 513 1090 q 464 1076 479 1076 q 410 1097 433 1076 q 388 1154 388 1118 z "},"À":{"ha":907,"x_min":-49,"x_max":858,"o":"m 858 0 q 840 62 854 13 q 803 184 825 111 q 753 347 781 257 q 697 529 725 436 q 641 712 668 622 q 592 874 614 801 q 554 997 569 947 q 535 1058 539 1046 q 501 997 528 1046 q 433 874 474 947 q 344 712 393 801 q 243 529 294 622 q 142 347 192 436 q 53 184 93 257 q -15 62 13 111 q -49 0 -42 13 l 119 0 q 139 35 125 10 q 172 96 153 60 q 214 176 190 132 q 263 267 238 219 l 611 267 l 690 0 l 858 0 m 469 651 q 478 671 471 653 q 490 703 486 689 q 496 671 493 689 q 499 651 499 653 q 524 565 504 632 q 569 410 543 497 l 340 410 l 469 651 m 510 1257 q 561 1163 536 1210 q 613 1069 586 1115 l 514 1069 q 440 1163 478 1115 q 365 1257 401 1210 l 510 1257 z "},"È":{"ha":860,"x_min":68,"x_max":864,"o":"m 68 0 l 192 1013 l 864 1013 l 846 858 l 343 858 l 310 586 l 757 586 l 738 428 l 290 428 l 257 158 l 779 158 l 760 0 l 68 0 m 543 1257 q 594 1163 569 1210 q 646 1069 619 1115 l 547 1069 q 473 1163 511 1115 q 399 1257 435 1210 l 543 1257 z "},"Ì":{"ha":401,"x_min":67,"x_max":361,"o":"m 192 1013 l 361 1013 l 238 0 l 67 0 l 192 1013 m 256 1257 q 307 1163 282 1210 q 358 1069 332 1115 l 260 1069 q 185 1163 224 1115 q 111 1257 147 1210 l 256 1257 z "},"Ò":{"ha":1132,"x_min":49,"x_max":1100,"o":"m 61 504 q 126 704 74 610 q 257 869 178 799 q 435 982 336 940 q 640 1024 533 1024 q 822 986 738 1024 q 968 885 907 949 q 1065 735 1029 821 q 1100 554 1100 650 q 1051 336 1100 439 q 920 156 1001 233 q 733 34 839 79 q 514 -11 628 -11 q 318 29 407 -11 q 167 140 229 69 q 77 303 106 210 q 61 504 49 397 m 232 504 q 242 366 222 431 q 303 253 261 301 q 404 178 344 206 q 538 150 464 150 q 685 181 614 150 q 810 265 756 213 q 897 390 864 318 q 929 540 929 461 q 906 665 929 607 q 842 767 883 724 q 745 835 801 810 q 622 860 689 860 q 483 832 550 860 q 364 756 417 804 q 276 642 311 707 q 232 504 240 578 m 653 1257 q 704 1163 679 1210 q 756 1069 729 1115 l 657 1069 q 583 1163 621 1115 q 508 1257 544 1210 l 653 1257 z "},"Ù":{"ha":997,"x_min":90,"x_max":968,"o":"m 447 -11 q 297 16 365 -11 q 181 92 228 43 q 113 209 135 140 q 101 361 90 278 l 181 1013 l 351 1013 l 271 365 q 278 282 265 321 q 317 214 290 243 q 381 167 343 185 q 467 150 419 150 q 557 167 514 150 q 634 214 600 185 q 690 282 668 243 q 718 365 713 321 l 797 1013 l 968 1013 l 888 361 q 838 209 878 278 q 740 92 799 140 q 605 16 681 43 q 447 -11 529 -11 m 578 1257 q 629 1163 604 1210 q 681 1069 654 1115 l 582 1069 q 508 1163 546 1115 q 433 1257 469 1210 l 578 1257 z "},"Ý":{"ha":931,"x_min":81,"x_max":1000,"o":"m 543 328 l 503 0 l 332 0 l 371 328 q 344 390 365 338 q 292 515 322 442 q 226 670 261 588 q 160 826 190 753 q 107 951 129 899 q 81 1013 85 1003 l 274 1013 q 290 973 278 1003 q 319 901 303 943 q 356 808 336 858 q 397 706 376 757 q 435 609 417 656 q 467 528 453 563 l 476 481 q 489 505 483 492 q 500 528 494 518 q 552 609 522 563 q 613 706 582 656 q 676 808 644 757 q 735 901 708 858 q 781 973 763 943 q 807 1013 800 1003 l 1000 1013 l 543 328 m 475 1069 q 550 1163 513 1115 q 626 1257 588 1210 l 769 1257 l 575 1069 l 475 1069 z "},"¡":{"ha":439,"x_min":53,"x_max":333,"o":"m 90 529 l 233 529 l 333 -296 l 192 -296 l 90 529 m 132 776 q 192 751 164 776 q 226 689 221 726 q 208 628 231 651 q 153 604 185 604 q 92 628 121 604 q 57 689 63 651 q 76 751 53 726 q 132 776 99 776 z "},"Ø":{"ha":1132,"x_min":49,"x_max":1100,"o":"m 61 504 q 126 704 74 610 q 257 869 178 799 q 435 982 336 940 q 640 1024 533 1024 q 792 998 721 1024 q 922 926 864 972 l 1014 1019 l 1085 947 q 1044 906 1067 928 q 994 856 1021 883 q 1072 717 1044 793 q 1100 554 1100 640 q 1051 336 1100 439 q 920 156 1001 233 q 733 34 839 79 q 514 -11 628 -11 q 361 13 432 -11 q 233 79 290 36 l 131 -25 l 57 47 l 158 150 q 74 310 100 219 q 61 504 49 400 m 356 204 q 538 150 433 150 q 685 181 614 150 q 810 265 756 213 q 897 390 864 318 q 929 540 929 461 q 871 731 929 649 l 356 204 m 232 504 q 238 381 224 439 q 283 276 251 322 q 410 405 343 338 q 543 540 476 472 q 676 675 610 608 q 800 803 742 742 q 719 845 764 831 q 622 860 674 860 q 483 832 550 860 q 364 756 417 804 q 276 642 311 707 q 232 504 240 578 z "},"¿":{"ha":661,"x_min":-1,"x_max":560,"o":"m 440 -15 q 500 -38 469 -26 q 560 -61 531 -50 q 526 -128 547 -89 q 468 -201 504 -167 q 377 -260 432 -236 q 243 -285 322 -285 q 145 -265 190 -285 q 67 -212 100 -246 q 17 -134 35 -179 q -1 -37 -1 -89 q 44 117 -1 51 q 169 238 90 183 q 213 265 189 250 q 260 300 238 281 q 299 346 282 319 q 321 407 317 372 l 335 518 l 478 518 l 461 381 q 438 306 456 335 q 396 255 421 276 q 339 215 371 233 q 272 172 307 196 q 146 -26 146 83 q 176 -112 146 -78 q 261 -146 207 -146 q 375 -113 338 -146 q 440 -15 413 -81 m 438 757 q 490 737 467 757 q 514 681 514 717 q 483 613 514 640 q 417 586 451 586 q 367 609 389 586 q 344 664 344 632 q 353 702 344 685 q 375 731 361 719 q 405 750 389 743 q 438 757 421 757 z "},"Ã":{"ha":907,"x_min":-49,"x_max":858,"o":"m 858 0 q 840 62 854 13 q 803 184 825 111 q 753 347 781 257 q 697 529 725 436 q 641 712 668 622 q 592 874 614 801 q 554 997 569 947 q 535 1058 539 1046 q 501 997 528 1046 q 433 874 474 947 q 344 712 393 801 q 243 529 294 622 q 142 347 192 436 q 53 184 93 257 q -15 62 13 111 q -49 0 -42 13 l 119 0 q 139 35 125 10 q 172 96 153 60 q 214 176 190 132 q 263 267 238 219 l 611 267 l 690 0 l 858 0 m 531 1111 q 497 1138 511 1131 q 463 1146 482 1146 q 441 1144 453 1146 q 418 1135 429 1142 q 398 1116 407 1128 q 385 1085 389 1104 l 310 1088 q 331 1141 315 1117 q 367 1183 346 1165 q 413 1210 389 1200 q 458 1219 436 1219 q 518 1208 493 1219 q 564 1175 543 1197 q 598 1147 583 1154 q 632 1140 613 1140 q 676 1151 651 1140 q 711 1201 701 1163 l 785 1199 q 764 1145 779 1169 q 727 1103 749 1121 q 682 1076 706 1086 q 636 1067 658 1067 q 577 1078 603 1067 q 531 1111 551 1090 m 469 651 q 478 671 471 653 q 490 703 486 689 q 496 671 493 689 q 499 651 499 653 q 524 565 504 632 q 569 410 543 497 l 340 410 l 469 651 z "},"Õ":{"ha":1132,"x_min":49,"x_max":1100,"o":"m 61 504 q 126 704 74 610 q 257 869 178 799 q 435 982 336 940 q 640 1024 533 1024 q 822 986 738 1024 q 968 885 907 949 q 1065 735 1029 821 q 1100 554 1100 650 q 1051 336 1100 439 q 920 156 1001 233 q 733 34 839 79 q 514 -11 628 -11 q 318 29 407 -11 q 167 140 229 69 q 77 303 106 210 q 61 504 49 397 m 232 504 q 242 366 222 431 q 303 253 261 301 q 404 178 344 206 q 538 150 464 150 q 685 181 614 150 q 810 265 756 213 q 897 390 864 318 q 929 540 929 461 q 906 665 929 607 q 842 767 883 724 q 745 835 801 810 q 622 860 689 860 q 483 832 550 860 q 364 756 417 804 q 276 642 311 707 q 232 504 240 578 m 644 1143 q 610 1170 625 1163 q 576 1178 596 1178 q 555 1176 567 1178 q 532 1167 543 1174 q 512 1148 521 1160 q 499 1117 503 1136 l 424 1119 q 444 1173 429 1149 q 481 1215 460 1197 q 526 1242 503 1232 q 572 1251 550 1251 q 632 1240 607 1251 q 678 1207 657 1229 q 712 1179 697 1186 q 746 1172 726 1172 q 790 1183 765 1172 q 825 1233 815 1194 l 899 1231 q 878 1177 893 1201 q 841 1135 863 1153 q 796 1108 819 1118 q 750 1099 772 1099 q 691 1110 717 1099 q 644 1143 665 1122 z "},"â":{"ha":757,"x_min":28,"x_max":700,"o":"m 28 258 q 57 390 28 328 q 135 501 86 453 q 248 577 185 549 q 379 606 311 606 q 453 595 421 606 q 507 571 485 585 q 542 542 529 557 q 557 519 554 528 l 572 590 l 700 590 l 628 0 l 493 0 l 499 39 q 500 52 500 46 q 501 61 500 58 q 481 41 496 54 q 440 15 465 28 q 381 -6 415 3 q 304 -15 347 -15 q 190 7 242 -15 q 103 67 139 29 q 47 153 67 104 q 28 258 28 203 m 164 276 q 208 161 164 207 q 326 115 251 115 q 408 131 369 115 q 473 174 446 147 q 516 238 500 201 q 532 317 532 275 q 488 430 532 385 q 369 475 444 475 q 289 460 326 475 q 224 418 251 444 q 180 355 196 392 q 164 276 164 318 m 424 931 l 561 676 l 463 676 q 451 695 460 682 q 433 723 442 708 q 415 751 424 738 q 404 769 407 764 q 388 751 400 764 q 363 723 376 738 q 338 695 350 708 q 322 676 326 682 l 222 676 l 424 931 z "},"ê":{"ha":653,"x_min":28,"x_max":633,"o":"m 546 68 q 433 7 497 29 q 307 -15 369 -15 q 195 7 246 -15 q 107 67 144 29 q 49 156 69 106 q 28 264 28 207 q 57 395 28 333 q 135 503 86 457 q 248 577 185 550 q 378 604 311 604 q 546 544 478 604 q 633 385 614 485 q 532 348 589 369 q 413 303 475 326 q 288 255 350 279 q 172 211 225 231 q 228 142 189 168 q 319 115 267 115 q 394 128 356 115 q 458 164 432 142 l 546 68 m 376 931 l 514 676 l 415 676 q 403 695 413 682 q 385 723 394 708 q 368 751 376 738 q 357 769 360 764 q 341 751 353 764 q 316 723 329 738 q 291 695 303 708 q 275 676 279 682 l 175 676 l 376 931 m 472 415 q 427 460 458 446 q 364 475 396 475 q 290 460 325 475 q 227 419 254 444 q 183 362 200 394 q 163 296 165 329 q 240 326 199 310 q 324 358 282 342 q 404 390 365 375 q 472 415 443 404 m 163 296 l 163 294 q 163 292 163 292 q 163 296 164 293 z "},"î":{"ha":296,"x_min":15,"x_max":354,"o":"m 167 0 l 33 0 l 106 590 l 239 590 l 167 0 m 217 931 l 354 676 l 256 676 q 244 695 253 682 q 226 723 235 708 q 208 751 217 738 q 197 769 200 764 q 181 751 193 764 q 156 723 169 738 q 131 695 143 708 q 115 676 119 682 l 15 676 l 217 931 z "},"ô":{"ha":714,"x_min":22,"x_max":660,"o":"m 31 296 q 69 416 38 360 q 149 514 101 472 q 258 580 197 556 q 385 604 318 604 q 497 583 446 604 q 583 524 547 561 q 640 436 619 486 q 660 328 660 386 q 632 196 660 258 q 556 87 604 133 q 444 13 508 40 q 307 -15 379 -15 q 188 7 242 -15 q 96 70 133 29 q 40 169 58 111 q 31 296 22 226 m 163 294 q 169 224 158 257 q 200 167 179 192 q 252 129 221 143 q 321 115 283 115 q 397 131 360 115 q 462 174 433 147 q 507 237 490 201 q 524 313 524 272 q 511 376 524 346 q 477 428 499 406 q 426 463 456 450 q 364 475 397 475 q 292 460 326 475 q 230 422 257 446 q 185 365 203 397 q 163 294 167 332 m 424 931 l 561 676 l 463 676 q 451 695 460 682 q 433 723 442 708 q 415 751 424 738 q 404 769 407 764 q 388 751 400 764 q 363 723 376 738 q 338 695 350 708 q 322 676 326 682 l 222 676 l 424 931 z "},"û":{"ha":724,"x_min":40,"x_max":665,"o":"m 592 -14 l 479 -14 l 483 150 q 381 33 443 79 q 226 -14 318 -14 q 88 34 135 -14 q 47 161 40 82 l 100 590 l 232 590 l 189 224 q 209 151 185 181 q 293 118 233 121 q 369 132 333 118 q 431 171 404 146 q 476 231 458 196 q 499 306 493 265 l 533 590 l 665 590 l 592 -14 m 392 931 l 529 676 l 431 676 q 419 695 428 682 q 401 723 410 708 q 383 751 392 738 q 372 769 375 764 q 356 751 368 764 q 331 723 344 738 q 306 695 318 708 q 290 676 294 682 l 190 676 l 392 931 z "},"ã":{"ha":757,"x_min":28,"x_max":700,"o":"m 28 258 q 57 390 28 328 q 135 501 86 453 q 248 577 185 549 q 379 606 311 606 q 453 595 421 606 q 507 571 485 585 q 542 542 529 557 q 557 519 554 528 l 572 590 l 700 590 l 628 0 l 493 0 l 499 39 q 500 52 500 46 q 501 61 500 58 q 481 41 496 54 q 440 15 465 28 q 381 -6 415 3 q 304 -15 347 -15 q 190 7 242 -15 q 103 67 139 29 q 47 153 67 104 q 28 258 28 203 m 164 276 q 208 161 164 207 q 326 115 251 115 q 408 131 369 115 q 473 174 446 147 q 516 238 500 201 q 532 317 532 275 q 488 430 532 385 q 369 475 444 475 q 289 460 326 475 q 224 418 251 444 q 180 355 196 392 q 164 276 164 318 m 378 674 q 344 701 358 693 q 310 708 329 708 q 288 706 300 708 q 265 697 276 704 q 245 678 254 690 q 232 647 236 667 l 157 650 q 178 703 163 679 q 215 745 193 728 q 260 772 236 763 q 306 782 283 782 q 365 771 340 782 q 411 738 390 760 q 445 710 431 717 q 479 703 460 703 q 524 714 499 703 q 558 764 549 725 l 632 761 q 611 708 626 732 q 574 666 596 683 q 529 639 553 649 q 483 629 506 629 q 424 641 450 629 q 378 674 399 653 z "},"`":{"ha":283,"x_min":21,"x_max":268,"o":"m 165 864 q 217 769 192 817 q 268 676 242 722 l 169 676 q 95 769 133 722 q 21 864 57 817 l 165 864 z "},"^":{"ha":492,"x_min":113,"x_max":451,"o":"m 314 931 l 451 676 l 353 676 q 341 695 350 682 q 323 723 332 708 q 306 751 314 738 q 294 769 297 764 q 278 751 290 764 q 253 723 267 738 q 228 695 240 708 q 213 676 217 682 l 113 676 l 314 931 z "},"õ":{"ha":714,"x_min":22,"x_max":660,"o":"m 31 296 q 69 416 38 360 q 149 514 101 472 q 258 580 197 556 q 385 604 318 604 q 497 583 446 604 q 583 524 547 561 q 640 436 619 486 q 660 328 660 386 q 632 196 660 258 q 556 87 604 133 q 444 13 508 40 q 307 -15 379 -15 q 188 7 242 -15 q 96 70 133 29 q 40 169 58 111 q 31 296 22 226 m 163 294 q 169 224 158 257 q 200 167 179 192 q 252 129 221 143 q 321 115 283 115 q 397 131 360 115 q 462 174 433 147 q 507 237 490 201 q 524 313 524 272 q 511 376 524 346 q 477 428 499 406 q 426 463 456 450 q 364 475 397 475 q 292 460 326 475 q 230 422 257 446 q 185 365 203 397 q 163 294 167 332 m 392 674 q 358 701 372 693 q 324 708 343 708 q 302 706 314 708 q 279 697 290 704 q 259 678 268 690 q 246 647 250 667 l 171 650 q 192 703 176 679 q 228 745 207 728 q 274 772 250 763 q 319 782 297 782 q 379 771 354 782 q 425 738 404 760 q 459 710 444 717 q 493 703 474 703 q 538 714 513 703 q 572 764 563 725 l 646 761 q 625 708 640 732 q 588 666 610 683 q 543 639 567 649 q 497 629 519 629 q 438 641 464 629 q 392 674 413 653 z "},"'":{"ha":310,"x_min":118,"x_max":303,"o":"m 118 665 l 160 1015 l 303 1015 q 278 841 292 928 q 254 665 265 754 l 118 665 z "},"_":{"ha":719,"x_min":31,"x_max":611,"o":"m 594 0 l 31 0 l 47 139 l 611 139 l 594 0 z "},"[":{"ha":442,"x_min":43,"x_max":479,"o":"m 43 -210 l 197 1053 l 479 1053 l 463 914 l 322 914 l 203 -72 l 342 -72 l 325 -210 l 43 -210 z "},"]":{"ha":442,"x_min":-32,"x_max":406,"o":"m 406 1053 l 250 -210 l -32 -210 l -14 -72 l 125 -72 l 246 914 l 106 914 l 124 1053 l 406 1053 z "},"°":{"ha":417,"x_min":103,"x_max":407,"o":"m 250 726 q 299 747 278 726 q 321 794 321 767 q 305 836 321 819 q 265 853 289 853 q 215 832 236 853 q 194 783 194 811 q 210 742 194 758 q 250 726 225 726 m 103 775 q 117 840 103 810 q 154 892 131 869 q 209 927 178 914 q 275 940 240 940 q 370 902 333 940 q 407 807 407 864 q 393 742 407 772 q 356 689 379 711 q 303 653 333 667 q 239 640 272 640 q 141 678 179 640 q 103 775 103 717 z "},"ç":{"ha":585,"x_min":28,"x_max":575,"o":"m 443 154 q 478 103 463 128 q 513 54 493 79 q 419 4 469 22 q 313 -15 368 -14 q 316 -45 311 -35 q 329 -62 321 -56 q 347 -74 338 -69 q 364 -86 356 -79 q 404 -182 404 -121 q 393 -247 404 -215 q 359 -305 382 -279 q 303 -347 336 -331 q 226 -362 269 -362 q 137 -335 176 -362 q 85 -250 97 -308 l 167 -210 q 186 -244 171 -231 q 228 -258 201 -258 q 282 -234 264 -258 q 300 -178 300 -210 q 287 -142 300 -156 q 259 -116 274 -129 q 233 -85 244 -103 q 225 -32 221 -67 l 228 -4 q 147 33 183 8 q 83 94 110 58 q 42 172 57 129 q 28 264 28 215 q 57 395 28 333 q 135 504 86 457 q 248 578 183 551 q 383 606 313 606 q 490 587 442 606 q 575 536 538 568 l 478 438 q 367 475 436 475 q 285 460 322 475 q 219 418 247 444 q 176 355 192 392 q 161 276 161 318 q 204 162 161 208 q 322 115 247 115 q 443 154 392 115 z "},"Ç":{"ha":886,"x_min":60,"x_max":917,"o":"m 839 75 q 794 50 822 64 q 726 24 765 36 q 640 1 688 11 q 539 -10 593 -8 l 539 -11 q 541 -43 536 -32 q 553 -62 546 -54 q 571 -74 561 -69 q 589 -86 581 -79 q 629 -182 629 -121 q 618 -247 629 -215 q 584 -305 607 -279 q 528 -347 561 -331 q 451 -362 494 -362 q 362 -335 401 -362 q 310 -250 322 -308 l 392 -210 q 411 -244 396 -231 q 453 -258 426 -258 q 507 -234 489 -258 q 525 -178 525 -210 q 512 -142 525 -156 q 484 -116 499 -129 q 458 -85 469 -103 q 450 -32 446 -67 l 453 -8 q 284 40 357 1 q 161 140 211 79 q 85 277 111 200 q 60 440 60 354 q 109 674 60 567 q 240 858 158 781 q 429 980 322 936 q 653 1024 536 1024 q 737 1017 694 1024 q 815 1001 779 1011 q 878 979 851 992 q 917 953 906 967 q 892 921 901 933 q 874 895 883 908 q 854 865 865 882 q 824 819 843 849 q 785 839 808 831 q 738 852 763 847 q 687 860 713 857 q 640 863 661 863 q 483 831 557 863 q 353 745 408 799 q 266 622 299 692 q 233 479 233 553 q 255 360 233 418 q 317 259 276 303 q 416 189 358 215 q 544 163 474 163 q 631 172 589 163 q 707 192 674 181 q 762 214 740 203 q 785 229 783 225 l 839 75 z "},"–":{"ha":581,"x_min":57,"x_max":499,"o":"m 57 233 l 74 371 l 499 371 l 482 233 l 57 233 z "},"—":{"ha":864,"x_min":57,"x_max":782,"o":"m 57 233 l 74 371 l 782 371 l 765 233 l 57 233 z "},"¸":{"ha":638,"x_min":111,"x_max":429,"o":"m 256 0 l 342 0 l 340 -11 q 342 -43 338 -32 q 355 -62 347 -54 q 372 -74 363 -69 q 390 -86 382 -79 q 420 -128 411 -104 q 429 -182 429 -153 q 418 -247 429 -215 q 384 -305 407 -279 q 328 -347 361 -331 q 251 -362 294 -362 q 163 -335 203 -362 q 111 -250 124 -308 l 192 -210 q 213 -244 197 -231 q 253 -258 228 -258 q 308 -234 289 -258 q 326 -178 326 -210 q 313 -140 326 -154 q 285 -114 300 -126 q 258 -88 269 -101 q 249 -54 246 -75 l 256 0 z "},"´":{"ha":407,"x_min":224,"x_max":518,"o":"m 224 676 q 299 769 261 722 q 375 864 336 817 l 518 864 l 324 676 l 224 676 z "},"¨":{"ha":522,"x_min":147,"x_max":586,"o":"m 415 733 q 424 772 415 754 q 447 801 433 789 q 478 821 461 814 q 513 828 496 828 q 563 806 540 828 q 586 750 586 783 q 577 712 586 729 q 554 682 568 694 q 524 663 540 669 q 492 656 507 656 q 439 676 463 656 q 415 733 415 697 m 147 733 q 156 772 147 754 q 179 801 165 789 q 210 821 193 814 q 244 828 228 828 q 295 806 272 828 q 318 750 318 783 q 309 712 318 729 q 286 682 300 694 q 256 663 272 669 q 224 656 239 656 q 170 676 193 656 q 147 733 147 697 z "},"Ð":{"ha":997,"x_min":29,"x_max":961,"o":"m 43 550 l 143 550 l 200 1013 l 463 1013 q 695 972 600 1013 q 849 867 790 932 q 935 720 908 803 q 961 553 961 638 q 913 323 961 425 q 785 149 865 221 q 602 38 706 76 q 388 0 499 0 l 75 0 l 129 436 l 29 436 l 43 550 m 381 161 q 542 187 467 161 q 672 262 617 213 q 758 383 726 311 q 790 549 790 456 q 762 687 790 629 q 690 780 733 744 q 592 832 646 815 q 486 849 538 849 l 350 849 q 331 699 340 774 q 314 550 322 625 l 463 550 l 449 436 l 300 436 l 267 161 l 381 161 z "},"þ":{"ha":761,"x_min":-1,"x_max":706,"o":"m 706 336 q 678 195 706 260 q 605 84 651 131 q 494 11 558 38 q 354 -15 429 -15 q 238 10 286 -15 q 174 65 189 36 q 173 55 172 60 q 172 43 174 50 l 132 -283 l -1 -283 l 167 1085 l 300 1085 l 231 515 q 263 545 243 529 q 308 574 282 561 q 367 597 335 588 q 438 606 400 606 q 548 587 499 606 q 633 533 597 568 q 687 449 668 499 q 706 336 706 399 m 558 319 q 519 431 558 388 q 408 475 481 475 q 326 460 364 475 q 262 418 289 444 q 219 355 235 392 q 203 276 203 318 q 246 161 203 207 q 364 115 289 115 q 444 131 408 115 q 506 176 481 147 q 544 241 531 204 q 558 319 558 278 z "},"ð":{"ha":718,"x_min":22,"x_max":661,"o":"m 31 296 q 69 416 38 360 q 149 514 101 472 q 258 580 197 556 q 385 604 318 604 q 493 583 444 604 q 453 713 479 647 q 386 846 426 779 q 341 802 364 822 q 296 760 318 782 l 228 829 l 332 929 q 272 1003 303 968 q 206 1071 240 1039 l 294 1144 q 360 1084 329 1117 q 421 1015 390 1051 q 465 1056 443 1036 q 508 1100 486 1076 l 576 1031 q 526 983 551 1007 q 476 935 501 960 q 548 806 514 876 q 607 661 582 736 q 647 510 632 586 q 661 363 661 433 q 660 349 661 356 q 660 338 660 343 l 660 328 q 632 196 660 258 q 556 87 604 133 q 444 13 508 40 q 307 -15 379 -15 q 188 7 242 -15 q 96 70 133 29 q 40 169 58 111 q 31 296 22 226 m 163 294 q 169 224 158 257 q 200 167 179 192 q 252 129 221 143 q 321 115 283 115 q 397 131 360 115 q 462 174 433 147 q 507 237 490 201 q 524 313 524 272 q 511 376 524 346 q 477 428 499 406 q 426 463 456 450 q 364 475 397 475 q 292 460 326 475 q 230 422 257 446 q 185 365 203 397 q 163 294 167 332 z "},"Þ":{"ha":803,"x_min":68,"x_max":790,"o":"m 68 0 l 189 988 l 360 988 l 340 833 l 457 833 q 595 814 533 833 q 700 758 657 794 q 767 667 743 721 q 790 547 790 614 q 769 416 790 483 q 701 294 749 349 q 580 204 654 239 q 400 169 506 169 l 258 169 l 238 0 l 68 0 m 278 329 l 414 329 q 510 350 471 329 q 572 401 549 371 q 606 465 596 431 q 617 524 617 499 q 609 572 617 546 q 583 622 601 599 q 534 659 565 644 q 457 674 503 674 l 321 674 l 278 329 z "},"Â":{"ha":907,"x_min":-49,"x_max":858,"o":"m 858 0 q 840 62 854 13 q 803 184 825 111 q 753 347 781 257 q 697 529 725 436 q 641 712 668 622 q 592 874 614 801 q 554 997 569 947 q 535 1058 539 1046 q 501 997 528 1046 q 433 874 474 947 q 344 712 393 801 q 243 529 294 622 q 142 347 192 436 q 53 184 93 257 q -15 62 13 111 q -49 0 -42 13 l 119 0 q 139 35 125 10 q 172 96 153 60 q 214 176 190 132 q 263 267 238 219 l 611 267 l 690 0 l 858 0 m 581 1325 l 718 1071 l 619 1071 q 608 1090 617 1076 q 590 1117 599 1103 q 572 1145 581 1132 q 561 1164 564 1158 q 545 1145 557 1158 q 520 1117 533 1132 q 495 1090 507 1103 q 479 1071 483 1076 l 379 1071 l 581 1325 m 469 651 q 478 671 471 653 q 490 703 486 689 q 496 671 493 689 q 499 651 499 653 q 524 565 504 632 q 569 410 543 497 l 340 410 l 469 651 z "},"Ê":{"ha":860,"x_min":68,"x_max":864,"o":"m 68 0 l 192 1013 l 864 1013 l 846 858 l 343 858 l 310 586 l 757 586 l 738 428 l 290 428 l 257 158 l 779 158 l 760 0 l 68 0 m 586 1325 l 724 1071 l 625 1071 q 613 1090 622 1076 q 595 1117 604 1103 q 578 1145 586 1132 q 567 1164 569 1158 q 551 1145 563 1158 q 526 1117 539 1132 q 501 1090 513 1103 q 485 1071 489 1076 l 385 1071 l 586 1325 z "},"Î":{"ha":401,"x_min":67,"x_max":454,"o":"m 192 1013 l 361 1013 l 238 0 l 67 0 l 192 1013 m 317 1325 l 454 1071 l 356 1071 q 344 1090 353 1076 q 326 1117 335 1103 q 308 1145 317 1132 q 297 1164 300 1158 q 281 1145 293 1158 q 256 1117 269 1132 q 231 1090 243 1103 q 215 1071 219 1076 l 115 1071 l 317 1325 z "},"Ô":{"ha":1132,"x_min":49,"x_max":1100,"o":"m 61 504 q 126 704 74 610 q 257 869 178 799 q 435 982 336 940 q 640 1024 533 1024 q 822 986 738 1024 q 968 885 907 949 q 1065 735 1029 821 q 1100 554 1100 650 q 1051 336 1100 439 q 920 156 1001 233 q 733 34 839 79 q 514 -11 628 -11 q 318 29 407 -11 q 167 140 229 69 q 77 303 106 210 q 61 504 49 397 m 232 504 q 242 366 222 431 q 303 253 261 301 q 404 178 344 206 q 538 150 464 150 q 685 181 614 150 q 810 265 756 213 q 897 390 864 318 q 929 540 929 461 q 906 665 929 607 q 842 767 883 724 q 745 835 801 810 q 622 860 689 860 q 483 832 550 860 q 364 756 417 804 q 276 642 311 707 q 232 504 240 578 m 689 1325 l 826 1071 l 728 1071 q 716 1090 725 1076 q 698 1117 707 1103 q 681 1145 689 1132 q 669 1164 672 1158 q 653 1145 665 1158 q 628 1117 642 1132 q 603 1090 615 1103 q 588 1071 592 1076 l 488 1071 l 689 1325 z "},"Û":{"ha":997,"x_min":90,"x_max":968,"o":"m 447 -11 q 297 16 365 -11 q 181 92 228 43 q 113 209 135 140 q 101 361 90 278 l 181 1013 l 351 1013 l 271 365 q 278 282 265 321 q 317 214 290 243 q 381 167 343 185 q 467 150 419 150 q 557 167 514 150 q 634 214 600 185 q 690 282 668 243 q 718 365 713 321 l 797 1013 l 968 1013 l 888 361 q 838 209 878 278 q 740 92 799 140 q 605 16 681 43 q 447 -11 529 -11 m 625 1360 l 763 1106 l 664 1106 q 652 1124 661 1111 q 634 1152 643 1138 q 617 1180 625 1167 q 606 1199 608 1193 q 590 1180 601 1193 q 565 1152 578 1167 q 540 1124 551 1138 q 524 1106 528 1111 l 424 1106 l 625 1360 z "},"±":{"ha":681,"x_min":53,"x_max":624,"o":"m 257 297 l 281 482 l 99 482 l 115 619 l 297 619 l 319 806 l 464 806 l 442 619 l 624 619 l 607 482 l 425 482 l 403 297 l 257 297 m 560 106 l 53 106 l 69 244 l 578 244 l 560 106 z "},"$":{"ha":825,"x_min":8,"x_max":801,"o":"m 801 956 l 724 817 q 622 848 672 836 q 525 863 572 860 l 493 594 q 586 554 539 576 q 672 501 633 532 q 733 426 710 469 q 757 321 757 382 q 733 199 757 254 q 665 103 710 144 q 558 34 621 61 q 419 -4 496 7 l 408 -94 l 311 -94 l 321 -11 l 318 -11 q 210 -3 258 -11 q 122 19 161 6 q 55 47 83 32 q 8 74 26 61 l 101 222 q 158 193 128 206 q 220 172 189 181 q 281 160 251 164 q 336 156 311 156 l 342 156 l 379 465 q 292 504 335 483 q 216 553 250 525 q 161 619 182 582 q 140 710 140 657 q 160 808 140 758 q 217 900 179 858 q 313 972 256 942 q 447 1013 371 1003 l 458 1106 l 556 1106 l 544 1017 q 638 1005 593 1014 q 717 985 682 996 q 774 966 751 975 q 801 956 797 957 m 588 303 q 554 375 588 347 q 472 426 521 403 l 440 169 q 493 188 467 176 q 540 215 519 199 q 574 252 561 231 q 588 303 588 274 m 310 736 q 335 676 310 700 q 400 633 360 653 l 428 853 q 341 807 372 838 q 310 736 310 776 z "},"¢":{"ha":611,"x_min":33,"x_max":581,"o":"m 449 154 q 483 103 468 128 q 518 54 499 79 q 428 6 476 24 q 326 -15 379 -12 l 317 -94 l 219 -94 l 231 -3 q 150 35 186 10 q 88 96 114 61 q 47 174 61 131 q 33 264 33 217 q 54 376 33 322 q 112 474 75 431 q 199 549 149 518 q 306 594 249 581 l 317 683 l 414 683 l 404 606 q 501 585 457 603 q 581 536 544 567 l 483 438 q 388 474 447 469 l 343 115 q 449 154 401 119 m 167 276 q 188 192 167 229 q 247 133 208 154 l 289 458 q 200 388 233 436 q 167 276 167 339 z "},"•":{"ha":574,"x_min":86,"x_max":493,"o":"m 86 403 q 105 490 86 449 q 155 561 124 531 q 227 610 186 592 q 313 628 268 628 q 385 613 351 628 q 442 574 418 599 q 479 515 465 549 q 493 444 493 482 q 474 358 493 399 q 424 288 456 318 q 350 241 392 258 q 263 224 308 224 q 192 237 225 224 q 136 274 160 250 q 99 331 113 299 q 86 403 86 364 z "},"“":{"ha":393,"x_min":118,"x_max":394,"o":"m 394 833 q 357 814 375 822 q 319 797 339 806 q 275 891 286 838 q 283 1003 264 944 l 368 993 q 361 903 353 944 q 394 833 369 861 m 249 833 q 210 814 229 822 q 172 797 192 806 q 128 891 139 838 q 138 1003 118 944 l 221 993 q 214 903 206 944 q 249 833 222 861 z "},"”":{"ha":397,"x_min":106,"x_max":410,"o":"m 318 797 q 285 814 301 806 q 253 833 269 822 q 304 903 286 861 q 318 993 322 944 l 406 1003 q 386 891 410 944 q 318 797 363 838 m 171 797 q 139 814 156 806 q 106 833 122 822 q 157 903 139 861 q 172 993 175 944 l 258 1003 q 239 891 263 944 q 171 797 215 838 z "},"‘":{"ha":246,"x_min":118,"x_max":249,"o":"m 249 833 q 210 814 229 822 q 172 797 192 806 q 128 891 139 838 q 136 1003 118 944 l 221 993 q 214 903 206 944 q 249 833 222 861 z "},"„":{"ha":415,"x_min":-8,"x_max":296,"o":"m 58 -78 q 25 -59 42 -68 q -8 -42 8 -50 q 44 30 25 -12 q 58 121 63 72 l 144 131 q 126 17 149 71 q 58 -78 103 -37 m 206 -78 q 172 -59 189 -68 q 139 -42 156 -50 q 190 30 172 -12 q 206 121 208 72 l 292 131 q 272 17 296 71 q 206 -78 249 -37 z "},"‚":{"ha":268,"x_min":-8,"x_max":149,"o":"m 58 -78 q 25 -59 42 -68 q -8 -42 8 -50 q 44 30 25 -12 q 58 121 63 72 l 144 131 q 126 17 149 71 q 58 -78 103 -37 z "},"›":{"ha":417,"x_min":82,"x_max":357,"o":"m 129 226 q 143 248 133 232 q 165 282 153 264 q 186 316 176 300 q 200 338 196 332 q 181 359 194 343 q 151 392 167 375 q 122 426 136 410 q 101 446 107 442 l 82 608 q 107 584 86 604 q 157 535 128 564 q 219 474 186 507 q 282 411 253 440 q 332 362 311 382 q 357 338 353 342 l 149 65 l 129 226 z "},"«":{"ha":636,"x_min":47,"x_max":564,"o":"m 497 65 l 289 338 q 314 362 293 342 q 364 411 335 382 q 426 474 393 440 q 489 535 460 507 q 539 584 518 564 q 564 608 560 604 l 544 447 q 524 427 539 443 q 494 393 510 411 q 465 359 479 375 q 444 338 450 343 q 459 316 449 332 q 481 282 469 300 q 502 248 492 264 q 517 226 513 232 l 497 65 m 256 65 l 47 338 q 72 362 51 342 q 122 411 93 382 q 185 474 151 440 q 247 535 218 507 q 297 584 276 564 q 322 608 318 604 l 303 446 q 283 426 297 442 q 253 392 268 410 q 224 359 238 375 q 204 338 210 343 q 218 316 208 332 q 240 282 228 300 q 261 248 251 264 q 275 226 271 232 l 256 65 z "},"»":{"ha":658,"x_min":82,"x_max":599,"o":"m 129 226 q 144 248 133 232 q 165 282 154 264 q 187 316 176 300 q 201 338 197 332 q 181 359 196 343 q 151 393 167 375 q 122 427 136 411 q 101 447 107 443 l 82 608 q 107 584 86 604 q 157 535 128 564 q 219 474 186 507 q 282 411 253 440 q 332 362 311 382 q 357 338 353 342 l 149 65 l 129 226 m 371 226 q 385 248 375 232 q 406 282 394 264 q 428 316 418 300 q 442 338 438 332 q 422 359 436 343 q 393 392 408 375 q 363 426 378 410 q 343 446 349 442 l 324 608 q 349 584 328 604 q 399 535 369 564 q 461 474 428 507 q 524 411 494 440 q 574 362 553 382 q 599 338 594 342 l 390 65 l 371 226 z "},"¥":{"ha":997,"x_min":111,"x_max":1031,"o":"m 574 328 l 561 233 l 699 233 l 688 139 l 550 139 l 533 0 l 363 0 l 379 139 l 225 139 l 236 233 l 390 233 l 401 328 q 394 340 399 331 q 385 365 390 350 l 253 365 l 264 460 l 344 460 q 276 623 314 532 q 203 797 238 714 q 142 941 168 881 q 111 1013 117 1001 l 304 1013 q 321 973 308 1003 q 350 901 333 943 q 387 808 367 858 q 427 706 407 757 q 465 609 447 656 q 497 528 483 563 l 507 481 q 519 505 514 492 q 531 528 525 518 q 583 609 553 563 q 644 706 613 656 q 707 808 675 757 q 766 901 739 858 q 812 973 793 943 q 838 1013 831 1003 l 1031 1013 l 661 460 l 726 460 l 715 365 l 599 365 l 574 328 z "},"©":{"ha":846,"x_min":72,"x_max":803,"o":"m 399 201 q 535 228 471 201 q 649 302 600 256 q 726 413 697 349 q 756 551 756 476 q 735 665 756 613 q 677 754 714 717 q 589 813 640 792 q 476 833 538 833 q 340 806 404 833 q 226 733 275 779 q 148 622 176 686 q 119 482 119 557 q 140 369 119 421 q 198 281 161 318 q 286 222 235 243 q 399 201 338 201 m 393 156 q 265 180 324 156 q 163 247 206 204 q 97 350 121 290 q 72 479 72 410 q 106 637 72 564 q 197 764 140 710 q 327 849 253 818 q 482 879 401 879 q 610 855 551 879 q 712 788 669 831 q 778 685 754 744 q 803 556 803 625 q 769 398 803 471 q 678 271 735 325 q 548 186 622 217 q 393 156 474 156 m 564 325 q 508 300 549 314 q 415 286 468 286 q 328 302 365 286 q 264 347 290 318 q 224 412 238 375 q 211 490 211 449 q 233 596 211 547 q 292 680 256 644 q 378 735 329 715 q 479 756 426 756 q 552 745 517 756 q 599 722 588 735 q 588 708 592 714 q 579 697 583 703 q 570 683 575 690 q 557 663 565 675 q 518 678 543 674 q 474 682 493 682 q 403 667 436 682 q 344 628 369 653 q 305 573 319 604 q 290 508 290 542 q 300 455 290 481 q 328 409 310 429 q 372 377 346 389 q 431 365 399 365 q 469 369 450 365 q 504 378 489 374 q 529 388 519 383 q 539 396 539 393 l 564 325 z "},"®":{"ha":846,"x_min":72,"x_max":803,"o":"m 393 156 q 265 180 324 156 q 163 247 206 204 q 97 350 121 290 q 72 479 72 410 q 106 637 72 564 q 197 764 140 710 q 327 849 253 818 q 482 879 401 879 q 610 855 551 879 q 712 788 669 831 q 778 685 754 744 q 803 556 803 625 q 769 398 803 471 q 678 271 735 325 q 548 186 622 217 q 393 156 474 156 m 399 201 q 535 228 471 201 q 649 302 600 256 q 726 413 697 349 q 756 551 756 476 q 735 665 756 613 q 677 754 714 717 q 589 813 640 792 q 476 833 538 833 q 340 806 404 833 q 226 733 275 779 q 148 622 176 686 q 119 482 119 557 q 140 369 119 421 q 198 281 161 318 q 286 222 235 243 q 399 201 338 201 m 256 292 l 314 771 l 449 771 q 565 735 522 771 q 607 635 607 699 q 586 547 607 590 q 517 478 565 503 q 562 389 540 432 q 613 292 583 346 l 515 292 l 429 457 l 422 457 l 356 457 l 335 292 l 256 292 m 365 532 l 429 532 q 475 542 457 532 q 504 565 493 551 q 520 595 515 579 q 525 624 525 611 q 522 647 525 635 q 510 670 518 660 q 487 688 501 681 q 450 694 472 694 l 385 694 l 365 532 z "},"÷":{"ha":619,"x_min":43,"x_max":568,"o":"m 550 289 l 43 289 l 60 428 l 568 428 l 550 289 m 250 563 q 258 601 250 583 q 281 631 267 618 q 312 651 294 643 q 347 658 329 658 q 398 635 375 658 q 421 579 421 613 q 412 541 421 558 q 389 512 403 524 q 358 493 375 500 q 325 486 342 486 q 273 506 296 486 q 250 563 250 526 m 199 143 q 207 181 199 164 q 229 211 215 199 q 260 231 243 224 q 294 239 278 239 q 345 216 322 239 q 368 160 368 193 q 359 122 368 139 q 337 92 350 104 q 307 74 324 81 q 275 67 290 67 q 222 87 244 67 q 199 143 199 107 z "},"½":{"ha":1167,"x_min":107,"x_max":1092,"o":"m 206 -26 l 729 1039 l 874 1039 l 350 -26 l 206 -26 m 871 99 l 1083 99 l 1069 0 l 615 0 q 755 124 688 64 q 874 241 822 185 q 958 349 926 297 q 989 450 989 401 q 979 499 989 478 q 955 533 969 519 q 923 553 940 546 q 890 560 906 560 q 828 546 853 560 q 788 513 803 532 q 767 472 774 493 q 761 435 761 450 q 789 350 761 379 q 754 319 771 335 q 719 289 738 304 q 693 315 704 297 q 674 353 682 332 q 663 395 667 374 q 658 435 658 417 q 675 516 658 476 q 723 588 692 556 q 799 639 754 619 q 901 658 844 658 q 981 643 946 658 q 1041 601 1017 628 q 1078 541 1065 575 q 1092 468 1092 507 q 1074 374 1092 419 q 1027 283 1057 328 q 957 192 997 238 q 871 99 917 146 m 119 878 l 131 975 l 290 975 l 210 325 l 107 325 l 175 878 l 119 878 z "},"¼":{"ha":1118,"x_min":108,"x_max":1056,"o":"m 203 -26 l 726 1039 l 871 1039 l 347 -26 l 203 -26 m 532 174 q 769 432 644 299 q 1004 690 893 565 l 953 276 l 1056 276 l 1042 174 l 940 174 l 919 0 l 813 0 l 833 174 l 532 174 m 121 878 l 132 975 l 292 975 l 211 325 l 108 325 l 176 878 l 121 878 m 863 403 q 838 375 853 392 q 806 340 822 358 q 775 305 790 322 q 750 276 760 288 l 847 276 l 863 403 z "},"ª":{"ha":597,"x_min":79,"x_max":564,"o":"m 79 611 q 101 706 79 661 q 158 786 122 751 q 239 841 193 821 q 333 861 285 861 q 385 853 363 861 q 424 836 408 846 q 449 816 440 826 q 461 800 458 806 l 472 851 l 564 851 l 513 425 l 415 425 l 419 453 l 419 468 q 403 453 415 463 q 374 435 392 444 q 333 420 357 426 q 279 414 308 414 q 197 430 233 414 q 133 473 160 446 q 93 535 107 500 q 79 611 79 571 m 178 625 q 210 542 178 575 q 294 508 242 508 q 353 519 326 508 q 401 551 381 531 q 432 597 421 571 q 443 653 443 624 q 411 735 443 701 q 326 768 379 768 q 267 757 294 768 q 221 726 240 746 q 190 681 201 707 q 178 625 178 656 z "},"£":{"ha":861,"x_min":4,"x_max":818,"o":"m 272 139 l 503 139 q 569 143 544 139 q 609 156 594 147 q 629 178 624 164 q 638 213 635 192 l 646 269 q 718 270 682 269 q 790 271 754 271 l 772 119 q 758 71 768 93 q 728 33 749 49 q 674 9 707 18 q 590 0 640 0 l 4 0 l 21 139 l 83 139 q 119 143 104 139 q 144 160 133 147 q 160 197 154 172 q 172 261 167 221 l 186 371 l 93 371 l 111 510 l 203 510 l 233 761 q 267 853 239 811 q 339 927 294 896 q 442 976 383 958 q 569 994 500 994 q 731 956 671 994 q 818 849 790 918 q 760 817 789 833 q 701 786 732 801 q 691 799 697 788 q 671 822 685 810 q 630 845 657 835 q 557 856 603 856 q 430 822 479 856 q 372 719 381 788 l 346 510 l 507 510 l 490 371 l 329 371 l 313 235 l 314 250 q 303 184 308 210 q 272 139 297 158 z "},"¹":{"ha":253,"x_min":118,"x_max":236,"o":"m 126 915 l 133 979 l 236 979 l 185 557 l 118 557 l 163 915 l 126 915 z "},"¾":{"ha":1376,"x_min":44,"x_max":1314,"o":"m 442 -26 l 965 1039 l 1110 1039 l 586 -26 l 442 -26 m 185 631 q 274 758 225 694 q 364 885 324 821 l 158 885 l 172 993 l 550 993 q 460 865 507 929 q 371 738 414 801 q 456 658 424 708 q 488 543 488 607 q 465 440 488 489 q 403 355 442 392 q 315 297 365 318 q 213 276 265 276 q 117 297 161 276 q 44 354 74 318 l 135 429 q 226 383 165 383 q 283 395 256 383 q 331 427 310 407 q 364 474 351 447 q 376 529 376 500 q 343 613 376 578 q 258 647 310 647 q 185 631 218 647 m 790 174 q 1027 432 903 299 q 1263 690 1151 565 l 1213 276 l 1314 276 l 1301 174 l 1200 174 l 1178 0 l 1071 0 l 1092 174 l 790 174 m 1121 403 q 1096 375 1111 392 q 1065 340 1081 358 q 1033 305 1049 322 q 1008 276 1018 288 l 1106 276 l 1121 403 z "},"²":{"ha":468,"x_min":97,"x_max":429,"o":"m 275 589 l 422 589 l 414 521 l 97 521 q 194 607 147 565 q 277 688 240 649 q 335 764 314 728 q 357 835 357 800 q 333 892 357 872 q 288 911 310 911 q 245 901 263 911 q 217 878 228 892 q 203 850 207 865 q 199 824 199 835 q 218 765 199 785 l 169 722 q 150 740 158 728 q 137 767 142 753 q 129 797 132 782 q 126 824 126 811 q 138 881 126 853 q 172 930 150 908 q 224 965 193 951 q 296 979 256 979 q 394 940 358 979 q 429 847 429 900 q 417 781 429 814 q 383 717 404 749 q 335 654 363 686 q 275 589 307 622 z "},"¶":{"ha":796,"x_min":97,"x_max":729,"o":"m 369 0 l 226 0 l 300 596 q 218 612 256 596 q 153 656 181 628 q 112 722 126 685 q 97 804 97 760 q 118 902 97 856 q 175 983 139 949 q 258 1038 211 1018 q 357 1058 304 1058 l 729 1058 l 599 0 l 457 0 l 571 919 l 482 919 l 369 0 z "},"¬":{"ha":672,"x_min":65,"x_max":586,"o":"m 424 208 l 429 251 l 65 251 l 78 353 l 586 353 l 568 208 l 424 208 z "},"³":{"ha":392,"x_min":78,"x_max":400,"o":"m 167 749 q 224 829 192 789 q 282 910 256 869 l 150 910 l 158 979 l 400 979 q 343 898 372 939 q 286 817 314 857 q 340 765 321 797 q 360 692 360 732 q 345 626 360 657 q 306 573 331 596 q 250 536 282 550 q 185 522 218 522 q 124 535 151 522 q 78 572 96 549 l 135 619 q 193 590 156 590 q 260 618 231 590 q 289 683 289 646 q 267 737 289 715 q 214 758 246 758 q 167 749 188 758 z "},"¦":{"ha":319,"x_min":-1,"x_max":304,"o":"m 143 -329 l -1 -329 l 60 165 l 204 165 l 143 -329 m 244 494 l 100 494 l 161 988 l 304 988 l 244 494 z "},"&":{"ha":913,"x_min":31,"x_max":903,"o":"m 849 0 l 692 0 q 671 28 690 0 q 619 100 651 56 q 493 17 568 50 q 328 -15 418 -15 q 206 5 261 -15 q 113 61 151 25 q 52 147 74 97 q 31 257 31 197 q 51 372 31 318 q 109 470 72 426 q 196 545 146 514 q 303 592 246 576 q 278 640 289 617 q 260 683 267 664 q 235 756 244 722 q 226 825 226 790 q 249 920 226 878 q 308 992 271 963 q 394 1038 346 1022 q 496 1056 443 1054 q 618 1040 564 1058 q 700 1000 672 1021 l 613 896 q 585 913 603 904 q 540 925 567 921 q 482 926 513 929 q 426 910 451 922 q 385 874 401 897 q 368 817 368 851 q 376 762 368 786 q 389 731 385 738 l 629 347 l 763 604 l 903 604 l 706 225 l 849 0 m 369 475 q 294 458 331 474 q 230 415 258 442 q 184 352 201 388 q 167 276 167 317 q 183 204 167 235 q 224 153 199 174 q 283 124 250 133 q 353 115 317 115 q 408 122 379 115 q 462 139 436 128 q 510 165 488 150 q 549 200 533 181 q 458 335 506 264 q 369 475 411 406 z "},"ß":{"ha":793,"x_min":47,"x_max":739,"o":"m 274 8 q 310 72 292 40 q 349 136 329 104 q 403 126 372 126 q 475 142 440 126 q 537 183 510 157 q 580 242 564 208 q 596 315 596 276 q 584 376 596 347 q 551 425 572 404 q 503 458 531 446 q 443 468 475 469 l 440 468 q 444 502 443 485 q 447 536 446 519 l 456 607 q 533 634 503 607 q 564 704 564 661 q 538 764 564 740 q 460 788 511 788 q 344 733 382 788 q 294 585 306 679 l 224 0 l 82 0 l 138 458 l 47 458 l 65 597 l 156 597 l 156 596 q 192 734 164 672 q 263 839 219 796 q 359 905 306 882 q 472 928 413 928 q 573 912 529 928 q 647 867 617 896 q 692 802 676 839 q 707 724 707 765 q 683 624 707 675 q 610 550 660 574 q 653 526 631 544 q 695 477 676 507 q 726 408 714 447 q 739 324 739 369 q 709 196 739 257 q 630 88 679 135 q 516 14 581 42 q 383 -14 451 -14 q 327 -8 356 -14 q 274 8 299 -3 z "},"¤":{"ha":618,"x_min":83,"x_max":560,"o":"m 106 479 q 118 551 106 518 q 153 613 131 583 l 121 650 l 197 718 l 231 681 q 287 705 258 696 q 347 714 315 714 q 457 681 408 714 l 499 718 l 560 649 l 519 614 q 540 522 540 574 q 527 451 540 483 q 489 386 514 418 l 522 349 l 446 281 q 428 300 436 290 q 411 319 419 310 q 296 288 358 288 q 188 318 236 288 l 144 279 l 83 347 l 126 385 q 106 479 106 424 m 203 488 q 233 413 203 443 q 308 382 264 382 q 359 392 335 382 q 402 421 383 403 q 432 463 421 439 q 443 513 443 486 q 413 588 443 557 q 338 619 383 619 q 287 609 311 619 q 244 581 263 599 q 214 538 225 563 q 203 488 203 514 z "},"§":{"ha":539,"x_min":71,"x_max":497,"o":"m 175 207 q 131 293 149 258 q 104 349 114 328 q 90 380 94 371 q 85 392 86 389 q 72 465 72 426 q 81 541 71 503 q 113 613 92 579 q 165 674 133 647 q 206 699 185 686 q 256 722 226 711 q 236 762 244 742 q 218 804 228 782 q 191 888 194 853 q 199 950 188 924 q 232 994 210 976 q 283 1026 254 1013 q 397 1088 342 1054 q 425 1026 411 1057 q 454 967 439 996 q 426 953 440 960 q 399 938 413 946 q 371 919 382 928 q 356 898 360 910 q 358 868 353 886 q 375 824 363 850 l 376 824 l 476 614 q 495 542 493 581 q 486 467 497 504 q 452 395 475 429 q 396 335 429 361 q 356 308 378 322 q 306 283 335 294 q 326 242 317 264 q 346 200 335 221 q 373 115 369 151 q 366 52 376 79 q 333 6 356 25 q 282 -26 311 -12 q 225 -55 251 -42 q 171 -85 199 -68 q 142 -26 156 -56 q 114 35 128 4 q 140 50 128 43 q 168 65 153 57 q 196 85 186 75 q 207 110 206 94 q 201 148 208 125 q 175 207 193 171 m 203 525 q 210 460 189 489 q 267 429 231 432 q 326 449 299 429 q 360 504 353 469 q 349 559 367 535 q 297 586 331 583 q 242 573 271 586 q 203 525 213 560 z "},"·":{"ha":319,"x_min":74,"x_max":244,"o":"m 74 390 q 83 428 74 411 q 106 458 92 446 q 137 478 119 471 q 171 486 154 486 q 222 463 199 486 q 244 408 244 440 q 235 370 244 388 q 213 340 226 353 q 182 321 199 328 q 150 314 165 314 q 97 335 119 314 q 74 390 74 356 z "},"º":{"ha":558,"x_min":76,"x_max":536,"o":"m 82 639 q 110 725 88 685 q 167 796 132 765 q 245 844 201 826 q 338 861 289 861 q 417 845 381 861 q 481 802 454 829 q 522 739 507 775 q 536 661 536 703 q 516 566 536 611 q 462 488 496 521 q 381 434 428 454 q 282 414 335 414 q 196 430 235 414 q 130 476 157 446 q 90 547 103 506 q 82 639 76 589 m 178 638 q 182 588 175 611 q 204 547 189 564 q 242 519 219 529 q 292 508 264 508 q 347 519 321 508 q 394 550 374 531 q 426 595 414 569 q 438 650 438 621 q 404 733 438 699 q 322 768 371 768 q 270 758 294 768 q 226 729 246 747 q 194 688 207 711 q 178 638 181 664 z "},"¯":{"ha":564,"x_min":203,"x_max":538,"o":"m 203 669 l 213 758 l 538 758 l 528 669 l 203 669 z "},"µ":{"ha":788,"x_min":25,"x_max":696,"o":"m 622 -14 l 510 -14 l 514 150 q 411 33 474 79 q 257 -14 349 -14 q 190 -6 219 -14 l 157 -279 l 25 -279 l 76 151 q 77 156 76 154 q 78 161 78 158 l 92 272 l 131 590 l 263 590 l 219 224 q 240 151 215 181 q 324 118 264 121 q 399 132 364 118 q 462 171 435 146 q 506 231 489 196 q 529 306 524 265 l 564 590 l 696 590 l 622 -14 z "},"×":{"ha":619,"x_min":32,"x_max":550,"o":"m 382 0 q 328 61 356 32 q 272 122 300 90 q 206 62 240 92 q 140 3 172 32 q 85 63 113 33 q 32 122 58 93 q 99 183 65 154 q 169 244 133 213 l 58 369 l 197 496 l 308 368 l 446 492 q 497 430 472 461 q 550 368 522 399 q 483 310 518 340 q 417 249 449 279 q 470 187 444 218 q 524 124 496 156 l 382 0 z "},"O":{"ha":1132,"x_min":49,"x_max":1100,"o":"m 61 504 q 126 704 74 610 q 257 869 178 799 q 435 982 336 940 q 640 1024 533 1024 q 822 986 738 1024 q 968 885 907 949 q 1065 735 1029 821 q 1100 554 1100 650 q 1051 336 1100 439 q 920 156 1001 233 q 733 34 839 79 q 514 -11 628 -11 q 318 29 407 -11 q 167 140 229 69 q 77 303 106 210 q 61 504 49 397 m 232 504 q 242 366 222 431 q 303 253 261 301 q 404 178 344 206 q 538 150 464 150 q 685 181 614 150 q 810 265 756 213 q 897 390 864 318 q 929 540 929 461 q 906 665 929 607 q 842 767 883 724 q 745 835 801 810 q 622 860 689 860 q 483 832 550 860 q 364 756 417 804 q 276 642 311 707 q 232 504 240 578 z "},"g":{"ha":758,"x_min":7,"x_max":700,"o":"m 29 258 q 58 395 29 332 q 133 506 86 458 q 242 579 181 553 q 371 606 304 606 q 453 593 418 606 q 510 565 488 581 q 544 536 533 550 q 557 519 556 522 q 565 553 560 535 q 572 590 569 571 l 700 590 l 632 31 q 592 -103 622 -44 q 514 -202 561 -162 q 405 -262 467 -242 q 272 -283 343 -283 q 178 -272 218 -283 q 108 -243 139 -261 q 53 -203 78 -225 q 7 -158 29 -181 l 103 -68 q 180 -130 139 -104 q 286 -156 221 -156 q 427 -114 371 -156 q 494 4 483 -72 q 496 20 496 11 q 499 39 496 29 q 510 78 507 63 q 476 47 496 64 q 431 17 457 31 q 372 -6 404 3 q 297 -15 339 -15 q 187 6 236 -15 q 102 63 138 26 q 48 150 67 100 q 29 258 29 200 m 164 276 q 208 161 164 207 q 326 115 251 115 q 408 131 369 115 q 473 174 446 147 q 516 238 500 201 q 532 317 532 275 q 488 430 532 385 q 369 475 444 475 q 289 460 326 475 q 224 418 251 444 q 180 355 196 392 q 164 276 164 318 z "},"d":{"ha":760,"x_min":31,"x_max":763,"o":"m 165 276 q 209 161 165 207 q 328 115 253 115 q 409 131 371 115 q 474 174 447 147 q 517 238 501 201 q 533 317 533 275 q 490 430 533 385 q 371 475 446 475 q 290 460 328 475 q 225 418 253 444 q 181 355 197 392 q 165 276 165 318 m 31 257 q 58 397 31 333 q 133 508 86 461 q 242 580 179 554 q 375 606 304 606 q 451 596 419 606 q 504 572 482 586 q 539 542 526 558 q 558 515 551 526 q 564 563 558 521 q 577 667 569 606 q 593 799 585 728 q 609 931 601 869 q 622 1035 617 992 q 629 1085 628 1078 l 763 1085 l 629 0 l 496 0 l 500 39 q 504 54 501 46 q 507 67 507 63 q 472 40 492 54 q 426 13 453 25 q 368 -8 400 0 q 296 -15 336 -15 q 181 6 231 -15 q 99 65 132 28 q 48 151 65 101 q 31 257 31 200 z "},"a":{"ha":757,"x_min":28,"x_max":700,"o":"m 28 258 q 57 390 28 328 q 135 501 86 453 q 248 577 185 549 q 379 606 311 606 q 453 595 421 606 q 507 571 485 585 q 542 542 529 557 q 557 519 554 528 l 572 590 l 700 590 l 628 0 l 493 0 l 499 39 q 500 52 500 46 q 501 61 500 58 q 481 41 496 54 q 440 15 465 28 q 381 -6 415 3 q 304 -15 347 -15 q 190 7 242 -15 q 103 67 139 29 q 47 153 67 104 q 28 258 28 203 m 164 276 q 208 161 164 207 q 326 115 251 115 q 408 131 369 115 q 473 174 446 147 q 516 238 500 201 q 532 317 532 275 q 488 430 532 385 q 369 475 444 475 q 289 460 326 475 q 224 418 251 444 q 180 355 196 392 q 164 276 164 318 z "},"n":{"ha":724,"x_min":33,"x_max":658,"o":"m 106 590 l 224 590 q 220 546 221 565 q 219 509 219 526 q 217 475 218 492 q 215 439 217 458 q 322 560 257 514 q 474 606 386 606 q 611 556 564 606 q 651 428 658 507 l 599 0 l 467 0 l 511 365 q 490 440 514 408 q 408 474 467 471 q 332 459 368 474 q 269 419 296 444 q 224 360 242 394 q 201 285 206 325 l 167 0 l 33 0 l 106 590 z "},"˛":{"ha":676,"x_min":115,"x_max":422,"o":"m 333 -54 q 313 -92 331 -78 q 276 -119 296 -106 q 240 -149 256 -132 q 224 -196 224 -165 q 238 -241 224 -224 q 279 -258 251 -258 q 324 -244 306 -258 q 351 -210 342 -231 q 388 -229 369 -219 q 422 -250 406 -239 q 349 -335 396 -308 q 254 -362 303 -362 q 192 -351 218 -362 q 149 -319 165 -339 q 124 -274 132 -299 q 115 -222 115 -249 q 128 -151 115 -186 q 185 -86 142 -117 q 205 -74 194 -79 q 225 -62 215 -69 q 242 -43 235 -54 q 253 -11 250 -32 l 254 0 l 340 0 l 333 -54 z "},"ˇ":{"ha":618,"x_min":272,"x_max":611,"o":"m 410 676 q 342 804 376 740 q 272 931 308 868 l 371 931 l 429 839 q 445 857 433 844 q 471 884 457 869 q 497 912 485 899 q 513 931 508 925 l 611 931 q 511 804 561 868 q 410 676 461 740 z "},"˝":{"ha":733,"x_min":168,"x_max":769,"o":"m 168 676 q 243 769 206 722 q 319 864 281 817 l 463 864 l 268 676 l 168 676 m 476 676 q 550 769 513 722 q 626 864 588 817 l 769 864 l 575 676 l 476 676 z "},"˙":{"ha":350,"x_min":197,"x_max":363,"o":"m 197 811 q 227 877 197 851 q 290 903 257 903 q 340 881 318 903 q 363 828 363 860 q 354 790 363 807 q 333 761 346 774 q 303 742 319 749 q 271 736 286 736 q 219 756 242 736 q 197 811 197 776 z "},"˘":{"ha":1067,"x_min":247,"x_max":701,"o":"m 451 694 q 367 711 406 694 q 301 757 328 728 q 260 826 274 786 q 251 913 247 867 l 325 913 q 356 808 319 849 q 460 768 393 768 q 571 808 525 768 q 626 913 617 849 l 701 913 q 673 826 696 867 q 616 757 650 786 q 540 711 582 728 q 451 694 497 694 z "},"Ą":{"ha":906,"x_min":-49,"x_max":858,"o":"m 776 0 l 769 -54 q 749 -92 767 -78 q 712 -119 732 -106 q 676 -149 692 -132 q 660 -196 660 -165 q 674 -241 660 -224 q 715 -258 688 -258 q 760 -244 742 -258 q 788 -210 778 -231 q 824 -229 806 -219 q 858 -250 842 -239 q 785 -335 832 -308 q 690 -362 739 -362 q 628 -351 654 -362 q 585 -319 601 -339 q 560 -274 568 -299 q 551 -222 551 -249 q 565 -151 551 -186 q 621 -86 578 -117 q 641 -74 631 -79 q 661 -62 651 -69 q 678 -43 671 -54 q 689 -11 686 -32 l 690 0 l 611 267 l 263 267 q 214 176 238 219 q 172 96 190 132 q 139 35 153 60 q 119 0 125 10 l -49 0 q -15 62 -42 13 q 53 184 13 111 q 142 347 93 257 q 243 529 192 436 q 344 712 294 622 q 433 874 393 801 q 501 997 474 947 q 535 1058 528 1046 q 554 997 539 1046 q 592 874 569 947 q 641 712 614 801 q 697 529 668 622 q 753 347 725 436 q 803 184 781 257 q 840 62 825 111 q 858 0 854 13 l 776 0 m 340 410 l 569 410 q 524 565 543 497 q 499 651 504 632 q 496 671 499 653 q 490 703 493 689 q 478 671 486 689 q 469 651 471 653 l 340 410 z "},"Ł":{"ha":806,"x_min":14,"x_max":758,"o":"m 78 0 l 121 360 l 14 328 l 31 465 l 138 497 l 201 1013 l 372 1013 l 315 549 l 613 638 l 594 500 l 297 411 l 267 161 l 758 161 l 739 0 l 78 0 z "},"Ľ":{"ha":794,"x_min":67,"x_max":747,"o":"m 67 0 l 190 1013 l 361 1013 l 256 161 l 747 161 l 728 0 l 67 0 m 575 797 q 543 814 560 806 q 510 833 526 822 q 561 903 543 861 q 576 993 579 944 l 663 1003 q 643 891 667 944 q 575 797 619 838 z "},"Ś":{"ha":793,"x_min":-11,"x_max":782,"o":"m 782 956 l 704 817 q 594 850 649 838 q 489 863 539 863 q 345 826 400 863 q 290 735 290 790 q 324 669 290 694 q 406 623 357 644 q 513 579 456 601 q 620 524 571 557 q 703 442 669 492 q 736 317 736 392 q 709 185 736 244 q 628 81 682 125 q 492 13 574 38 q 303 -11 411 -11 q 193 -3 242 -11 q 106 18 144 6 q 38 45 67 31 q -11 74 10 60 l 82 222 q 139 193 108 206 q 201 172 169 181 q 262 160 232 164 q 317 156 292 156 q 385 162 343 156 q 468 185 428 168 q 538 230 508 201 q 568 303 568 258 q 535 375 568 346 q 452 427 501 404 q 344 473 403 450 q 237 526 286 496 q 154 601 188 557 q 121 710 121 644 q 145 819 121 764 q 217 919 169 875 q 334 990 264 963 q 497 1018 404 1018 q 599 1009 550 1018 q 688 989 649 1000 q 752 967 726 978 q 782 956 778 957 m 386 1069 q 461 1163 424 1115 q 538 1257 499 1210 l 681 1257 l 486 1069 l 386 1069 z "},"Š":{"ha":793,"x_min":-11,"x_max":782,"o":"m 782 956 l 704 817 q 594 850 649 838 q 489 863 539 863 q 345 826 400 863 q 290 735 290 790 q 324 669 290 694 q 406 623 357 644 q 513 579 456 601 q 620 524 571 557 q 703 442 669 492 q 736 317 736 392 q 709 185 736 244 q 628 81 682 125 q 492 13 574 38 q 303 -11 411 -11 q 193 -3 242 -11 q 106 18 144 6 q 38 45 67 31 q -11 74 10 60 l 82 222 q 139 193 108 206 q 201 172 169 181 q 262 160 232 164 q 317 156 292 156 q 385 162 343 156 q 468 185 428 168 q 538 230 508 201 q 568 303 568 258 q 535 375 568 346 q 452 427 501 404 q 344 473 403 450 q 237 526 286 496 q 154 601 188 557 q 121 710 121 644 q 145 819 121 764 q 217 919 169 875 q 334 990 264 963 q 497 1018 404 1018 q 599 1009 550 1018 q 688 989 649 1000 q 752 967 726 978 q 782 956 778 957 m 481 1035 q 413 1163 447 1099 q 343 1289 379 1226 l 442 1289 l 500 1197 q 516 1215 504 1203 q 542 1242 528 1228 q 567 1270 556 1257 q 583 1289 579 1283 l 682 1289 q 582 1163 632 1226 q 481 1035 532 1099 z "},"Ş":{"ha":794,"x_min":-11,"x_max":782,"o":"m 782 956 l 704 817 q 594 850 649 838 q 489 863 539 863 q 345 826 400 863 q 290 735 290 790 q 324 669 290 694 q 406 623 357 644 q 513 579 456 601 q 620 524 571 557 q 703 442 669 492 q 736 317 736 392 q 713 193 736 250 q 643 94 690 136 q 526 24 596 51 q 363 -8 456 -3 l 363 -11 q 365 -43 360 -32 q 377 -62 369 -54 q 394 -74 385 -69 q 413 -86 404 -79 q 442 -128 433 -104 q 451 -182 451 -153 q 440 -247 451 -215 q 406 -305 429 -279 q 350 -347 383 -331 q 274 -362 317 -362 q 185 -335 225 -362 q 133 -250 146 -308 l 214 -210 q 235 -244 219 -231 q 275 -258 250 -258 q 330 -234 311 -258 q 349 -178 349 -210 q 335 -140 349 -154 q 307 -114 322 -126 q 280 -88 292 -101 q 271 -54 268 -75 l 276 -10 q 176 0 221 -8 q 97 20 132 8 q 35 47 63 32 q -11 74 8 61 l 82 222 q 139 193 108 206 q 201 172 169 181 q 262 160 232 164 q 317 156 292 156 q 385 162 343 156 q 468 185 428 168 q 538 230 508 201 q 568 303 568 258 q 535 375 568 346 q 452 427 501 404 q 344 473 403 450 q 237 526 286 496 q 154 601 188 557 q 121 710 121 644 q 145 819 121 764 q 217 919 169 875 q 334 990 264 963 q 497 1018 404 1018 q 599 1009 550 1018 q 688 989 649 1000 q 752 967 726 978 q 782 956 778 957 z "},"Ť":{"ha":782,"x_min":114,"x_max":800,"o":"m 800 1013 l 781 850 l 529 850 l 425 0 l 254 0 l 358 850 l 114 850 l 135 1013 l 800 1013 m 467 1035 q 399 1163 433 1099 q 329 1289 365 1226 l 428 1289 l 486 1197 q 502 1215 490 1203 q 528 1242 514 1228 q 553 1270 542 1257 q 569 1289 565 1283 l 668 1289 q 568 1163 618 1226 q 467 1035 518 1099 z "},"Ź":{"ha":889,"x_min":-47,"x_max":924,"o":"m 338 1013 l 924 1013 l 271 164 l 829 164 l 808 0 l -47 0 q -5 54 -37 13 q 74 156 28 96 q 176 291 119 217 q 290 442 232 365 q 403 592 347 518 q 506 725 460 665 q 583 826 551 785 q 626 879 615 868 l 250 879 q 206 885 228 879 q 169 904 185 892 q 144 934 153 917 q 138 972 135 951 l 149 1063 l 300 1063 l 299 1044 q 304 1015 294 1017 q 338 1013 314 1013 m 463 1069 q 538 1163 500 1115 q 614 1257 575 1210 l 757 1257 l 563 1069 l 463 1069 z "},"Ž":{"ha":888,"x_min":-49,"x_max":922,"o":"m 336 1013 l 922 1013 l 269 164 l 828 164 l 807 0 l -49 0 q -6 54 -39 13 q 72 156 26 96 q 174 291 118 217 q 288 442 231 365 q 402 592 346 518 q 504 725 458 665 q 582 826 550 785 q 625 879 614 868 l 249 879 q 205 885 226 879 q 167 904 183 892 q 142 934 151 917 q 136 972 133 951 l 147 1063 l 299 1063 l 297 1044 q 303 1015 293 1017 q 336 1013 313 1013 m 525 1035 q 458 1163 492 1099 q 388 1289 424 1226 l 486 1289 l 544 1197 q 560 1215 549 1203 q 586 1242 572 1228 q 612 1270 600 1257 q 628 1289 624 1283 l 726 1289 q 626 1163 676 1226 q 525 1035 576 1099 z "},"Ż":{"ha":889,"x_min":-47,"x_max":924,"o":"m 338 1013 l 924 1013 l 271 164 l 829 164 l 808 0 l -47 0 q -5 54 -37 13 q 74 156 28 96 q 176 291 119 217 q 290 442 232 365 q 403 592 347 518 q 506 725 460 665 q 583 826 551 785 q 626 879 615 868 l 250 879 q 206 885 228 879 q 169 904 185 892 q 144 934 153 917 q 138 972 135 951 l 149 1063 l 300 1063 l 299 1044 q 304 1015 294 1017 q 338 1013 314 1013 m 481 1147 q 510 1213 481 1188 q 574 1239 540 1239 q 624 1217 601 1239 q 646 1164 646 1196 q 638 1126 646 1143 q 616 1097 629 1110 q 586 1078 603 1085 q 554 1072 569 1072 q 503 1092 525 1072 q 481 1147 481 1113 z "},"ą":{"ha":757,"x_min":28,"x_max":700,"o":"m 28 258 q 57 390 28 328 q 135 501 86 453 q 248 577 185 549 q 379 606 311 606 q 453 595 421 606 q 507 571 485 585 q 542 542 529 557 q 557 519 554 528 l 572 590 l 700 590 l 628 0 l 493 0 l 499 39 q 500 52 500 46 q 501 61 500 58 q 481 41 496 54 q 440 15 465 28 q 381 -6 415 3 q 304 -15 347 -15 q 190 7 242 -15 q 103 67 139 29 q 47 153 67 104 q 28 258 28 203 m 164 276 q 208 161 164 207 q 326 115 251 115 q 408 131 369 115 q 473 174 446 147 q 516 238 500 201 q 532 317 532 275 q 488 430 532 385 q 369 475 444 475 q 289 460 326 475 q 224 418 251 444 q 180 355 196 392 q 164 276 164 318 m 579 0 l 493 0 l 492 -11 q 481 -43 489 -32 q 464 -62 474 -54 q 444 -74 454 -69 q 424 -86 433 -79 q 367 -151 381 -117 q 354 -222 354 -186 q 363 -274 354 -249 q 388 -319 371 -299 q 431 -351 404 -339 q 493 -362 457 -362 q 588 -335 542 -362 q 661 -250 635 -308 q 626 -229 644 -239 q 590 -210 608 -219 q 563 -244 581 -231 q 518 -258 544 -258 q 476 -241 490 -258 q 463 -196 463 -224 q 478 -149 463 -165 q 515 -119 494 -132 q 552 -92 535 -106 q 572 -54 569 -78 l 579 0 z "},"ł":{"ha":342,"x_min":17,"x_max":336,"o":"m 175 0 l 43 0 l 86 349 l 17 328 l 33 465 l 103 486 l 176 1085 l 308 1085 l 239 526 l 336 556 l 319 418 l 222 389 l 175 0 z "},"ľ":{"ha":296,"x_min":33,"x_max":481,"o":"m 165 0 l 33 0 l 167 1085 l 299 1085 l 165 0 m 389 797 q 357 814 374 806 q 324 833 340 822 q 375 903 357 861 q 390 993 393 944 l 476 1003 q 457 891 481 944 q 389 797 433 838 z "},"ś":{"ha":486,"x_min":0,"x_max":497,"o":"m 436 538 q 412 509 425 525 q 386 479 399 493 q 365 455 374 465 q 356 444 356 444 q 349 449 356 444 q 331 460 343 454 q 301 470 318 465 q 267 475 285 475 q 221 465 244 475 q 197 424 197 454 q 213 388 197 403 q 253 361 229 374 q 306 335 278 349 q 359 303 335 322 q 399 256 383 283 q 415 189 415 229 q 399 109 415 146 q 351 45 382 72 q 279 3 321 18 q 186 -12 238 -12 q 78 7 129 -12 q 0 63 28 26 q 28 90 13 74 q 59 122 44 107 q 83 148 74 138 q 93 158 93 158 q 101 153 93 160 q 124 139 110 147 q 159 124 139 131 q 201 117 179 117 q 259 134 238 117 q 281 175 281 151 q 265 207 281 194 q 224 231 249 219 q 171 254 199 242 q 118 286 143 267 q 77 335 93 306 q 61 407 61 364 q 82 500 61 463 q 135 560 103 538 q 206 594 168 583 q 276 604 243 604 q 364 587 319 604 q 436 538 408 569 m 203 676 q 278 769 240 722 q 354 864 315 817 l 497 864 l 303 676 l 203 676 z "},"š":{"ha":486,"x_min":0,"x_max":469,"o":"m 436 538 q 412 509 425 525 q 386 479 399 493 q 365 455 374 465 q 356 444 356 444 q 349 449 356 444 q 331 460 343 454 q 301 470 318 465 q 267 475 285 475 q 221 465 244 475 q 197 424 197 454 q 213 388 197 403 q 253 361 229 374 q 306 335 278 349 q 359 303 335 322 q 399 256 383 283 q 415 189 415 229 q 399 109 415 146 q 351 45 382 72 q 279 3 321 18 q 186 -12 238 -12 q 78 7 129 -12 q 0 63 28 26 q 28 90 13 74 q 59 122 44 107 q 83 148 74 138 q 93 158 93 158 q 101 153 93 160 q 124 139 110 147 q 159 124 139 131 q 201 117 179 117 q 259 134 238 117 q 281 175 281 151 q 265 207 281 194 q 224 231 249 219 q 171 254 199 242 q 118 286 143 267 q 77 335 93 306 q 61 407 61 364 q 82 500 61 463 q 135 560 103 538 q 206 594 168 583 q 276 604 243 604 q 364 587 319 604 q 436 538 408 569 m 268 676 q 201 804 235 740 q 131 931 167 868 l 229 931 l 288 839 q 303 857 292 844 q 329 884 315 869 q 355 912 343 899 q 371 931 367 925 l 469 931 q 369 804 419 868 q 268 676 319 740 z "},"ş":{"ha":486,"x_min":0,"x_max":436,"o":"m 436 538 q 412 509 425 525 q 386 479 399 493 q 365 455 374 465 q 356 444 356 444 q 349 449 356 444 q 331 460 343 454 q 301 470 318 465 q 267 475 285 475 q 221 465 244 475 q 197 424 197 454 q 213 388 197 403 q 253 361 229 374 q 306 335 278 349 q 359 303 335 322 q 399 256 383 283 q 415 189 415 229 q 367 60 415 114 q 239 -7 319 7 l 239 -11 q 241 -43 236 -32 q 253 -62 246 -54 q 271 -74 261 -69 q 289 -86 281 -79 q 319 -128 310 -104 q 328 -182 328 -153 q 317 -247 328 -215 q 283 -305 306 -279 q 226 -347 260 -331 q 150 -362 193 -362 q 62 -335 101 -362 q 10 -250 22 -308 l 90 -210 q 111 -244 96 -231 q 151 -258 126 -258 q 206 -234 188 -258 q 225 -178 225 -210 q 212 -140 225 -154 q 183 -114 199 -126 q 156 -88 168 -101 q 147 -54 144 -75 l 153 -10 q 64 14 104 -4 q 0 63 24 32 q 28 90 13 74 q 59 122 44 107 q 83 148 74 138 q 93 158 93 158 q 101 153 93 160 q 124 139 110 147 q 159 124 139 131 q 201 117 179 117 q 259 134 238 117 q 281 175 281 151 q 265 207 281 194 q 224 231 249 219 q 171 254 199 242 q 118 286 143 267 q 77 335 93 306 q 61 407 61 364 q 82 500 61 463 q 135 560 103 538 q 206 594 168 583 q 276 604 243 604 q 364 587 319 604 q 436 538 408 569 z "},"ť":{"ha":439,"x_min":44,"x_max":568,"o":"m 192 849 l 324 849 l 293 590 l 446 590 l 431 471 l 278 471 l 219 0 l 88 0 l 144 471 l 44 471 l 60 590 l 160 590 l 192 849 m 476 797 q 444 814 461 806 q 411 833 428 822 q 463 903 444 861 q 478 993 481 944 l 564 1003 q 544 891 568 944 q 476 797 521 838 z "},"ź":{"ha":629,"x_min":-31,"x_max":617,"o":"m 539 0 l -31 0 l 358 476 l 176 476 q 97 505 128 476 q 71 578 67 533 l 79 646 l 200 646 l 199 628 q 205 596 194 601 q 240 590 215 590 l 617 590 l 242 131 l 556 131 l 539 0 m 297 676 q 372 769 335 722 q 449 864 410 817 l 592 864 l 397 676 l 297 676 z "},"ž":{"ha":629,"x_min":-31,"x_max":617,"o":"m 539 0 l -31 0 l 358 476 l 176 476 q 97 505 128 476 q 71 578 67 533 l 79 646 l 200 646 l 199 628 q 205 596 194 601 q 240 590 215 590 l 617 590 l 242 131 l 556 131 l 539 0 m 360 676 q 292 804 326 740 q 222 931 258 868 l 321 931 l 379 839 q 395 857 383 844 q 421 884 407 869 q 447 912 435 899 q 463 931 458 925 l 561 931 q 461 804 511 868 q 360 676 411 740 z "},"ż":{"ha":629,"x_min":-31,"x_max":617,"o":"m 539 0 l -31 0 l 358 476 l 176 476 q 97 505 128 476 q 71 578 67 533 l 79 646 l 200 646 l 199 628 q 205 596 194 601 q 240 590 215 590 l 617 590 l 242 131 l 556 131 l 539 0 m 292 811 q 322 877 292 851 q 385 903 351 903 q 435 881 413 903 q 457 828 457 860 q 449 790 457 807 q 427 761 440 774 q 397 742 414 749 q 365 736 381 736 q 314 756 336 736 q 292 811 292 776 z "},"Ŕ":{"ha":881,"x_min":67,"x_max":821,"o":"m 67 0 l 190 1013 l 476 1013 q 720 937 631 1013 q 810 726 810 861 q 799 633 810 681 q 766 540 789 585 q 707 458 743 496 q 621 393 671 419 q 669 298 646 344 q 715 205 692 251 q 765 108 739 158 q 821 0 790 57 l 617 0 q 522 185 567 99 q 435 349 476 271 l 421 349 l 279 349 l 236 0 l 67 0 m 299 508 l 435 508 q 532 528 493 508 q 594 578 571 549 q 628 642 618 608 q 638 703 638 675 q 630 753 638 726 q 604 801 622 779 q 555 838 586 824 q 478 853 524 853 l 342 853 l 299 508 m 408 1069 q 483 1163 446 1115 q 560 1257 521 1210 l 703 1257 l 508 1069 l 408 1069 z "},"Ă":{"ha":907,"x_min":-49,"x_max":858,"o":"m 858 0 q 840 62 854 13 q 803 184 825 111 q 753 347 781 257 q 697 529 725 436 q 641 712 668 622 q 592 874 614 801 q 554 997 569 947 q 535 1058 539 1046 q 501 997 528 1046 q 433 874 474 947 q 344 712 393 801 q 243 529 294 622 q 142 347 192 436 q 53 184 93 257 q -15 62 13 111 q -49 0 -42 13 l 119 0 q 139 35 125 10 q 172 96 153 60 q 214 176 190 132 q 263 267 238 219 l 611 267 l 690 0 l 858 0 m 539 1075 q 454 1092 493 1075 q 388 1138 415 1108 q 348 1207 361 1167 q 339 1293 335 1247 l 413 1293 q 444 1189 407 1229 q 547 1149 481 1149 q 658 1189 613 1149 q 714 1293 704 1229 l 789 1293 q 760 1207 783 1247 q 703 1138 738 1167 q 627 1092 669 1108 q 539 1075 585 1075 m 469 651 q 478 671 471 653 q 490 703 486 689 q 496 671 493 689 q 499 651 499 653 q 524 565 504 632 q 569 410 543 497 l 340 410 l 469 651 z "},"Ĺ":{"ha":794,"x_min":67,"x_max":747,"o":"m 67 0 l 190 1013 l 361 1013 l 256 161 l 747 161 l 728 0 l 67 0 m 433 1069 q 508 1163 471 1115 q 585 1257 546 1210 l 728 1257 l 533 1069 l 433 1069 z "},"Ć":{"ha":886,"x_min":60,"x_max":917,"o":"m 839 75 q 790 49 822 64 q 716 20 758 33 q 621 -2 674 7 q 510 -11 568 -11 q 317 25 401 -11 q 176 122 233 61 q 89 266 118 183 q 60 440 60 349 q 109 674 60 567 q 240 858 158 781 q 429 980 322 936 q 653 1024 536 1024 q 737 1017 694 1024 q 815 1001 779 1011 q 878 979 851 992 q 917 953 906 967 q 892 921 901 933 q 874 895 883 908 q 854 865 865 882 q 824 819 843 849 q 785 839 808 831 q 738 852 763 847 q 687 860 713 857 q 640 863 661 863 q 483 831 557 863 q 353 745 408 799 q 266 622 299 692 q 233 479 233 553 q 255 360 233 418 q 317 259 276 303 q 416 189 358 215 q 544 163 474 163 q 631 172 589 163 q 707 192 674 181 q 762 214 740 203 q 785 229 783 225 l 839 75 m 554 1069 q 629 1163 592 1115 q 706 1257 667 1210 l 849 1257 l 654 1069 l 554 1069 z "},"Č":{"ha":886,"x_min":60,"x_max":917,"o":"m 839 75 q 790 49 822 64 q 716 20 758 33 q 621 -2 674 7 q 510 -11 568 -11 q 317 25 401 -11 q 176 122 233 61 q 89 266 118 183 q 60 440 60 349 q 109 674 60 567 q 240 858 158 781 q 429 980 322 936 q 653 1024 536 1024 q 737 1017 694 1024 q 815 1001 779 1011 q 878 979 851 992 q 917 953 906 967 q 892 921 901 933 q 874 895 883 908 q 854 865 865 882 q 824 819 843 849 q 785 839 808 831 q 738 852 763 847 q 687 860 713 857 q 640 863 661 863 q 483 831 557 863 q 353 745 408 799 q 266 622 299 692 q 233 479 233 553 q 255 360 233 418 q 317 259 276 303 q 416 189 358 215 q 544 163 474 163 q 631 172 589 163 q 707 192 674 181 q 762 214 740 203 q 785 229 783 225 l 839 75 m 646 1035 q 578 1163 613 1099 q 508 1289 544 1226 l 607 1289 l 665 1197 q 681 1215 669 1203 q 707 1242 693 1228 q 733 1270 721 1257 q 749 1289 744 1283 l 847 1289 q 747 1163 797 1226 q 646 1035 697 1099 z "},"Ę":{"ha":858,"x_min":67,"x_max":863,"o":"m 758 0 l 67 0 l 190 1013 l 863 1013 l 844 858 l 342 858 l 308 586 l 756 586 l 736 428 l 289 428 l 256 158 l 778 158 l 758 0 m 758 0 l 672 0 l 671 -11 q 660 -43 668 -32 q 643 -62 653 -54 q 623 -74 633 -69 q 603 -86 613 -79 q 547 -151 560 -117 q 533 -222 533 -186 q 542 -274 533 -249 q 567 -319 550 -299 q 610 -351 583 -339 q 672 -362 636 -362 q 767 -335 721 -362 q 840 -250 814 -308 q 806 -229 824 -239 q 769 -210 788 -219 q 742 -244 760 -231 q 697 -258 724 -258 q 656 -241 669 -258 q 642 -196 642 -224 q 658 -149 642 -165 q 694 -119 674 -132 q 731 -92 714 -106 q 751 -54 749 -78 l 758 0 z "},"Ě":{"ha":858,"x_min":67,"x_max":863,"o":"m 67 0 l 190 1013 l 863 1013 l 844 858 l 342 858 l 308 586 l 756 586 l 736 428 l 289 428 l 256 158 l 778 158 l 758 0 l 67 0 m 542 1035 q 474 1163 508 1099 q 404 1289 440 1226 l 503 1289 l 561 1197 q 577 1215 565 1203 q 603 1242 589 1228 q 628 1270 617 1257 q 644 1289 640 1283 l 743 1289 q 643 1163 693 1226 q 542 1035 593 1099 z "},"Ď":{"ha":989,"x_min":67,"x_max":953,"o":"m 192 1013 l 453 1013 q 686 972 590 1013 q 841 867 782 932 q 926 720 900 803 q 953 553 953 638 q 905 323 953 425 q 777 149 857 221 q 594 38 697 76 q 379 0 490 0 l 67 0 l 192 1013 m 372 161 q 533 187 458 161 q 663 262 607 213 q 749 383 718 311 q 781 549 781 456 q 753 687 781 629 q 681 780 725 744 q 583 832 638 815 q 478 849 529 849 l 342 849 q 301 505 322 676 q 257 161 279 333 l 372 161 m 549 1035 q 481 1163 515 1099 q 411 1289 447 1226 l 510 1289 l 568 1197 q 584 1215 572 1203 q 610 1242 596 1228 q 635 1270 624 1257 q 651 1289 647 1283 l 750 1289 q 650 1163 700 1226 q 549 1035 600 1099 z "},"Đ":{"ha":999,"x_min":33,"x_max":963,"o":"m 47 572 l 146 572 l 201 1013 l 463 1013 q 696 972 600 1013 q 851 867 792 932 q 936 720 910 803 q 963 553 963 638 q 915 323 963 425 q 787 149 867 221 q 603 38 707 76 q 389 0 500 0 l 76 0 l 132 458 l 33 458 l 47 572 m 382 161 q 542 187 468 161 q 672 262 617 213 q 759 383 728 311 q 790 549 790 456 q 763 687 790 629 q 691 780 735 744 q 593 832 647 815 q 488 849 539 849 l 351 849 l 318 572 l 467 572 l 453 458 l 304 458 l 267 161 l 382 161 z "},"Ń":{"ha":1124,"x_min":65,"x_max":1083,"o":"m 1083 1013 l 954 -47 q 917 -1 946 -35 q 845 78 888 32 q 751 181 803 125 q 644 295 699 238 q 538 408 590 353 q 444 510 486 464 q 374 590 403 557 q 338 635 344 622 q 328 649 336 638 q 314 671 319 661 q 313 649 313 660 q 313 626 313 638 l 235 0 l 65 0 l 196 1058 q 233 1013 204 1046 q 306 935 263 981 q 401 835 349 889 q 507 724 453 781 q 613 613 561 668 q 708 513 665 558 q 778 436 750 468 q 815 392 807 404 l 838 353 q 839 376 839 364 q 839 400 839 389 l 914 1013 l 1083 1013 m 553 1069 q 628 1163 590 1115 q 704 1257 665 1210 l 847 1257 l 653 1069 l 553 1069 z "},"Ň":{"ha":1124,"x_min":65,"x_max":1083,"o":"m 1083 1013 l 954 -47 q 917 -1 946 -35 q 845 78 888 32 q 751 181 803 125 q 644 295 699 238 q 538 408 590 353 q 444 510 486 464 q 374 590 403 557 q 338 635 344 622 q 328 649 336 638 q 314 671 319 661 q 313 649 313 660 q 313 626 313 638 l 235 0 l 65 0 l 196 1058 q 233 1013 204 1046 q 306 935 263 981 q 401 835 349 889 q 507 724 453 781 q 613 613 561 668 q 708 513 665 558 q 778 436 750 468 q 815 392 807 404 l 838 353 q 839 376 839 364 q 839 400 839 389 l 914 1013 l 1083 1013 m 619 1035 q 552 1163 586 1099 q 482 1289 518 1226 l 581 1289 l 639 1197 q 655 1215 643 1203 q 681 1242 667 1228 q 706 1270 694 1257 q 722 1289 718 1283 l 821 1289 q 721 1163 771 1226 q 619 1035 671 1099 z "},"Ő":{"ha":1132,"x_min":49,"x_max":1100,"o":"m 61 504 q 126 704 74 610 q 257 869 178 799 q 435 982 336 940 q 640 1024 533 1024 q 822 986 738 1024 q 968 885 907 949 q 1065 735 1029 821 q 1100 554 1100 650 q 1051 336 1100 439 q 920 156 1001 233 q 733 34 839 79 q 514 -11 628 -11 q 318 29 407 -11 q 167 140 229 69 q 77 303 106 210 q 61 504 49 397 m 232 504 q 242 366 222 431 q 303 253 261 301 q 404 178 344 206 q 538 150 464 150 q 685 181 614 150 q 810 265 756 213 q 897 390 864 318 q 929 540 929 461 q 906 665 929 607 q 842 767 883 724 q 745 835 801 810 q 622 860 689 860 q 483 832 550 860 q 364 756 417 804 q 276 642 311 707 q 232 504 240 578 m 432 1063 q 507 1156 469 1108 q 583 1250 544 1203 l 726 1250 l 532 1063 l 432 1063 m 740 1063 q 814 1156 776 1108 q 890 1250 851 1203 l 1033 1250 l 839 1063 l 740 1063 z "},"Ř":{"ha":881,"x_min":67,"x_max":821,"o":"m 67 0 l 190 1013 l 476 1013 q 720 937 631 1013 q 810 726 810 861 q 799 633 810 681 q 766 540 789 585 q 707 458 743 496 q 621 393 671 419 q 669 298 646 344 q 715 205 692 251 q 765 108 739 158 q 821 0 790 57 l 617 0 q 522 185 567 99 q 435 349 476 271 l 421 349 l 279 349 l 236 0 l 67 0 m 299 508 l 435 508 q 532 528 493 508 q 594 578 571 549 q 628 642 618 608 q 638 703 638 675 q 630 753 638 726 q 604 801 622 779 q 555 838 586 824 q 478 853 524 853 l 342 853 l 299 508 m 494 1035 q 427 1163 461 1099 q 357 1289 393 1226 l 456 1289 l 514 1197 q 530 1215 518 1203 q 556 1242 542 1228 q 581 1270 569 1257 q 597 1289 593 1283 l 696 1289 q 596 1163 646 1226 q 494 1035 546 1099 z "},"Ů":{"ha":997,"x_min":90,"x_max":968,"o":"m 558 1181 q 569 1152 558 1164 q 599 1140 581 1140 q 635 1155 619 1140 q 650 1190 650 1169 q 639 1221 650 1210 q 610 1232 628 1232 q 573 1217 588 1232 q 558 1181 558 1203 m 481 1175 q 492 1226 481 1201 q 523 1268 504 1250 q 567 1297 542 1286 q 619 1308 592 1308 q 695 1276 664 1308 q 726 1199 726 1243 q 715 1147 726 1171 q 684 1104 703 1122 q 640 1075 665 1086 q 589 1064 615 1064 q 511 1097 542 1064 q 481 1175 481 1129 m 447 -11 q 297 16 365 -11 q 181 92 228 43 q 113 209 135 140 q 101 361 90 278 l 181 1013 l 351 1013 l 271 365 q 278 282 265 321 q 317 214 290 243 q 381 167 343 185 q 467 150 419 150 q 557 167 514 150 q 634 214 600 185 q 690 282 668 243 q 718 365 713 321 l 797 1013 l 968 1013 l 888 361 q 838 209 878 278 q 740 92 799 140 q 605 16 681 43 q 447 -11 529 -11 z "},"Ű":{"ha":997,"x_min":90,"x_max":968,"o":"m 447 -11 q 297 16 365 -11 q 181 92 228 43 q 113 209 135 140 q 101 361 90 278 l 181 1013 l 351 1013 l 271 365 q 278 282 265 321 q 317 214 290 243 q 381 167 343 185 q 467 150 419 150 q 557 167 514 150 q 634 214 600 185 q 690 282 668 243 q 718 365 713 321 l 797 1013 l 968 1013 l 888 361 q 838 209 878 278 q 740 92 799 140 q 605 16 681 43 q 447 -11 529 -11 m 347 1063 q 422 1156 385 1108 q 499 1250 460 1203 l 642 1250 l 447 1063 l 347 1063 m 656 1063 q 729 1156 692 1108 q 806 1250 767 1203 l 949 1250 l 754 1063 l 656 1063 z "},"Ţ":{"ha":782,"x_min":114,"x_max":800,"o":"m 800 1013 l 781 850 l 529 850 l 425 0 l 254 0 l 358 850 l 114 850 l 135 1013 l 800 1013 m 425 -29 l 267 -321 l 139 -321 l 283 -29 l 425 -29 z "},"ŕ":{"ha":450,"x_min":33,"x_max":483,"o":"m 417 433 q 342 424 379 433 q 275 394 306 414 q 224 344 244 374 q 199 274 204 314 l 167 0 l 33 0 l 106 590 l 224 590 q 220 546 221 565 q 219 509 219 526 q 217 475 218 492 q 215 439 217 458 q 273 508 239 478 q 343 560 307 539 q 413 594 379 582 q 468 606 446 606 l 417 433 m 189 676 q 264 769 226 722 q 340 864 301 817 l 483 864 l 289 676 l 189 676 z "},"ă":{"ha":757,"x_min":28,"x_max":700,"o":"m 28 258 q 57 390 28 328 q 135 501 86 453 q 248 577 185 549 q 379 606 311 606 q 453 595 421 606 q 507 571 485 585 q 542 542 529 557 q 557 519 554 528 l 572 590 l 700 590 l 628 0 l 493 0 l 499 39 q 500 52 500 46 q 501 61 500 58 q 481 41 496 54 q 440 15 465 28 q 381 -6 415 3 q 304 -15 347 -15 q 190 7 242 -15 q 103 67 139 29 q 47 153 67 104 q 28 258 28 203 m 164 276 q 208 161 164 207 q 326 115 251 115 q 408 131 369 115 q 473 174 446 147 q 516 238 500 201 q 532 317 532 275 q 488 430 532 385 q 369 475 444 475 q 289 460 326 475 q 224 418 251 444 q 180 355 196 392 q 164 276 164 318 m 421 694 q 336 711 375 694 q 270 757 297 728 q 230 826 243 786 q 221 913 217 867 l 294 913 q 326 808 289 849 q 429 768 363 768 q 540 808 494 768 q 596 913 586 849 l 671 913 q 642 826 665 867 q 585 757 619 786 q 509 711 551 728 q 421 694 467 694 z "},"ĺ":{"ha":296,"x_min":33,"x_max":471,"o":"m 165 0 l 33 0 l 167 1085 l 299 1085 l 165 0 m 176 1108 q 251 1201 214 1154 q 328 1296 289 1249 l 471 1296 l 276 1108 l 176 1108 z "},"ć":{"ha":583,"x_min":28,"x_max":583,"o":"m 443 154 q 478 103 463 128 q 513 54 493 79 q 416 3 468 22 q 307 -15 364 -15 q 195 7 246 -15 q 107 67 144 29 q 49 156 69 106 q 28 264 28 207 q 57 395 28 333 q 135 504 86 457 q 248 578 183 551 q 383 606 313 606 q 490 587 442 606 q 575 536 538 568 l 478 438 q 367 475 436 475 q 285 460 322 475 q 219 418 247 444 q 176 355 192 392 q 161 276 161 318 q 204 162 161 208 q 322 115 247 115 q 443 154 392 115 m 289 676 q 364 769 326 722 q 440 864 401 817 l 583 864 l 389 676 l 289 676 z "},"č":{"ha":583,"x_min":28,"x_max":576,"o":"m 443 154 q 478 103 463 128 q 513 54 493 79 q 416 3 468 22 q 307 -15 364 -15 q 195 7 246 -15 q 107 67 144 29 q 49 156 69 106 q 28 264 28 207 q 57 395 28 333 q 135 504 86 457 q 248 578 183 551 q 383 606 313 606 q 490 587 442 606 q 575 536 538 568 l 478 438 q 367 475 436 475 q 285 460 322 475 q 219 418 247 444 q 176 355 192 392 q 161 276 161 318 q 204 162 161 208 q 322 115 247 115 q 443 154 392 115 m 375 676 q 308 804 342 740 q 238 931 274 868 l 336 931 l 394 839 q 410 857 399 844 q 436 884 422 869 q 462 912 450 899 q 478 931 474 925 l 576 931 q 476 804 526 868 q 375 676 426 740 z "},"ę":{"ha":651,"x_min":28,"x_max":633,"o":"m 347 0 l 261 0 l 260 -11 q 165 22 208 -3 q 92 83 122 46 q 44 166 61 119 q 28 264 28 213 q 57 395 28 333 q 135 503 86 457 q 248 577 185 550 q 378 604 311 604 q 546 544 478 604 q 633 385 614 485 q 532 348 589 369 q 413 303 475 326 q 288 255 350 279 q 172 211 225 231 q 228 142 189 168 q 319 115 267 115 q 394 128 356 115 q 458 164 432 142 l 546 68 q 453 15 506 35 q 346 -12 400 -6 l 347 0 m 307 -15 q 260 -11 282 -15 q 249 -43 257 -32 q 232 -62 242 -54 q 212 -74 222 -69 q 192 -86 201 -79 q 135 -151 149 -117 q 122 -222 122 -186 q 131 -274 122 -249 q 156 -319 139 -299 q 199 -351 172 -339 q 261 -362 225 -362 q 356 -335 310 -362 q 429 -250 403 -308 q 394 -229 413 -239 q 358 -210 376 -219 q 331 -244 349 -231 q 286 -258 313 -258 q 244 -241 258 -258 q 231 -196 231 -224 q 247 -149 231 -165 q 283 -119 263 -132 q 320 -92 303 -106 q 340 -54 338 -78 l 346 -12 q 326 -15 335 -14 q 307 -15 317 -15 m 472 415 q 427 460 458 446 q 364 475 396 475 q 290 460 325 475 q 227 419 254 444 q 183 362 200 394 q 163 296 165 329 q 240 326 199 310 q 324 358 282 342 q 404 390 365 375 q 472 415 443 404 m 163 296 l 163 294 q 163 292 163 292 q 163 296 164 293 z "},"ě":{"ha":651,"x_min":28,"x_max":633,"o":"m 546 68 q 433 7 497 29 q 307 -15 369 -15 q 195 7 246 -15 q 107 67 144 29 q 49 156 69 106 q 28 264 28 207 q 57 395 28 333 q 135 503 86 457 q 248 577 185 550 q 378 604 311 604 q 546 544 478 604 q 633 385 614 485 q 532 348 589 369 q 413 303 475 326 q 288 255 350 279 q 172 211 225 231 q 228 142 189 168 q 319 115 267 115 q 394 128 356 115 q 458 164 432 142 l 546 68 m 363 676 q 295 804 329 740 q 225 931 261 868 l 324 931 l 382 839 q 398 857 386 844 q 424 884 410 869 q 449 912 438 899 q 465 931 461 925 l 564 931 q 464 804 514 868 q 363 676 414 740 m 472 415 q 427 460 458 446 q 364 475 396 475 q 290 460 325 475 q 227 419 254 444 q 183 362 200 394 q 163 296 165 329 q 240 326 199 310 q 324 358 282 342 q 404 390 365 375 q 472 415 443 404 m 163 296 l 163 294 q 163 292 163 292 q 163 296 164 293 z "},"ď":{"ha":760,"x_min":31,"x_max":944,"o":"m 31 257 q 58 397 31 333 q 133 508 86 461 q 242 580 179 554 q 375 606 304 606 q 451 596 419 606 q 504 572 482 586 q 539 542 526 558 q 558 515 551 526 q 564 563 558 521 q 577 667 569 606 q 593 799 585 728 q 609 931 601 869 q 622 1035 617 992 q 629 1085 628 1078 l 763 1085 l 629 0 l 496 0 l 500 39 q 504 54 501 46 q 507 67 507 63 q 472 40 492 54 q 426 13 453 25 q 368 -8 400 0 q 296 -15 336 -15 q 181 6 231 -15 q 99 65 132 28 q 48 151 65 101 q 31 257 31 200 m 165 276 q 209 161 165 207 q 328 115 253 115 q 409 131 371 115 q 474 174 447 147 q 517 238 501 201 q 533 317 533 275 q 490 430 533 385 q 371 475 446 475 q 290 460 328 475 q 225 418 253 444 q 181 355 197 392 q 165 276 165 318 m 853 797 q 821 814 838 806 q 788 833 804 822 q 839 903 821 861 q 854 993 857 944 l 940 1003 q 921 891 944 944 q 853 797 897 838 z "},"đ":{"ha":760,"x_min":31,"x_max":825,"o":"m 31 257 q 58 397 31 333 q 133 508 86 461 q 242 580 179 554 q 375 606 304 606 q 451 596 419 606 q 504 572 482 586 q 539 542 526 558 q 558 515 551 526 l 597 839 l 732 839 l 629 0 l 496 0 l 500 39 q 504 54 501 46 q 507 67 507 63 q 472 40 492 54 q 426 13 453 25 q 368 -8 400 0 q 296 -15 336 -15 q 181 6 231 -15 q 99 65 132 28 q 48 151 65 101 q 31 257 31 200 m 165 276 q 209 161 165 207 q 328 115 253 115 q 409 131 371 115 q 474 174 447 147 q 517 238 501 201 q 533 317 533 275 q 490 430 533 385 q 371 475 446 475 q 290 460 328 475 q 225 418 253 444 q 181 355 197 392 q 165 276 165 318 m 390 839 l 597 839 l 613 953 l 404 953 l 390 839 m 629 1085 l 763 1085 l 746 953 l 613 953 l 629 1085 m 811 839 l 825 953 l 746 953 l 732 839 l 811 839 z "},"ń":{"ha":724,"x_min":33,"x_max":658,"o":"m 106 590 l 224 590 q 220 546 221 565 q 219 509 219 526 q 217 475 218 492 q 215 439 217 458 q 322 560 257 514 q 474 606 386 606 q 611 556 564 606 q 651 428 658 507 l 599 0 l 467 0 l 511 365 q 490 440 514 408 q 408 474 467 471 q 332 459 368 474 q 269 419 296 444 q 224 360 242 394 q 201 285 206 325 l 167 0 l 33 0 l 106 590 m 349 676 q 424 769 386 722 q 500 864 461 817 l 643 864 l 449 676 l 349 676 z "},"ň":{"ha":724,"x_min":33,"x_max":658,"o":"m 106 590 l 224 590 q 220 546 221 565 q 219 509 219 526 q 217 475 218 492 q 215 439 217 458 q 322 560 257 514 q 474 606 386 606 q 611 556 564 606 q 651 428 658 507 l 599 0 l 467 0 l 511 365 q 490 440 514 408 q 408 474 467 471 q 332 459 368 474 q 269 419 296 444 q 224 360 242 394 q 201 285 206 325 l 167 0 l 33 0 l 106 590 m 410 676 q 342 804 376 740 q 272 931 308 868 l 371 931 l 429 839 q 445 857 433 844 q 471 884 457 869 q 497 912 485 899 q 513 931 508 925 l 611 931 q 511 804 561 868 q 410 676 461 740 z "},"ő":{"ha":713,"x_min":22,"x_max":747,"o":"m 31 296 q 69 416 38 360 q 149 514 101 472 q 258 580 197 556 q 385 604 318 604 q 497 583 446 604 q 583 524 547 561 q 640 436 619 486 q 660 328 660 386 q 632 196 660 258 q 556 87 604 133 q 444 13 508 40 q 307 -15 379 -15 q 188 7 242 -15 q 96 70 133 29 q 40 169 58 111 q 31 296 22 226 m 163 294 q 169 224 158 257 q 200 167 179 192 q 252 129 221 143 q 321 115 283 115 q 397 131 360 115 q 462 174 433 147 q 507 237 490 201 q 524 313 524 272 q 511 376 524 346 q 477 428 499 406 q 426 463 456 450 q 364 475 397 475 q 292 460 326 475 q 230 422 257 446 q 185 365 203 397 q 163 294 167 332 m 146 676 q 221 769 183 722 q 297 864 258 817 l 440 864 l 246 676 l 146 676 m 454 676 q 528 769 490 722 q 604 864 565 817 l 747 864 l 553 676 l 454 676 z "},"ř":{"ha":450,"x_min":33,"x_max":492,"o":"m 417 433 q 342 424 379 433 q 275 394 306 414 q 224 344 244 374 q 199 274 204 314 l 167 0 l 33 0 l 106 590 l 224 590 q 220 546 221 565 q 219 509 219 526 q 217 475 218 492 q 215 439 217 458 q 273 508 239 478 q 343 560 307 539 q 413 594 379 582 q 468 606 446 606 l 417 433 m 290 676 q 223 804 257 740 q 153 931 189 868 l 251 931 l 310 839 q 326 857 314 844 q 351 884 338 869 q 377 912 365 899 q 393 931 389 925 l 492 931 q 392 804 442 868 q 290 676 342 740 z "},"ů":{"ha":724,"x_min":40,"x_max":665,"o":"m 361 764 q 372 735 361 747 q 401 724 383 724 q 438 738 422 724 q 454 774 454 753 q 443 804 454 793 q 413 815 432 815 q 376 801 392 815 q 361 764 361 786 m 283 758 q 295 809 283 785 q 326 851 307 833 q 371 881 346 869 q 422 892 396 892 q 499 859 468 892 q 531 782 531 826 q 519 730 531 754 q 488 688 507 706 q 444 658 469 669 q 393 647 419 647 q 315 680 346 647 q 283 758 283 713 m 592 -14 l 479 -14 l 483 150 q 381 33 443 79 q 226 -14 318 -14 q 88 34 135 -14 q 47 161 40 82 l 100 590 l 232 590 l 189 224 q 209 151 185 181 q 293 118 233 121 q 369 132 333 118 q 431 171 404 146 q 476 231 458 196 q 499 306 493 265 l 533 590 l 665 590 l 592 -14 z "},"ű":{"ha":724,"x_min":40,"x_max":750,"o":"m 592 -14 l 479 -14 l 483 150 q 381 33 443 79 q 226 -14 318 -14 q 88 34 135 -14 q 47 161 40 82 l 100 590 l 232 590 l 189 224 q 209 151 185 181 q 293 118 233 121 q 369 132 333 118 q 431 171 404 146 q 476 231 458 196 q 499 306 493 265 l 533 590 l 665 590 l 592 -14 m 149 676 q 224 769 186 722 q 300 864 261 817 l 443 864 l 249 676 l 149 676 m 457 676 q 531 769 493 722 q 607 864 568 817 l 750 864 l 556 676 l 457 676 z "},"ţ":{"ha":439,"x_min":-40,"x_max":446,"o":"m 192 849 l 324 849 l 293 590 l 446 590 l 431 471 l 278 471 l 219 0 l 88 0 l 144 471 l 44 471 l 60 590 l 160 590 l 192 849 m 246 -29 l 88 -321 l -40 -321 l 104 -29 l 246 -29 z "},"Ħ":{"ha":1074,"x_min":56,"x_max":1107,"o":"m 76 0 l 165 725 l 56 725 l 65 814 l 176 814 l 201 1013 l 371 1013 l 346 814 l 829 814 l 854 1013 l 1026 1013 l 1001 814 l 1107 814 l 1097 725 l 990 725 l 901 0 l 731 0 l 783 428 l 300 428 l 247 0 l 76 0 m 803 590 l 819 725 l 336 725 l 319 590 l 803 590 z "},"Ĥ":{"ha":1056,"x_min":67,"x_max":1017,"o":"m 67 0 l 192 1013 l 361 1013 l 310 590 l 793 590 l 844 1013 l 1017 1013 l 892 0 l 721 0 l 774 428 l 290 428 l 238 0 l 67 0 m 640 1325 l 778 1071 l 679 1071 q 667 1090 676 1076 q 649 1117 658 1103 q 632 1145 640 1132 q 621 1164 624 1158 q 605 1145 617 1158 q 580 1117 593 1132 q 555 1090 567 1103 q 539 1071 543 1076 l 439 1071 l 640 1325 z "},"İ":{"ha":401,"x_min":67,"x_max":376,"o":"m 192 1013 l 361 1013 l 238 0 l 67 0 l 192 1013 m 211 1153 q 241 1219 211 1193 q 304 1244 271 1244 q 354 1223 332 1244 q 376 1169 376 1201 q 368 1132 376 1149 q 347 1103 360 1115 q 317 1084 333 1090 q 285 1078 300 1078 q 233 1098 256 1078 q 211 1153 211 1118 z "},"Ğ":{"ha":954,"x_min":58,"x_max":946,"o":"m 894 492 l 842 61 q 694 8 779 26 q 524 -11 610 -11 q 327 22 414 -11 q 181 113 240 54 q 90 251 121 171 q 58 426 58 332 q 109 667 58 557 q 244 856 160 776 q 438 979 329 935 q 661 1024 546 1024 q 737 1019 697 1024 q 814 1004 776 1014 q 885 981 851 994 q 946 950 919 968 l 846 811 q 803 833 828 824 q 749 849 778 842 q 692 859 721 856 q 639 863 664 863 q 490 831 564 863 q 360 746 417 800 q 267 618 303 692 q 232 461 232 544 q 254 342 232 399 q 317 242 276 285 q 417 175 358 200 q 547 150 475 150 q 617 155 575 150 q 697 172 658 160 l 719 344 l 531 344 l 549 492 l 894 492 m 653 1068 q 568 1085 607 1068 q 502 1131 529 1101 q 462 1200 475 1160 q 453 1286 449 1240 l 526 1286 q 558 1182 521 1222 q 661 1142 594 1142 q 772 1182 726 1142 q 828 1286 818 1222 l 903 1286 q 874 1200 897 1240 q 817 1131 851 1160 q 741 1085 783 1101 q 653 1068 699 1068 z "},"Ĵ":{"ha":476,"x_min":-100,"x_max":528,"o":"m -100 -210 l -81 -49 q 85 15 17 -43 q 169 201 153 74 l 268 1013 l 440 1013 l 340 197 q 290 27 328 101 q 193 -99 251 -47 q 60 -179 135 -151 q -100 -210 -15 -207 m 390 1325 l 528 1071 l 429 1071 q 417 1090 426 1076 q 399 1117 408 1103 q 382 1145 390 1132 q 371 1164 374 1158 q 355 1145 367 1158 q 330 1117 343 1132 q 305 1090 317 1103 q 289 1071 293 1076 l 189 1071 l 390 1325 z "},"ħ":{"ha":722,"x_min":32,"x_max":658,"o":"m 165 1085 l 299 1085 l 268 847 l 472 847 l 463 757 l 257 757 l 219 447 q 320 561 260 518 q 468 606 381 604 q 609 557 560 606 q 650 428 658 508 l 597 0 l 465 0 l 510 365 q 489 440 513 408 q 407 474 465 471 q 331 459 367 474 q 267 419 294 444 q 222 360 240 394 q 200 285 204 325 l 165 0 l 32 0 l 125 757 l 38 757 l 47 847 l 136 847 l 165 1085 z "},"ĥ":{"ha":724,"x_min":33,"x_max":692,"o":"m 167 1085 l 300 1085 l 221 447 q 322 561 261 518 q 469 606 382 604 q 610 557 561 606 q 651 428 660 508 l 599 0 l 467 0 l 511 365 q 490 440 514 408 q 408 474 467 471 q 332 459 368 474 q 269 419 296 444 q 224 360 242 394 q 201 285 206 325 l 167 0 l 33 0 l 167 1085 m 554 1325 l 692 1071 l 593 1071 q 581 1090 590 1076 q 563 1117 572 1103 q 546 1145 554 1132 q 535 1164 538 1158 q 519 1145 531 1158 q 494 1117 507 1132 q 469 1090 481 1103 q 453 1071 457 1076 l 353 1071 l 554 1325 z "},"ı":{"ha":297,"x_min":33,"x_max":239,"o":"m 167 0 l 33 0 l 106 590 l 239 590 l 167 0 z "},"ğ":{"ha":758,"x_min":7,"x_max":700,"o":"m 29 258 q 58 395 29 332 q 133 506 86 458 q 242 579 181 553 q 371 606 304 606 q 453 593 418 606 q 510 565 488 581 q 544 536 533 550 q 557 519 556 522 q 565 553 560 535 q 572 590 569 571 l 700 590 l 632 31 q 592 -103 622 -44 q 514 -202 561 -162 q 405 -262 467 -242 q 272 -283 343 -283 q 178 -272 218 -283 q 108 -243 139 -261 q 53 -203 78 -225 q 7 -158 29 -181 l 103 -68 q 180 -130 139 -104 q 286 -156 221 -156 q 427 -114 371 -156 q 494 4 483 -72 q 496 20 496 11 q 499 39 496 29 q 510 78 507 63 q 476 47 496 64 q 431 17 457 31 q 372 -6 404 3 q 297 -15 339 -15 q 187 6 236 -15 q 102 63 138 26 q 48 150 67 100 q 29 258 29 200 m 164 276 q 208 161 164 207 q 326 115 251 115 q 408 131 369 115 q 473 174 446 147 q 516 238 500 201 q 532 317 532 275 q 488 430 532 385 q 369 475 444 475 q 289 460 326 475 q 224 418 251 444 q 180 355 196 392 q 164 276 164 318 m 428 694 q 343 711 382 694 q 277 757 304 728 q 237 826 250 786 q 228 913 224 867 l 301 913 q 333 808 296 849 q 436 768 369 768 q 547 808 501 768 q 603 913 593 849 l 678 913 q 649 826 672 867 q 592 757 626 786 q 516 711 558 728 q 428 694 474 694 z "},"ĵ":{"ha":293,"x_min":-76,"x_max":347,"o":"m 4 -285 q -37 -235 -17 -258 q -76 -185 -57 -211 q -3 -106 -32 -153 q 33 6 25 -60 l 104 590 l 236 590 l 164 0 q 110 -167 153 -96 q 4 -285 68 -237 m 210 931 l 347 676 l 249 676 q 237 695 246 682 q 219 723 228 708 q 201 751 210 738 q 190 769 193 764 q 174 751 186 764 q 149 723 163 738 q 124 695 136 708 q 108 676 113 682 l 8 676 l 210 931 z "},"Ċ":{"ha":886,"x_min":60,"x_max":917,"o":"m 839 75 q 790 49 822 64 q 716 20 758 33 q 621 -2 674 7 q 510 -11 568 -11 q 317 25 401 -11 q 176 122 233 61 q 89 266 118 183 q 60 440 60 349 q 109 674 60 567 q 240 858 158 781 q 429 980 322 936 q 653 1024 536 1024 q 737 1017 694 1024 q 815 1001 779 1011 q 878 979 851 992 q 917 953 906 967 q 892 921 901 933 q 874 895 883 908 q 854 865 865 882 q 824 819 843 849 q 785 839 808 831 q 738 852 763 847 q 687 860 713 857 q 640 863 661 863 q 483 831 557 863 q 353 745 408 799 q 266 622 299 692 q 233 479 233 553 q 255 360 233 418 q 317 259 276 303 q 416 189 358 215 q 544 163 474 163 q 631 172 589 163 q 707 192 674 181 q 762 214 740 203 q 785 229 783 225 l 839 75 m 561 1140 q 591 1206 561 1181 q 654 1232 621 1232 q 704 1210 682 1232 q 726 1157 726 1189 q 718 1119 726 1136 q 697 1090 710 1103 q 667 1072 683 1078 q 635 1065 650 1065 q 583 1085 606 1065 q 561 1140 561 1106 z "},"Ĉ":{"ha":886,"x_min":60,"x_max":917,"o":"m 839 75 q 790 49 822 64 q 716 20 758 33 q 621 -2 674 7 q 510 -11 568 -11 q 317 25 401 -11 q 176 122 233 61 q 89 266 118 183 q 60 440 60 349 q 109 674 60 567 q 240 858 158 781 q 429 980 322 936 q 653 1024 536 1024 q 737 1017 694 1024 q 815 1001 779 1011 q 878 979 851 992 q 917 953 906 967 q 892 921 901 933 q 874 895 883 908 q 854 865 865 882 q 824 819 843 849 q 785 839 808 831 q 738 852 763 847 q 687 860 713 857 q 640 863 661 863 q 483 831 557 863 q 353 745 408 799 q 266 622 299 692 q 233 479 233 553 q 255 360 233 418 q 317 259 276 303 q 416 189 358 215 q 544 163 474 163 q 631 172 589 163 q 707 192 674 181 q 762 214 740 203 q 785 229 783 225 l 839 75 m 661 1325 l 799 1071 l 700 1071 q 688 1090 697 1076 q 670 1117 679 1103 q 653 1145 661 1132 q 642 1164 644 1158 q 626 1145 638 1158 q 601 1117 614 1132 q 576 1090 588 1103 q 560 1071 564 1076 l 460 1071 l 661 1325 z "},"Ġ":{"ha":954,"x_min":58,"x_max":946,"o":"m 894 492 l 842 61 q 694 8 779 26 q 524 -11 610 -11 q 327 22 414 -11 q 181 113 240 54 q 90 251 121 171 q 58 426 58 332 q 109 667 58 557 q 244 856 160 776 q 438 979 329 935 q 661 1024 546 1024 q 737 1019 697 1024 q 814 1004 776 1014 q 885 981 851 994 q 946 950 919 968 l 846 811 q 803 833 828 824 q 749 849 778 842 q 692 859 721 856 q 639 863 664 863 q 490 831 564 863 q 360 746 417 800 q 267 618 303 692 q 232 461 232 544 q 254 342 232 399 q 317 242 276 285 q 417 175 358 200 q 547 150 475 150 q 617 155 575 150 q 697 172 658 160 l 719 344 l 531 344 l 549 492 l 894 492 m 544 1140 q 574 1206 544 1181 q 638 1232 604 1232 q 688 1210 665 1232 q 710 1157 710 1189 q 701 1119 710 1136 q 680 1090 693 1103 q 650 1072 667 1078 q 618 1065 633 1065 q 567 1085 589 1065 q 544 1140 544 1106 z "},"Ĝ":{"ha":954,"x_min":58,"x_max":946,"o":"m 894 492 l 842 61 q 694 8 779 26 q 524 -11 610 -11 q 327 22 414 -11 q 181 113 240 54 q 90 251 121 171 q 58 426 58 332 q 109 667 58 557 q 244 856 160 776 q 438 979 329 935 q 661 1024 546 1024 q 737 1019 697 1024 q 814 1004 776 1014 q 885 981 851 994 q 946 950 919 968 l 846 811 q 803 833 828 824 q 749 849 778 842 q 692 859 721 856 q 639 863 664 863 q 490 831 564 863 q 360 746 417 800 q 267 618 303 692 q 232 461 232 544 q 254 342 232 399 q 317 242 276 285 q 417 175 358 200 q 547 150 475 150 q 617 155 575 150 q 697 172 658 160 l 719 344 l 531 344 l 549 492 l 894 492 m 685 1325 l 822 1071 l 724 1071 q 712 1090 721 1076 q 694 1117 703 1103 q 676 1145 685 1132 q 665 1164 668 1158 q 649 1145 661 1158 q 624 1117 638 1132 q 599 1090 611 1103 q 583 1071 588 1076 l 483 1071 l 685 1325 z "},"Ŭ":{"ha":997,"x_min":90,"x_max":968,"o":"m 447 -11 q 297 16 365 -11 q 181 92 228 43 q 113 209 135 140 q 101 361 90 278 l 181 1013 l 351 1013 l 271 365 q 278 282 265 321 q 317 214 290 243 q 381 167 343 185 q 467 150 419 150 q 557 167 514 150 q 634 214 600 185 q 690 282 668 243 q 718 365 713 321 l 797 1013 l 968 1013 l 888 361 q 838 209 878 278 q 740 92 799 140 q 605 16 681 43 q 447 -11 529 -11 m 583 1068 q 499 1085 538 1068 q 433 1131 460 1101 q 392 1200 406 1160 q 383 1286 379 1240 l 457 1286 q 488 1182 451 1222 q 592 1142 525 1142 q 703 1182 657 1142 q 758 1286 749 1222 l 833 1286 q 805 1200 828 1240 q 748 1131 782 1160 q 672 1085 714 1101 q 583 1068 629 1068 z "},"Ŝ":{"ha":793,"x_min":-11,"x_max":782,"o":"m 782 956 l 704 817 q 594 850 649 838 q 489 863 539 863 q 345 826 400 863 q 290 735 290 790 q 324 669 290 694 q 406 623 357 644 q 513 579 456 601 q 620 524 571 557 q 703 442 669 492 q 736 317 736 392 q 709 185 736 244 q 628 81 682 125 q 492 13 574 38 q 303 -11 411 -11 q 193 -3 242 -11 q 106 18 144 6 q 38 45 67 31 q -11 74 10 60 l 82 222 q 139 193 108 206 q 201 172 169 181 q 262 160 232 164 q 317 156 292 156 q 385 162 343 156 q 468 185 428 168 q 538 230 508 201 q 568 303 568 258 q 535 375 568 346 q 452 427 501 404 q 344 473 403 450 q 237 526 286 496 q 154 601 188 557 q 121 710 121 644 q 145 819 121 764 q 217 919 169 875 q 334 990 264 963 q 497 1018 404 1018 q 599 1009 550 1018 q 688 989 649 1000 q 752 967 726 978 q 782 956 778 957 m 522 1325 l 660 1071 l 561 1071 q 549 1090 558 1076 q 531 1117 540 1103 q 514 1145 522 1132 q 503 1164 506 1158 q 487 1145 499 1158 q 462 1117 475 1132 q 437 1090 449 1103 q 421 1071 425 1076 l 321 1071 l 522 1325 z "},"ċ":{"ha":583,"x_min":28,"x_max":575,"o":"m 443 154 q 478 103 463 128 q 513 54 493 79 q 416 3 468 22 q 307 -15 364 -15 q 195 7 246 -15 q 107 67 144 29 q 49 156 69 106 q 28 264 28 207 q 57 395 28 333 q 135 504 86 457 q 248 578 183 551 q 383 606 313 606 q 490 587 442 606 q 575 536 538 568 l 478 438 q 367 475 436 475 q 285 460 322 475 q 219 418 247 444 q 176 355 192 392 q 161 276 161 318 q 204 162 161 208 q 322 115 247 115 q 443 154 392 115 m 332 811 q 362 877 332 851 q 425 903 392 903 q 475 881 453 903 q 497 828 497 860 q 489 790 497 807 q 467 761 481 774 q 438 742 454 749 q 406 736 421 736 q 354 756 376 736 q 332 811 332 776 z "},"ĉ":{"ha":583,"x_min":28,"x_max":575,"o":"m 443 154 q 478 103 463 128 q 513 54 493 79 q 416 3 468 22 q 307 -15 364 -15 q 195 7 246 -15 q 107 67 144 29 q 49 156 69 106 q 28 264 28 207 q 57 395 28 333 q 135 504 86 457 q 248 578 183 551 q 383 606 313 606 q 490 587 442 606 q 575 536 538 568 l 478 438 q 367 475 436 475 q 285 460 322 475 q 219 418 247 444 q 176 355 192 392 q 161 276 161 318 q 204 162 161 208 q 322 115 247 115 q 443 154 392 115 m 417 931 l 554 676 l 456 676 q 444 695 453 682 q 426 723 435 708 q 408 751 417 738 q 397 769 400 764 q 381 751 393 764 q 356 723 369 738 q 331 695 343 708 q 315 676 319 682 l 215 676 l 417 931 z "},"ġ":{"ha":758,"x_min":7,"x_max":700,"o":"m 29 258 q 58 395 29 332 q 133 506 86 458 q 242 579 181 553 q 371 606 304 606 q 451 594 417 606 q 508 567 485 582 q 542 538 531 551 q 557 519 554 524 q 565 553 560 535 q 572 590 569 571 l 700 590 l 632 31 q 592 -103 622 -44 q 514 -202 561 -162 q 405 -262 467 -242 q 272 -283 343 -283 q 178 -272 218 -283 q 108 -243 139 -261 q 53 -203 78 -225 q 7 -158 29 -181 l 103 -68 q 180 -130 139 -104 q 286 -156 221 -156 q 427 -114 371 -156 q 494 4 483 -72 q 496 20 496 11 q 499 39 496 29 q 510 78 507 63 q 476 47 496 64 q 431 17 457 31 q 372 -6 404 3 q 297 -15 339 -15 q 187 6 236 -15 q 102 63 138 26 q 48 150 67 100 q 29 258 29 200 m 164 276 q 208 161 164 207 q 326 115 251 115 q 408 131 369 115 q 473 174 446 147 q 516 238 500 201 q 532 317 532 275 q 488 430 532 385 q 369 475 444 475 q 289 460 326 475 q 224 418 251 444 q 180 355 196 392 q 164 276 164 318 m 358 811 q 388 877 358 851 q 451 903 418 903 q 501 881 479 903 q 524 828 524 860 q 515 790 524 807 q 494 761 507 774 q 464 742 481 749 q 432 736 447 736 q 381 756 403 736 q 358 811 358 776 z "},"ĝ":{"ha":758,"x_min":7,"x_max":700,"o":"m 29 258 q 58 395 29 332 q 133 506 86 458 q 242 579 181 553 q 371 606 304 606 q 453 593 418 606 q 510 565 488 581 q 544 536 533 550 q 557 519 556 522 q 565 553 560 535 q 572 590 569 571 l 700 590 l 632 31 q 592 -103 622 -44 q 514 -202 561 -162 q 405 -262 467 -242 q 272 -283 343 -283 q 178 -272 218 -283 q 108 -243 139 -261 q 53 -203 78 -225 q 7 -158 29 -181 l 103 -68 q 180 -130 139 -104 q 286 -156 221 -156 q 427 -114 371 -156 q 494 4 483 -72 q 496 20 496 11 q 499 39 496 29 q 510 78 507 63 q 476 47 496 64 q 431 17 457 31 q 372 -6 404 3 q 297 -15 339 -15 q 187 6 236 -15 q 102 63 138 26 q 48 150 67 100 q 29 258 29 200 m 164 276 q 208 161 164 207 q 326 115 251 115 q 408 131 369 115 q 473 174 446 147 q 516 238 500 201 q 532 317 532 275 q 488 430 532 385 q 369 475 444 475 q 289 460 326 475 q 224 418 251 444 q 180 355 196 392 q 164 276 164 318 m 418 931 l 556 676 l 457 676 q 445 695 454 682 q 427 723 436 708 q 410 751 418 738 q 399 769 401 764 q 383 751 394 764 q 358 723 371 738 q 333 695 344 708 q 317 676 321 682 l 217 676 l 418 931 z "},"ŭ":{"ha":724,"x_min":40,"x_max":665,"o":"m 592 -14 l 479 -14 l 483 150 q 381 33 443 79 q 226 -14 318 -14 q 88 34 135 -14 q 47 161 40 82 l 100 590 l 232 590 l 189 224 q 209 151 185 181 q 293 118 233 121 q 369 132 333 118 q 431 171 404 146 q 476 231 458 196 q 499 306 493 265 l 533 590 l 665 590 l 592 -14 m 399 694 q 314 711 353 694 q 248 757 275 728 q 208 826 221 786 q 199 913 194 867 l 272 913 q 303 808 267 849 q 407 768 340 768 q 518 808 472 768 q 574 913 564 849 l 649 913 q 620 826 643 867 q 563 757 597 786 q 487 711 529 728 q 399 694 444 694 z "},"ŝ":{"ha":486,"x_min":0,"x_max":450,"o":"m 436 538 q 412 509 425 525 q 386 479 399 493 q 365 455 374 465 q 356 444 356 444 q 349 449 356 444 q 331 460 343 454 q 301 470 318 465 q 267 475 285 475 q 221 465 244 475 q 197 424 197 454 q 213 388 197 403 q 253 361 229 374 q 306 335 278 349 q 359 303 335 322 q 399 256 383 283 q 415 189 415 229 q 399 109 415 146 q 351 45 382 72 q 279 3 321 18 q 186 -12 238 -12 q 78 7 129 -12 q 0 63 28 26 q 28 90 13 74 q 59 122 44 107 q 83 148 74 138 q 93 158 93 158 q 101 153 93 160 q 124 139 110 147 q 159 124 139 131 q 201 117 179 117 q 259 134 238 117 q 281 175 281 151 q 265 207 281 194 q 224 231 249 219 q 171 254 199 242 q 118 286 143 267 q 77 335 93 306 q 61 407 61 364 q 82 500 61 463 q 135 560 103 538 q 206 594 168 583 q 276 604 243 604 q 364 587 319 604 q 436 538 408 569 m 313 931 l 450 676 l 351 676 q 340 695 349 682 q 322 723 331 708 q 304 751 313 738 q 293 769 296 764 q 277 751 289 764 q 252 723 265 738 q 227 695 239 708 q 211 676 215 682 l 111 676 l 313 931 z "},"œ":{"ha":1004,"x_min":28,"x_max":985,"o":"m 897 68 q 786 7 850 29 q 658 -15 722 -15 q 567 -1 610 -15 q 490 38 525 13 q 404 -1 450 13 q 307 -15 358 -15 q 196 5 247 -15 q 107 61 144 25 q 49 148 69 97 q 28 261 28 199 q 57 394 28 332 q 135 503 86 456 q 249 577 185 550 q 385 604 314 604 q 476 590 433 604 q 553 553 518 576 q 638 590 593 576 q 729 604 682 604 q 897 544 829 604 q 985 385 965 485 q 884 348 942 369 q 764 303 826 326 q 639 255 701 279 q 524 211 576 231 q 580 142 540 168 q 671 115 619 115 q 745 128 707 115 q 811 164 783 142 l 897 68 m 364 475 q 287 459 324 475 q 222 416 250 443 q 178 353 194 389 q 161 276 161 317 q 173 213 161 243 q 206 162 185 183 q 257 128 228 140 q 321 115 286 115 q 408 136 367 115 q 379 264 379 194 q 396 365 379 317 q 443 454 413 414 q 406 469 425 464 q 364 475 386 475 m 824 415 q 779 460 811 446 q 715 475 747 475 q 642 460 676 475 q 580 419 607 444 q 535 363 553 394 q 515 296 518 331 q 593 326 551 310 q 676 358 635 342 q 756 390 717 375 q 824 415 794 404 z "},"Œ":{"ha":1333,"x_min":58,"x_max":1339,"o":"m 515 -11 q 333 25 417 -11 q 188 124 249 61 q 92 271 126 186 q 58 453 58 356 q 106 671 58 567 q 235 853 154 775 q 422 977 317 931 q 642 1024 526 1024 q 743 1013 692 1024 l 1339 1013 l 1319 858 l 860 858 l 825 586 l 1229 586 l 1211 428 l 807 428 l 774 158 l 1253 158 l 1233 0 l 621 0 q 567 -8 593 -6 q 515 -11 542 -11 m 622 860 q 474 828 544 860 q 349 744 403 797 q 262 619 294 690 q 229 468 229 547 q 252 343 229 401 q 317 242 275 285 q 415 175 358 200 q 539 150 472 150 q 601 156 574 150 l 688 853 q 655 858 671 856 q 622 860 639 860 z "},"Ÿ":{"ha":931,"x_min":81,"x_max":1000,"o":"m 543 328 l 503 0 l 332 0 l 371 328 q 344 390 365 338 q 292 515 322 442 q 226 670 261 588 q 160 826 190 753 q 107 951 129 899 q 81 1013 85 1003 l 274 1013 q 290 973 278 1003 q 319 901 303 943 q 356 808 336 858 q 397 706 376 757 q 435 609 417 656 q 467 528 453 563 l 476 481 q 489 505 483 492 q 500 528 494 518 q 552 609 522 563 q 613 706 582 656 q 676 808 644 757 q 735 901 708 858 q 781 973 763 943 q 807 1013 800 1003 l 1000 1013 l 543 328 m 611 1154 q 620 1192 611 1175 q 643 1222 629 1210 q 674 1242 657 1235 q 708 1249 692 1249 q 759 1226 736 1249 q 782 1171 782 1204 q 773 1133 782 1150 q 750 1103 764 1115 q 719 1083 736 1090 q 688 1076 703 1076 q 635 1097 658 1076 q 611 1154 611 1118 m 343 1154 q 352 1192 343 1175 q 375 1222 361 1210 q 406 1242 389 1235 q 440 1249 424 1249 q 491 1226 468 1249 q 514 1171 514 1204 q 505 1133 514 1150 q 482 1103 496 1115 q 451 1083 468 1090 q 419 1076 435 1076 q 366 1097 389 1076 q 343 1154 343 1118 z "},"Ẽ":{"ha":858,"x_min":67,"x_max":863,"o":"m 67 0 l 190 1013 l 863 1013 l 844 858 l 342 858 l 308 586 l 756 586 l 736 428 l 289 428 l 256 158 l 778 158 l 758 0 l 67 0 m 540 1140 q 506 1167 521 1160 q 472 1175 492 1175 q 451 1173 463 1175 q 428 1164 439 1171 q 408 1145 417 1157 q 394 1114 399 1133 l 319 1117 q 340 1170 325 1146 q 377 1212 356 1194 q 422 1239 399 1229 q 468 1249 446 1249 q 528 1238 503 1249 q 574 1204 553 1226 q 608 1176 593 1183 q 642 1169 622 1169 q 686 1181 661 1169 q 721 1231 711 1192 l 794 1228 q 774 1174 789 1199 q 737 1133 758 1150 q 692 1106 715 1115 q 646 1096 668 1096 q 587 1108 613 1096 q 540 1140 561 1119 z "},"Ŗ":{"ha":881,"x_min":67,"x_max":821,"o":"m 67 0 l 190 1013 l 476 1013 q 720 937 631 1013 q 810 726 810 861 q 799 633 810 681 q 766 540 789 585 q 707 458 743 496 q 621 393 671 419 q 669 298 646 344 q 715 205 692 251 q 765 108 739 158 q 821 0 790 57 l 617 0 q 522 185 567 99 q 435 349 476 271 l 421 349 l 279 349 l 236 0 l 67 0 m 299 508 l 435 508 q 532 528 493 508 q 594 578 571 549 q 628 642 618 608 q 638 703 638 675 q 630 753 638 726 q 604 801 622 779 q 555 838 586 824 q 478 853 524 853 l 342 853 l 299 508 m 492 -29 l 333 -321 l 206 -321 l 350 -29 l 492 -29 z "},"Ĩ":{"ha":401,"x_min":57,"x_max":532,"o":"m 192 1013 l 361 1013 l 238 0 l 67 0 l 192 1013 m 278 1111 q 244 1138 258 1131 q 210 1146 229 1146 q 188 1144 200 1146 q 165 1135 176 1142 q 145 1116 154 1128 q 132 1085 136 1104 l 57 1088 q 78 1141 63 1117 q 115 1183 93 1165 q 160 1210 136 1200 q 206 1219 183 1219 q 265 1208 240 1219 q 311 1175 290 1197 q 345 1147 331 1154 q 379 1140 360 1140 q 424 1151 399 1140 q 458 1201 449 1163 l 532 1199 q 511 1145 526 1169 q 474 1103 496 1121 q 429 1076 453 1086 q 383 1067 406 1067 q 324 1078 350 1067 q 278 1111 299 1090 z "},"Ļ":{"ha":794,"x_min":67,"x_max":747,"o":"m 67 0 l 190 1013 l 361 1013 l 256 161 l 747 161 l 728 0 l 67 0 m 514 -29 l 356 -321 l 228 -321 l 372 -29 l 514 -29 z "},"Ē":{"ha":858,"x_min":67,"x_max":863,"o":"m 67 0 l 190 1013 l 863 1013 l 844 858 l 342 858 l 308 586 l 756 586 l 736 428 l 289 428 l 256 158 l 778 158 l 758 0 l 67 0 m 388 1079 l 397 1168 l 722 1168 l 713 1079 l 388 1079 z "},"Ģ":{"ha":954,"x_min":58,"x_max":946,"o":"m 894 492 l 842 61 q 694 8 779 26 q 524 -11 610 -11 q 327 22 414 -11 q 181 113 240 54 q 90 251 121 171 q 58 426 58 332 q 109 667 58 557 q 244 856 160 776 q 438 979 329 935 q 661 1024 546 1024 q 737 1019 697 1024 q 814 1004 776 1014 q 885 981 851 994 q 946 950 919 968 l 846 811 q 803 833 828 824 q 749 849 778 842 q 692 859 721 856 q 639 863 664 863 q 490 831 564 863 q 360 746 417 800 q 267 618 303 692 q 232 461 232 544 q 254 342 232 399 q 317 242 276 285 q 417 175 358 200 q 547 150 475 150 q 617 155 575 150 q 697 172 658 160 l 719 344 l 531 344 l 549 492 l 894 492 m 563 -29 l 404 -321 l 276 -321 l 421 -29 l 563 -29 z "},"Ŧ":{"ha":779,"x_min":113,"x_max":799,"o":"m 249 603 l 258 692 l 338 692 l 357 850 l 113 850 l 133 1013 l 799 1013 l 779 850 l 528 850 l 508 692 l 583 692 l 574 603 l 497 603 l 424 0 l 253 0 l 326 603 l 249 603 z "},"ŗ":{"ha":450,"x_min":-28,"x_max":468,"o":"m 417 433 q 342 424 379 433 q 275 394 306 414 q 224 344 244 374 q 199 274 204 314 l 167 0 l 33 0 l 106 590 l 224 590 q 220 546 221 565 q 219 509 219 526 q 217 475 218 492 q 215 439 217 458 q 273 508 239 478 q 343 560 307 539 q 413 594 379 582 q 468 606 446 606 l 417 433 m 258 -29 l 100 -321 l -28 -321 l 117 -29 l 258 -29 z "},"ē":{"ha":651,"x_min":28,"x_max":633,"o":"m 546 68 q 433 7 497 29 q 307 -15 369 -15 q 195 7 246 -15 q 107 67 144 29 q 49 156 69 106 q 28 264 28 207 q 57 395 28 333 q 135 503 86 457 q 248 577 185 550 q 378 604 311 604 q 546 544 478 604 q 633 385 614 485 q 532 348 589 369 q 413 303 475 326 q 288 255 350 279 q 172 211 225 231 q 228 142 189 168 q 319 115 267 115 q 394 128 356 115 q 458 164 432 142 l 546 68 m 233 669 l 243 758 l 568 758 l 558 669 l 233 669 m 472 415 q 427 460 458 446 q 364 475 396 475 q 290 460 325 475 q 227 419 254 444 q 183 362 200 394 q 163 296 165 329 q 240 326 199 310 q 324 358 282 342 q 404 390 365 375 q 472 415 443 404 m 163 296 l 163 294 q 163 292 163 292 q 163 296 164 293 z "},"ģ":{"ha":758,"x_min":7,"x_max":700,"o":"m 29 258 q 58 395 29 332 q 133 506 86 458 q 242 579 181 553 q 371 606 304 606 q 453 593 418 606 q 510 565 488 581 q 544 536 533 550 q 557 519 556 522 q 565 553 560 535 q 572 590 569 571 l 700 590 l 632 31 q 592 -103 622 -44 q 514 -202 561 -162 q 405 -262 467 -242 q 272 -283 343 -283 q 178 -272 218 -283 q 108 -243 139 -261 q 53 -203 78 -225 q 7 -158 29 -181 l 103 -68 q 180 -130 139 -104 q 286 -156 221 -156 q 427 -114 371 -156 q 494 4 483 -72 q 496 20 496 11 q 499 39 496 29 q 510 78 507 63 q 476 47 496 64 q 431 17 457 31 q 372 -6 404 3 q 297 -15 339 -15 q 187 6 236 -15 q 102 63 138 26 q 48 150 67 100 q 29 258 29 200 m 164 276 q 208 161 164 207 q 326 115 251 115 q 408 131 369 115 q 473 174 446 147 q 516 238 500 201 q 532 317 532 275 q 488 430 532 385 q 369 475 444 475 q 289 460 326 475 q 224 418 251 444 q 180 355 196 392 q 164 276 164 318 m 339 704 l 497 996 l 625 996 l 481 704 l 339 704 z "},"ŧ":{"ha":439,"x_min":44,"x_max":446,"o":"m 93 669 l 103 758 l 181 758 l 192 849 l 324 849 l 313 758 l 428 758 l 418 669 l 301 669 l 293 590 l 446 590 l 431 471 l 278 471 l 219 0 l 88 0 l 144 471 l 44 471 l 60 590 l 160 590 l 169 669 l 93 669 z "},"Ā":{"ha":907,"x_min":-49,"x_max":858,"o":"m 858 0 q 840 62 854 13 q 803 184 825 111 q 753 347 781 257 q 697 529 725 436 q 641 712 668 622 q 592 874 614 801 q 554 997 569 947 q 535 1058 539 1046 q 501 997 528 1046 q 433 874 474 947 q 344 712 393 801 q 243 529 294 622 q 142 347 192 436 q 53 184 93 257 q -15 62 13 111 q -49 0 -42 13 l 119 0 q 139 35 125 10 q 172 96 153 60 q 214 176 190 132 q 263 267 238 219 l 611 267 l 690 0 l 858 0 m 469 651 q 478 671 471 653 q 490 703 486 689 q 496 671 493 689 q 499 651 499 653 q 524 565 504 632 q 569 410 543 497 l 340 410 l 469 651 m 376 1097 l 386 1186 l 711 1186 l 701 1097 l 376 1097 z "},"Į":{"ha":401,"x_min":-71,"x_max":361,"o":"m 192 1013 l 361 1013 l 238 0 l 67 0 l 192 1013 m 154 0 l 68 0 l 67 -11 q 56 -43 64 -32 q 39 -62 49 -54 q 19 -74 29 -69 q -1 -86 8 -79 q -58 -151 -44 -117 q -71 -222 -71 -186 q -62 -274 -71 -249 q -37 -319 -54 -299 q 6 -351 -21 -339 q 68 -362 32 -362 q 163 -335 117 -362 q 236 -250 210 -308 q 201 -229 219 -239 q 165 -210 183 -219 q 138 -244 156 -231 q 93 -258 119 -258 q 51 -241 65 -258 q 38 -196 38 -224 q 53 -149 38 -165 q 90 -119 69 -132 q 127 -92 110 -106 q 147 -54 144 -78 l 154 0 z "},"ĩ":{"ha":296,"x_min":-46,"x_max":429,"o":"m 167 0 l 33 0 l 106 590 l 239 590 l 167 0 m 175 713 q 141 740 156 732 q 107 747 126 747 q 85 745 97 747 q 63 736 74 743 q 42 717 51 729 q 29 686 33 706 l -46 689 q -25 742 -40 718 q 12 784 -10 767 q 57 811 33 801 q 103 821 81 821 q 163 810 138 821 q 208 776 188 799 q 242 749 228 756 q 276 742 257 742 q 321 753 296 742 q 356 803 346 764 l 429 800 q 408 747 424 771 q 372 705 393 722 q 326 678 350 688 q 281 668 303 668 q 222 680 247 668 q 175 713 196 692 z "},"ļ":{"ha":296,"x_min":-118,"x_max":299,"o":"m 165 0 l 33 0 l 167 1085 l 299 1085 l 165 0 m 168 -29 l 10 -321 l -118 -321 l 26 -29 l 168 -29 z "},"Ė":{"ha":858,"x_min":67,"x_max":863,"o":"m 67 0 l 190 1013 l 863 1013 l 844 858 l 342 858 l 308 586 l 756 586 l 736 428 l 289 428 l 256 158 l 778 158 l 758 0 l 67 0 m 460 1140 q 490 1206 460 1181 q 553 1232 519 1232 q 603 1210 581 1232 q 625 1157 625 1189 q 617 1119 625 1136 q 595 1090 608 1103 q 565 1072 582 1078 q 533 1065 549 1065 q 482 1085 504 1065 q 460 1140 460 1106 z "},"Ī":{"ha":401,"x_min":67,"x_max":465,"o":"m 192 1013 l 361 1013 l 238 0 l 67 0 l 192 1013 m 131 1097 l 140 1186 l 465 1186 l 456 1097 l 131 1097 z "},"Ņ":{"ha":1124,"x_min":67,"x_max":1085,"o":"m 1085 1013 l 956 -47 q 918 -1 947 -35 q 847 78 889 32 q 752 181 804 125 q 646 295 700 238 q 540 408 592 353 q 446 510 488 464 q 375 590 404 557 q 339 635 346 622 q 329 649 338 638 q 315 671 321 661 q 314 649 314 660 q 314 626 314 638 l 236 0 l 67 0 l 197 1058 q 235 1013 206 1046 q 307 935 264 981 q 402 835 350 889 q 508 724 454 781 q 615 613 563 668 q 709 513 667 558 q 780 436 751 468 q 817 392 808 404 l 839 353 q 840 376 840 364 q 840 400 840 389 l 915 1013 l 1085 1013 m 603 -29 l 444 -321 l 317 -321 l 461 -29 l 603 -29 z "},"Ķ":{"ha":907,"x_min":67,"x_max":981,"o":"m 660 0 q 584 115 619 60 q 515 226 549 171 q 444 337 481 281 q 368 454 408 393 q 303 397 338 424 l 254 0 l 67 0 l 190 1013 l 379 1013 l 335 649 q 330 625 333 638 q 324 600 326 613 q 340 617 331 610 q 357 636 349 625 q 561 824 461 726 q 765 1013 661 921 l 981 1013 q 747 790 864 903 q 514 569 631 678 q 608 424 564 494 q 694 284 651 353 q 779 145 736 215 q 871 0 822 75 l 660 0 m 524 -29 l 365 -321 l 238 -321 l 382 -29 l 524 -29 z "},"ņ":{"ha":724,"x_min":33,"x_max":658,"o":"m 106 590 l 224 590 q 220 546 221 565 q 219 509 219 526 q 217 475 218 492 q 215 439 217 458 q 322 560 257 514 q 474 606 386 606 q 611 556 564 606 q 651 428 658 507 l 599 0 l 467 0 l 511 365 q 490 440 514 408 q 408 474 467 471 q 332 459 368 474 q 269 419 296 444 q 224 360 242 394 q 201 285 206 325 l 167 0 l 33 0 l 106 590 m 394 -29 l 236 -321 l 108 -321 l 253 -29 l 394 -29 z "},"ķ":{"ha":632,"x_min":33,"x_max":603,"o":"m 532 604 q 567 565 550 585 q 603 526 583 546 q 490 431 543 478 q 376 336 436 385 q 479 168 429 253 q 581 0 529 83 l 428 0 q 350 124 389 63 q 275 249 311 186 l 188 179 l 167 0 l 33 0 l 167 1085 l 300 1085 l 207 333 q 370 469 292 404 q 532 604 449 533 m 394 -29 l 236 -321 l 108 -321 l 253 -29 l 394 -29 z "},"Ō":{"ha":1132,"x_min":49,"x_max":1100,"o":"m 61 504 q 126 704 74 610 q 257 869 178 799 q 435 982 336 940 q 640 1024 533 1024 q 822 986 738 1024 q 968 885 907 949 q 1065 735 1029 821 q 1100 554 1100 650 q 1051 336 1100 439 q 920 156 1001 233 q 733 34 839 79 q 514 -11 628 -11 q 318 29 407 -11 q 167 140 229 69 q 77 303 106 210 q 61 504 49 397 m 232 504 q 242 366 222 431 q 303 253 261 301 q 404 178 344 206 q 538 150 464 150 q 685 181 614 150 q 810 265 756 213 q 897 390 864 318 q 929 540 929 461 q 906 665 929 607 q 842 767 883 724 q 745 835 801 810 q 622 860 689 860 q 483 832 550 860 q 364 756 417 804 q 276 642 311 707 q 232 504 240 578 m 492 1097 l 501 1186 l 826 1186 l 817 1097 l 492 1097 z "},"Ū":{"ha":997,"x_min":90,"x_max":968,"o":"m 447 -11 q 297 16 365 -11 q 181 92 228 43 q 113 209 135 140 q 101 361 90 278 l 181 1013 l 351 1013 l 271 365 q 278 282 265 321 q 317 214 290 243 q 381 167 343 185 q 467 150 419 150 q 557 167 514 150 q 634 214 600 185 q 690 282 668 243 q 718 365 713 321 l 797 1013 l 968 1013 l 888 361 q 838 209 878 278 q 740 92 799 140 q 605 16 681 43 q 447 -11 529 -11 m 424 1097 l 433 1186 l 758 1186 l 749 1097 l 424 1097 z "},"ō":{"ha":713,"x_min":22,"x_max":660,"o":"m 31 296 q 69 416 38 360 q 149 514 101 472 q 258 580 197 556 q 385 604 318 604 q 497 583 446 604 q 583 524 547 561 q 640 436 619 486 q 660 328 660 386 q 632 196 660 258 q 556 87 604 133 q 444 13 508 40 q 307 -15 379 -15 q 188 7 242 -15 q 96 70 133 29 q 40 169 58 111 q 31 296 22 226 m 163 294 q 169 224 158 257 q 200 167 179 192 q 252 129 221 143 q 321 115 283 115 q 397 131 360 115 q 462 174 433 147 q 507 237 490 201 q 524 313 524 272 q 511 376 524 346 q 477 428 499 406 q 426 463 456 450 q 364 475 397 475 q 292 460 326 475 q 230 422 257 446 q 185 365 203 397 q 163 294 167 332 m 239 669 l 249 758 l 574 758 l 564 669 l 239 669 z "},"ū":{"ha":724,"x_min":40,"x_max":665,"o":"m 592 -14 l 479 -14 l 483 150 q 381 33 443 79 q 226 -14 318 -14 q 88 34 135 -14 q 47 161 40 82 l 100 590 l 232 590 l 189 224 q 209 151 185 181 q 293 118 233 121 q 369 132 333 118 q 431 171 404 146 q 476 231 458 196 q 499 306 493 265 l 533 590 l 665 590 l 592 -14 m 231 669 l 240 758 l 565 758 l 556 669 l 231 669 z "},"ā":{"ha":757,"x_min":28,"x_max":700,"o":"m 28 258 q 57 390 28 328 q 135 501 86 453 q 248 577 185 549 q 379 606 311 606 q 453 595 421 606 q 507 571 485 585 q 542 542 529 557 q 557 519 554 528 l 572 590 l 700 590 l 628 0 l 493 0 l 499 39 q 500 52 500 46 q 501 61 500 58 q 481 41 496 54 q 440 15 465 28 q 381 -6 415 3 q 304 -15 347 -15 q 190 7 242 -15 q 103 67 139 29 q 47 153 67 104 q 28 258 28 203 m 164 276 q 208 161 164 207 q 326 115 251 115 q 408 131 369 115 q 473 174 446 147 q 516 238 500 201 q 532 317 532 275 q 488 430 532 385 q 369 475 444 475 q 289 460 326 475 q 224 418 251 444 q 180 355 196 392 q 164 276 164 318 m 253 669 l 263 758 l 588 758 l 578 669 l 253 669 z "},"Ų":{"ha":997,"x_min":92,"x_max":968,"o":"m 508 0 l 422 0 l 421 -10 q 280 22 343 -6 q 174 99 217 50 q 111 214 131 147 q 101 361 92 281 l 181 1013 l 351 1013 l 271 365 q 278 282 265 321 q 317 214 290 243 q 381 167 343 185 q 467 150 419 150 q 557 167 514 150 q 634 214 600 185 q 690 282 668 243 q 718 365 713 321 l 797 1013 l 968 1013 l 888 361 q 846 222 879 286 q 761 110 813 158 q 644 32 710 63 q 507 -7 579 1 l 508 0 m 447 -11 q 434 -11 440 -11 q 421 -10 428 -11 l 421 -11 q 410 -43 418 -32 q 393 -62 403 -54 q 373 -74 383 -69 q 353 -86 363 -79 q 297 -151 310 -117 q 283 -222 283 -186 q 292 -274 283 -249 q 317 -319 300 -299 q 360 -351 333 -339 q 422 -362 386 -362 q 517 -335 471 -362 q 590 -250 564 -308 q 556 -229 574 -239 q 519 -210 538 -219 q 492 -244 510 -231 q 447 -258 474 -258 q 406 -241 419 -258 q 392 -196 392 -224 q 408 -149 392 -165 q 444 -119 424 -132 q 481 -92 464 -106 q 501 -54 499 -78 l 507 -7 q 447 -11 478 -11 z "},"ī":{"ha":296,"x_min":21,"x_max":356,"o":"m 167 0 l 33 0 l 106 590 l 239 590 l 167 0 m 21 669 l 31 758 l 356 758 l 346 669 l 21 669 z "},"ų":{"ha":724,"x_min":40,"x_max":665,"o":"m 565 0 l 479 0 l 483 150 q 381 33 443 79 q 226 -14 318 -14 q 88 34 135 -14 q 47 161 40 82 l 100 590 l 232 590 l 189 224 q 209 151 185 181 q 293 118 233 121 q 369 132 333 118 q 431 171 404 146 q 476 231 458 196 q 499 306 493 265 l 533 590 l 665 590 l 592 -14 l 563 -14 l 565 0 m 478 -11 q 467 -43 475 -32 q 450 -62 460 -54 q 430 -74 440 -69 q 410 -86 419 -79 q 353 -151 367 -117 q 340 -222 340 -186 q 349 -274 340 -249 q 374 -319 357 -299 q 417 -351 390 -339 q 479 -362 443 -362 q 574 -335 528 -362 q 647 -250 621 -308 q 613 -229 631 -239 q 576 -210 594 -219 q 549 -244 567 -231 q 504 -258 531 -258 q 463 -241 476 -258 q 449 -196 449 -224 q 465 -149 449 -165 q 501 -119 481 -132 q 538 -92 521 -106 q 558 -54 556 -78 l 563 -14 l 479 -14 l 479 0 l 478 -11 z "},"Ũ":{"ha":997,"x_min":90,"x_max":968,"o":"m 447 -11 q 297 16 365 -11 q 181 92 228 43 q 113 209 135 140 q 101 361 90 278 l 181 1013 l 351 1013 l 271 365 q 278 282 265 321 q 317 214 290 243 q 381 167 343 185 q 467 150 419 150 q 557 167 514 150 q 634 214 600 185 q 690 282 668 243 q 718 365 713 321 l 797 1013 l 968 1013 l 888 361 q 838 209 878 278 q 740 92 799 140 q 605 16 681 43 q 447 -11 529 -11 m 578 1111 q 544 1138 558 1131 q 510 1146 529 1146 q 488 1144 500 1146 q 465 1135 476 1142 q 445 1116 454 1128 q 432 1085 436 1104 l 357 1088 q 378 1141 363 1117 q 415 1183 393 1165 q 460 1210 436 1200 q 506 1219 483 1219 q 565 1208 540 1219 q 611 1175 590 1197 q 645 1147 631 1154 q 679 1140 660 1140 q 724 1151 699 1140 q 758 1201 749 1163 l 832 1199 q 811 1145 826 1169 q 774 1103 796 1121 q 729 1076 753 1086 q 683 1067 706 1067 q 624 1078 650 1067 q 578 1111 599 1090 z "},"ũ":{"ha":724,"x_min":40,"x_max":665,"o":"m 592 -14 l 479 -14 l 483 150 q 381 33 443 79 q 226 -14 318 -14 q 88 34 135 -14 q 47 161 40 82 l 100 590 l 232 590 l 189 224 q 209 151 185 181 q 293 118 233 121 q 369 132 333 118 q 431 171 404 146 q 476 231 458 196 q 499 306 493 265 l 533 590 l 665 590 l 592 -14 m 399 713 q 365 740 379 732 q 331 747 350 747 q 309 745 321 747 q 286 736 297 743 q 266 717 275 729 q 253 686 257 706 l 178 689 q 199 742 183 718 q 235 784 214 767 q 281 811 257 801 q 326 821 304 821 q 386 810 361 821 q 432 776 411 799 q 466 749 451 756 q 500 742 481 742 q 544 753 519 742 q 579 803 569 764 l 653 800 q 632 747 647 771 q 595 705 617 722 q 550 678 574 688 q 504 668 526 668 q 445 680 471 668 q 399 713 419 692 z "},"ė":{"ha":651,"x_min":28,"x_max":633,"o":"m 546 68 q 433 7 497 29 q 307 -15 369 -15 q 195 7 246 -15 q 107 67 144 29 q 49 156 69 106 q 28 264 28 207 q 57 395 28 333 q 135 503 86 457 q 248 577 185 550 q 378 604 311 604 q 546 544 478 604 q 633 385 614 485 q 532 348 589 369 q 413 303 475 326 q 288 255 350 279 q 172 211 225 231 q 228 142 189 168 q 319 115 267 115 q 394 128 356 115 q 458 164 432 142 l 546 68 m 472 415 q 427 460 458 446 q 364 475 396 475 q 290 460 325 475 q 227 419 254 444 q 183 362 200 394 q 163 296 165 329 q 240 326 199 310 q 324 358 282 342 q 404 390 365 375 q 472 415 443 404 m 319 811 q 349 877 319 851 q 413 903 379 903 q 463 881 440 903 q 485 828 485 860 q 476 790 485 807 q 455 761 468 774 q 425 742 442 749 q 393 736 408 736 q 342 756 364 736 q 319 811 319 776 m 163 296 l 163 294 q 163 292 163 292 q 163 296 164 293 z "},"į":{"ha":297,"x_min":-106,"x_max":285,"o":"m 119 811 q 149 877 119 851 q 213 903 179 903 q 263 881 240 903 q 285 828 285 860 q 276 790 285 807 q 255 761 268 774 q 225 742 242 749 q 193 736 208 736 q 142 756 164 736 q 119 811 119 776 m 167 0 l 33 0 l 106 590 l 239 590 l 167 0 m 119 0 l 33 0 l 32 -11 q 22 -43 29 -32 q 4 -62 14 -54 q -16 -74 -6 -69 q -36 -86 -26 -79 q -92 -151 -79 -117 q -106 -222 -106 -186 q -97 -274 -106 -249 q -72 -319 -89 -299 q -29 -351 -56 -339 q 33 -362 -3 -362 q 128 -335 82 -362 q 201 -250 175 -308 q 167 -229 185 -239 q 131 -210 149 -219 q 103 -244 121 -231 q 58 -258 85 -258 q 17 -241 31 -258 q 3 -196 3 -224 q 19 -149 3 -165 q 55 -119 35 -132 q 92 -92 75 -106 q 113 -54 110 -78 l 119 0 z "},"…":{"ha":768,"x_min":32,"x_max":664,"o":"m 32 76 q 41 115 32 97 q 64 144 50 132 q 95 165 78 157 q 129 172 113 172 q 180 149 157 172 q 203 94 203 126 q 194 56 203 74 q 171 26 185 39 q 140 7 157 14 q 108 0 124 0 q 55 21 78 0 q 32 76 32 42 m 263 76 q 272 115 263 97 q 294 144 281 132 q 326 165 308 157 q 360 172 343 172 q 410 149 388 172 q 433 94 433 126 q 424 56 433 74 q 401 26 415 39 q 371 7 388 14 q 339 0 354 0 q 286 21 310 0 q 263 76 263 42 m 493 76 q 502 115 493 97 q 525 144 511 132 q 556 165 539 157 q 592 172 574 172 q 642 149 619 172 q 664 94 664 126 q 655 56 664 74 q 633 26 646 39 q 603 7 619 14 q 569 0 586 0 q 517 21 540 0 q 493 76 493 42 z "},"‰":{"ha":1476,"x_min":72,"x_max":1400,"o":"m 174 0 l 682 706 l 838 706 l 331 0 l 174 0 m 731 -31 q 665 -17 694 -31 q 612 18 635 -4 q 576 71 589 40 q 564 138 564 101 q 581 216 564 179 q 628 281 599 253 q 695 324 657 308 q 775 340 733 340 q 840 327 810 340 q 894 292 871 314 q 929 239 917 269 q 942 174 942 208 q 924 94 942 132 q 876 29 906 57 q 809 -15 847 1 q 731 -31 771 -31 m 1189 -31 q 1123 -17 1153 -31 q 1070 18 1093 -4 q 1035 71 1047 40 q 1022 138 1022 101 q 1040 216 1022 179 q 1086 281 1057 253 q 1153 324 1115 308 q 1233 340 1192 340 q 1299 327 1268 340 q 1352 292 1329 314 q 1388 239 1375 269 q 1400 174 1400 208 q 1382 94 1400 132 q 1335 29 1364 57 q 1267 -15 1306 1 q 1189 -31 1229 -31 m 239 364 q 173 376 203 364 q 120 412 143 389 q 85 465 97 435 q 72 531 72 494 q 90 609 72 572 q 136 674 107 646 q 203 717 165 701 q 283 733 242 733 q 349 721 318 733 q 402 686 379 708 q 438 633 425 664 q 450 568 450 603 q 432 489 450 526 q 385 424 414 451 q 317 380 356 396 q 239 364 279 364 m 710 149 q 747 110 710 110 q 784 124 771 110 q 797 165 797 139 q 758 201 797 201 q 723 188 736 201 q 710 149 710 174 m 1168 149 q 1206 110 1168 110 q 1242 124 1229 110 q 1256 165 1256 139 q 1217 201 1256 201 q 1181 188 1194 201 q 1168 149 1168 174 m 218 542 q 227 513 218 524 q 256 501 236 501 q 291 517 278 501 q 304 557 304 532 q 295 584 304 574 q 267 594 286 594 q 231 581 244 594 q 218 542 218 567 z "},"ˆ":{"ha":625,"x_min":240,"x_max":579,"o":"m 442 931 l 579 676 l 481 676 q 469 695 478 682 q 451 723 460 708 q 433 751 442 738 q 422 769 425 764 q 406 751 418 764 q 381 723 394 738 q 356 695 368 708 q 340 676 344 682 l 240 676 l 442 931 z "},"˜":{"ha":832,"x_min":306,"x_max":781,"o":"m 526 713 q 492 740 507 732 q 458 747 478 747 q 437 745 449 747 q 414 736 425 743 q 394 717 403 729 q 381 686 385 706 l 306 689 q 326 742 311 718 q 363 784 342 767 q 408 811 385 801 q 454 821 432 821 q 514 810 489 821 q 560 776 539 799 q 594 749 579 756 q 628 742 608 742 q 672 753 647 742 q 707 803 697 764 l 781 800 q 760 747 775 771 q 723 705 744 722 q 678 678 701 688 q 632 668 654 668 q 573 680 599 668 q 526 713 547 692 z "},"ﬁ":{"ha":813,"x_min":44,"x_max":756,"o":"m 44 460 l 61 590 l 161 590 l 176 717 q 297 991 200 903 q 558 1085 394 1079 l 543 958 q 379 889 433 951 q 310 711 325 826 l 294 590 l 756 590 l 682 0 l 550 0 l 606 460 l 279 460 l 222 0 l 89 0 l 144 460 l 44 460 z "},"ﬂ":{"ha":792,"x_min":44,"x_max":794,"o":"m 44 461 l 61 592 l 161 592 l 176 717 q 297 991 199 903 q 558 1085 394 1079 l 794 1085 l 661 0 l 529 0 l 647 958 l 543 958 q 378 889 432 951 q 310 711 325 826 l 294 592 l 478 592 l 461 461 l 279 461 l 222 0 l 89 0 l 144 461 l 44 461 z "},"˚":{"ha":740,"x_min":367,"x_max":614,"o":"m 444 764 q 456 735 444 747 q 485 724 467 724 q 522 738 506 724 q 538 774 538 753 q 526 804 538 793 q 496 815 515 815 q 460 801 475 815 q 444 764 444 786 m 367 758 q 378 809 367 785 q 410 851 390 833 q 454 881 429 869 q 506 892 479 892 q 583 859 551 892 q 614 782 614 826 q 602 730 614 754 q 572 688 590 706 q 528 658 553 669 q 476 647 503 647 q 398 680 429 647 q 367 758 367 713 z "},"⁄":{"ha":518,"x_min":-58,"x_max":610,"o":"m -58 0 l 465 1065 l 610 1065 q 347 533 476 797 q 85 0 218 268 l -58 0 z "},"ƒ":{"ha":518,"x_min":-126,"x_max":575,"o":"m 296 461 l 257 139 q 135 -137 233 -49 q -126 -231 38 -225 l -110 -103 q 54 -33 0 -96 q 122 143 108 29 l 161 461 l 61 461 l 78 592 l 178 592 l 193 717 q 313 991 215 903 q 575 1085 411 1079 l 560 958 q 395 889 449 951 q 326 711 342 826 l 311 592 l 494 592 l 478 461 l 296 461 z "},"†":{"ha":488,"x_min":88,"x_max":447,"o":"m 122 -12 l 188 519 l 88 519 l 104 658 l 206 658 l 231 863 l 374 863 l 349 658 l 447 658 l 431 519 l 331 519 l 265 -12 l 122 -12 z "},"‡":{"ha":535,"x_min":44,"x_max":481,"o":"m 146 -12 l 182 281 l 44 281 l 63 419 l 199 419 l 211 519 l 111 519 l 128 658 l 228 658 l 253 863 l 396 863 l 371 658 l 471 658 l 454 519 l 354 519 l 342 419 l 481 419 l 463 281 l 325 281 l 289 -12 l 146 -12 z "},"™":{"ha":815,"x_min":183,"x_max":854,"o":"m 490 1067 l 642 815 q 658 836 643 818 q 697 881 674 854 q 745 938 719 907 q 794 995 771 968 q 833 1042 817 1022 q 854 1067 850 1061 l 808 692 l 743 692 l 767 876 q 768 885 767 881 q 769 890 769 889 q 744 858 765 883 q 699 804 724 833 q 655 749 675 775 q 631 718 635 724 q 612 749 628 722 q 577 806 596 775 q 544 862 558 836 q 528 890 529 888 l 528 876 l 506 692 l 444 692 l 490 1067 m 425 1051 l 418 994 l 329 994 l 292 692 l 233 692 l 271 994 l 183 994 l 190 1051 l 425 1051 z "},"−":{"ha":669,"x_min":60,"x_max":585,"o":"m 567 219 l 60 219 l 76 358 l 585 358 l 567 219 z "},"∫":{"ha":475,"x_min":-40,"x_max":522,"o":"m 226 886 q 253 987 235 953 q 297 1035 271 1021 q 355 1051 322 1050 q 425 1053 388 1053 l 522 1053 l 506 914 l 449 914 q 412 909 426 914 q 387 890 397 904 q 369 847 376 875 q 357 772 363 818 l 254 -57 q 228 -150 247 -118 q 183 -196 210 -182 q 124 -210 157 -210 q 58 -211 92 -211 l -40 -211 l -24 -72 l 33 -72 q 70 -67 56 -72 q 95 -47 85 -62 q 113 -3 106 -32 q 125 71 119 25 l 226 886 z "},"∏":{"ha":700,"x_min":68,"x_max":651,"o":"m 211 -114 l 68 -114 l 213 1058 l 651 1058 l 507 -114 l 365 -114 l 493 919 l 338 919 l 211 -114 z "},"π":{"ha":642,"x_min":44,"x_max":604,"o":"m 265 360 l 222 0 l 79 0 l 122 360 l 44 360 l 61 497 l 604 497 l 588 360 l 507 360 l 463 0 l 321 0 l 365 360 l 265 360 z "},"€":{"ha":753,"x_min":47,"x_max":756,"o":"m 74 565 l 167 565 q 232 725 189 657 q 331 838 275 793 q 453 906 388 883 q 589 928 519 928 q 681 916 639 928 q 756 885 724 904 l 676 758 q 629 782 654 774 q 568 790 604 790 q 401 730 464 790 q 311 565 338 669 l 597 565 l 588 492 l 299 492 q 294 431 294 463 l 294 417 l 579 417 l 569 343 l 297 343 q 325 244 306 285 q 370 177 344 203 q 426 140 396 151 q 486 128 457 128 q 593 161 543 128 l 647 29 q 469 -12 565 -12 q 346 11 403 -12 q 247 80 289 35 q 178 191 204 125 q 147 343 151 257 l 47 343 l 57 417 l 147 417 q 149 455 149 436 q 153 492 150 474 l 64 492 l 74 565 z "},"≤":{"ha":756,"x_min":65,"x_max":742,"o":"m 679 497 l 654 301 q 369 478 511 390 q 83 657 226 567 q 413 835 249 746 q 742 1011 576 924 l 718 817 l 422 657 l 679 497 m 574 72 l 65 72 l 82 211 l 590 211 l 574 72 z "},"≥":{"ha":769,"x_min":67,"x_max":756,"o":"m 121 497 l 417 657 l 158 817 l 183 1011 q 469 835 328 924 q 756 657 611 746 q 426 478 589 567 q 96 301 263 390 l 121 497 m 83 211 l 592 211 l 575 72 l 67 72 l 83 211 z "},"≠":{"ha":924,"x_min":58,"x_max":838,"o":"m 838 557 l 821 418 l 567 418 l 435 283 l 804 283 l 788 144 l 299 144 l 132 -25 l 58 47 l 154 144 l 74 144 l 90 283 l 292 283 l 425 418 l 107 418 l 124 557 l 561 557 l 760 760 l 831 686 l 703 557 l 838 557 z "},"≈":{"ha":624,"x_min":63,"x_max":564,"o":"m 283 267 q 249 294 264 286 q 215 301 235 301 q 194 299 206 301 q 171 290 182 297 q 151 272 160 283 q 138 240 142 260 l 63 243 q 83 297 68 272 q 120 338 99 321 q 165 365 142 356 q 211 375 189 375 q 271 364 246 375 q 317 331 296 353 q 351 303 336 310 q 385 296 365 296 q 429 307 404 296 q 464 357 454 318 l 538 354 q 517 301 532 325 q 480 259 501 276 q 435 232 458 242 q 389 222 411 222 q 330 234 356 222 q 283 267 304 246 m 310 474 q 276 501 290 493 q 242 508 261 508 q 220 506 232 508 q 197 497 208 504 q 177 478 186 490 q 164 447 168 467 l 89 450 q 110 503 94 479 q 147 545 125 528 q 192 572 168 563 q 238 582 215 582 q 297 571 272 582 q 343 538 322 560 q 377 510 363 517 q 411 503 392 503 q 456 514 431 503 q 490 564 481 525 l 564 561 q 543 508 558 532 q 506 466 528 483 q 461 439 485 449 q 415 429 438 429 q 356 441 382 429 q 310 474 331 453 z "},"∑":{"ha":699,"x_min":6,"x_max":732,"o":"m 211 15 l 563 15 l 586 -124 l 6 -124 l 239 468 l 151 1058 l 732 1058 l 674 919 l 322 919 l 393 468 l 211 15 z "},"Ω":{"ha":928,"x_min":26,"x_max":863,"o":"m 43 139 l 203 139 q 122 235 156 174 q 89 400 89 296 q 125 606 89 521 q 220 747 161 692 q 356 827 279 801 q 517 853 433 853 q 681 822 613 853 q 792 738 750 792 q 848 608 833 683 q 849 444 863 533 q 780 251 829 322 q 672 139 731 179 l 822 139 l 806 0 l 500 0 l 508 67 l 517 139 q 594 192 560 157 q 653 271 629 226 q 690 366 676 315 q 706 468 703 417 q 699 558 708 514 q 667 637 690 603 q 605 692 644 671 q 507 714 565 714 q 385 685 435 714 q 304 615 336 657 q 256 524 272 572 q 236 436 240 475 q 259 250 221 328 q 364 139 297 172 l 356 72 l 347 0 l 26 0 l 43 139 z "},"√":{"ha":731,"x_min":21,"x_max":772,"o":"m 33 482 l 206 482 l 299 193 l 674 858 l 772 858 l 272 -19 l 133 399 l 21 399 l 33 482 z "},"∆":{"ha":583,"x_min":49,"x_max":528,"o":"m 371 1028 l 528 351 l 49 351 l 371 1028 m 185 435 l 411 435 l 339 772 l 185 435 z "},"◊":{"ha":578,"x_min":63,"x_max":542,"o":"m 63 504 l 367 1028 l 542 504 l 236 -19 l 63 504 m 161 504 l 263 193 l 443 504 l 340 817 l 161 504 z "},"∞":{"ha":708,"x_min":74,"x_max":639,"o":"m 478 296 q 405 308 439 296 q 347 344 371 321 q 280 308 318 321 q 203 296 242 296 q 144 307 168 296 q 103 335 119 318 q 81 374 88 353 q 74 417 74 396 q 84 465 74 439 q 115 512 94 490 q 165 547 135 533 q 235 561 194 561 q 308 548 274 561 q 367 513 343 535 q 433 548 396 535 q 510 561 471 561 q 569 550 544 561 q 609 522 593 539 q 632 483 625 504 q 639 440 639 461 q 629 392 639 417 q 599 345 619 367 q 549 310 579 324 q 478 296 519 296 m 315 426 q 291 463 318 450 q 228 476 264 476 q 157 421 157 476 q 170 392 157 404 q 215 379 183 379 q 281 392 250 379 q 315 426 313 404 m 400 429 q 399 421 399 426 q 429 390 401 401 q 488 379 457 379 q 543 397 531 379 q 556 435 556 414 q 500 476 556 476 q 438 465 468 476 q 400 435 408 454 l 400 429 z "}}}
